<?xml version="1.0" encoding="UTF-8" standalone="no"?>
<!-- Created with Inkscape (http://www.inkscape.org/) -->

<svg
   version="1.1"
   id="svg1"
   width="462.58679"
   height="221.67467"
   viewBox="0 0 462.58679 221.67467"
   sodipodi:docname="3_phase_fault_50_percent_voltage_drop_ir.svg"
   inkscape:version="1.4 (86a8ad7, 2024-10-11)"
   xmlns:inkscape="http://www.inkscape.org/namespaces/inkscape"
   xmlns:sodipodi="http://sodipodi.sourceforge.net/DTD/sodipodi-0.dtd"
   xmlns="http://www.w3.org/2000/svg"
   xmlns:svg="http://www.w3.org/2000/svg">
  <defs
     id="defs1">
    <clipPath
       clipPathUnits="userSpaceOnUse"
       id="clipPath2">
      <path
         d="M 0,0 H 453.74 V 197.99 H 0 Z"
         id="path2" />
    </clipPath>
    <clipPath
       clipPathUnits="userSpaceOnUse"
       id="clipPath3">
      <path
         d="M 0,0 H 453.74 V 197.99 H 0 Z"
         id="path3" />
    </clipPath>
    <clipPath
       clipPathUnits="userSpaceOnUse"
       id="clipPath4">
      <path
         d="M 0,0 H 453.74 V 197.99 H 0 Z"
         id="path4" />
    </clipPath>
    <clipPath
       clipPathUnits="userSpaceOnUse"
       id="clipPath5">
      <path
         d="M 0,0 H 453.74 V 197.99 H 0 Z"
         id="path5" />
    </clipPath>
    <clipPath
       clipPathUnits="userSpaceOnUse"
       id="clipPath6">
      <path
         d="M 0,0 H 453.74 V 197.99 H 0 Z"
         id="path6" />
    </clipPath>
    <clipPath
       clipPathUnits="userSpaceOnUse"
       id="clipPath7">
      <path
         d="M 0,0 H 453.74 V 197.99 H 0 Z"
         id="path7" />
    </clipPath>
    <clipPath
       clipPathUnits="userSpaceOnUse"
       id="clipPath8">
      <path
         d="M 0,0 H 453.74 V 197.99 H 0 Z"
         id="path8" />
    </clipPath>
    <clipPath
       clipPathUnits="userSpaceOnUse"
       id="clipPath9">
      <path
         d="M 0,0 H 453.74 V 197.99 H 0 Z"
         id="path9" />
    </clipPath>
    <clipPath
       clipPathUnits="userSpaceOnUse"
       id="clipPath10">
      <path
         d="M 0,0 H 453.74 V 197.99 H 0 Z"
         id="path10" />
    </clipPath>
    <clipPath
       clipPathUnits="userSpaceOnUse"
       id="clipPath11">
      <path
         d="M 0,0 H 453.74 V 197.99 H 0 Z"
         id="path11" />
    </clipPath>
    <clipPath
       clipPathUnits="userSpaceOnUse"
       id="clipPath12">
      <path
         d="M 0,0 H 453.74 V 197.99 H 0 Z"
         id="path12" />
    </clipPath>
    <clipPath
       clipPathUnits="userSpaceOnUse"
       id="clipPath13">
      <path
         d="M 0,0 H 453.74 V 197.99 H 0 Z"
         id="path13" />
    </clipPath>
    <clipPath
       clipPathUnits="userSpaceOnUse"
       id="clipPath14">
      <path
         d="M 0,0 H 453.74 V 197.99 H 0 Z"
         id="path14" />
    </clipPath>
    <clipPath
       clipPathUnits="userSpaceOnUse"
       id="clipPath15">
      <path
         d="M 0,0 H 453.74 V 197.99 H 0 Z"
         id="path15" />
    </clipPath>
    <clipPath
       clipPathUnits="userSpaceOnUse"
       id="clipPath16">
      <path
         d="M 0,0 H 453.74 V 197.99 H 0 Z"
         id="path16" />
    </clipPath>
    <clipPath
       clipPathUnits="userSpaceOnUse"
       id="clipPath17">
      <path
         d="M 0,0 H 453.74 V 197.99 H 0 Z"
         id="path17" />
    </clipPath>
    <clipPath
       clipPathUnits="userSpaceOnUse"
       id="clipPath18">
      <path
         d="M 0,0 H 453.74 V 197.99 H 0 Z"
         id="path18" />
    </clipPath>
    <clipPath
       clipPathUnits="userSpaceOnUse"
       id="clipPath19">
      <path
         d="M 0,0 H 453.74 V 197.99 H 0 Z"
         id="path19" />
    </clipPath>
    <clipPath
       clipPathUnits="userSpaceOnUse"
       id="clipPath20">
      <path
         d="M 0,0 H 453.74 V 197.99 H 0 Z"
         id="path20" />
    </clipPath>
    <clipPath
       clipPathUnits="userSpaceOnUse"
       id="clipPath21">
      <path
         d="M 0,0 H 453.74 V 197.99 H 0 Z"
         id="path21" />
    </clipPath>
    <clipPath
       clipPathUnits="userSpaceOnUse"
       id="clipPath22">
      <path
         d="M 0,0 H 453.74 V 197.99 H 0 Z"
         id="path22" />
    </clipPath>
    <clipPath
       clipPathUnits="userSpaceOnUse"
       id="clipPath23">
      <path
         d="M 0,0 H 453.74 V 197.99 H 0 Z"
         id="path23" />
    </clipPath>
    <clipPath
       clipPathUnits="userSpaceOnUse"
       id="clipPath24">
      <path
         d="M 0,0 H 453.74 V 197.99 H 0 Z"
         id="path24" />
    </clipPath>
    <clipPath
       clipPathUnits="userSpaceOnUse"
       id="clipPath25">
      <path
         d="M 0,0 H 453.74 V 197.99 H 0 Z"
         id="path25" />
    </clipPath>
    <clipPath
       clipPathUnits="userSpaceOnUse"
       id="clipPath26">
      <path
         d="M 0,0 H 453.74 V 197.99 H 0 Z"
         id="path26" />
    </clipPath>
    <clipPath
       clipPathUnits="userSpaceOnUse"
       id="clipPath27">
      <path
         d="M 0,0 H 453.74 V 197.99 H 0 Z"
         id="path27" />
    </clipPath>
    <clipPath
       clipPathUnits="userSpaceOnUse"
       id="clipPath28">
      <path
         d="M 0,0 H 453.74 V 197.99 H 0 Z"
         id="path28" />
    </clipPath>
    <clipPath
       clipPathUnits="userSpaceOnUse"
       id="clipPath29">
      <path
         d="M 0,0 H 453.74 V 197.99 H 0 Z"
         id="path29" />
    </clipPath>
    <clipPath
       clipPathUnits="userSpaceOnUse"
       id="clipPath30">
      <path
         d="M 0,0 H 453.74 V 197.99 H 0 Z"
         id="path30" />
    </clipPath>
    <clipPath
       clipPathUnits="userSpaceOnUse"
       id="clipPath31">
      <path
         d="M 0,0 H 453.74 V 197.99 H 0 Z"
         id="path31" />
    </clipPath>
    <clipPath
       clipPathUnits="userSpaceOnUse"
       id="clipPath32">
      <path
         d="M 0,0 H 453.74 V 197.99 H 0 Z"
         id="path32" />
    </clipPath>
    <clipPath
       clipPathUnits="userSpaceOnUse"
       id="clipPath33">
      <path
         d="M 0,0 H 453.74 V 197.99 H 0 Z"
         id="path33" />
    </clipPath>
    <clipPath
       clipPathUnits="userSpaceOnUse"
       id="clipPath34">
      <path
         d="M 0,0 H 453.74 V 197.99 H 0 Z"
         id="path34" />
    </clipPath>
    <clipPath
       clipPathUnits="userSpaceOnUse"
       id="clipPath35">
      <path
         d="M 0,0 H 453.74 V 197.99 H 0 Z"
         id="path35" />
    </clipPath>
    <clipPath
       clipPathUnits="userSpaceOnUse"
       id="clipPath36">
      <path
         d="M 0,0 H 453.74 V 197.99 H 0 Z"
         id="path36" />
    </clipPath>
    <clipPath
       clipPathUnits="userSpaceOnUse"
       id="clipPath37">
      <path
         d="M 0,0 H 453.74 V 197.99 H 0 Z"
         id="path37" />
    </clipPath>
    <clipPath
       clipPathUnits="userSpaceOnUse"
       id="clipPath38">
      <path
         d="M 0,0 H 453.74 V 197.99 H 0 Z"
         id="path38" />
    </clipPath>
    <clipPath
       clipPathUnits="userSpaceOnUse"
       id="clipPath39">
      <path
         d="M 0,0 H 453.74 V 197.99 H 0 Z"
         id="path39" />
    </clipPath>
    <clipPath
       clipPathUnits="userSpaceOnUse"
       id="clipPath40">
      <path
         d="M 0,0 H 453.74 V 197.99 H 0 Z"
         id="path40" />
    </clipPath>
    <clipPath
       clipPathUnits="userSpaceOnUse"
       id="clipPath41">
      <path
         d="M 0,0 H 453.74 V 197.99 H 0 Z"
         id="path41" />
    </clipPath>
    <clipPath
       clipPathUnits="userSpaceOnUse"
       id="clipPath42">
      <path
         d="M 0,0 H 453.74 V 197.99 H 0 Z"
         id="path42" />
    </clipPath>
    <clipPath
       clipPathUnits="userSpaceOnUse"
       id="clipPath43">
      <path
         d="M 0,0 H 453.74 V 197.99 H 0 Z"
         id="path43" />
    </clipPath>
    <clipPath
       clipPathUnits="userSpaceOnUse"
       id="clipPath44">
      <path
         d="M 0,0 H 453.74 V 197.99 H 0 Z"
         id="path44" />
    </clipPath>
    <clipPath
       clipPathUnits="userSpaceOnUse"
       id="clipPath45">
      <path
         d="M 0,0 H 453.74 V 197.99 H 0 Z"
         id="path45" />
    </clipPath>
    <clipPath
       clipPathUnits="userSpaceOnUse"
       id="clipPath46">
      <path
         d="M 0,0 H 453.74 V 197.99 H 0 Z"
         id="path46" />
    </clipPath>
    <clipPath
       clipPathUnits="userSpaceOnUse"
       id="clipPath47">
      <path
         d="M 0,0 H 453.74 V 197.99 H 0 Z"
         id="path47" />
    </clipPath>
    <clipPath
       clipPathUnits="userSpaceOnUse"
       id="clipPath48">
      <path
         d="M 0,0 H 453.74 V 197.99 H 0 Z"
         id="path48" />
    </clipPath>
    <clipPath
       clipPathUnits="userSpaceOnUse"
       id="clipPath49">
      <path
         d="M 0,0 H 453.74 V 197.99 H 0 Z"
         id="path49" />
    </clipPath>
    <clipPath
       clipPathUnits="userSpaceOnUse"
       id="clipPath50">
      <path
         d="M 0,0 H 453.74 V 197.99 H 0 Z"
         id="path50" />
    </clipPath>
    <clipPath
       clipPathUnits="userSpaceOnUse"
       id="clipPath51">
      <path
         d="M 0,0 H 453.74 V 197.99 H 0 Z"
         id="path51" />
    </clipPath>
    <clipPath
       clipPathUnits="userSpaceOnUse"
       id="clipPath52">
      <path
         d="M 0,0 H 453.74 V 197.99 H 0 Z"
         id="path52" />
    </clipPath>
    <clipPath
       clipPathUnits="userSpaceOnUse"
       id="clipPath53">
      <path
         d="M 0,0 H 453.74 V 197.99 H 0 Z"
         id="path53" />
    </clipPath>
    <clipPath
       clipPathUnits="userSpaceOnUse"
       id="clipPath54">
      <path
         d="M 0,0 H 453.74 V 197.99 H 0 Z"
         id="path54" />
    </clipPath>
    <clipPath
       clipPathUnits="userSpaceOnUse"
       id="clipPath55">
      <path
         d="M 0,0 H 453.74 V 197.99 H 0 Z"
         id="path55" />
    </clipPath>
    <clipPath
       clipPathUnits="userSpaceOnUse"
       id="clipPath56">
      <path
         d="M 0,0 H 453.74 V 197.99 H 0 Z"
         id="path56" />
    </clipPath>
    <clipPath
       clipPathUnits="userSpaceOnUse"
       id="clipPath57">
      <path
         d="M 0,0 H 453.74 V 197.99 H 0 Z"
         id="path57" />
    </clipPath>
    <clipPath
       clipPathUnits="userSpaceOnUse"
       id="clipPath58">
      <path
         d="M 0,0 H 453.74 V 197.99 H 0 Z"
         id="path58" />
    </clipPath>
    <clipPath
       clipPathUnits="userSpaceOnUse"
       id="clipPath59">
      <path
         d="M 0,0 H 453.74 V 197.99 H 0 Z"
         id="path59" />
    </clipPath>
    <clipPath
       clipPathUnits="userSpaceOnUse"
       id="clipPath60">
      <path
         d="M 0,0 H 453.74 V 197.99 H 0 Z"
         id="path60" />
    </clipPath>
    <clipPath
       clipPathUnits="userSpaceOnUse"
       id="clipPath61">
      <path
         d="M 0,0 H 453.74 V 197.99 H 0 Z"
         id="path61" />
    </clipPath>
    <clipPath
       clipPathUnits="userSpaceOnUse"
       id="clipPath62">
      <path
         d="M 0,0 H 453.74 V 197.99 H 0 Z"
         id="path62" />
    </clipPath>
    <clipPath
       clipPathUnits="userSpaceOnUse"
       id="clipPath63">
      <path
         d="M 0,0 H 453.74 V 197.99 H 0 Z"
         id="path63" />
    </clipPath>
    <clipPath
       clipPathUnits="userSpaceOnUse"
       id="clipPath64">
      <path
         d="M 0,0 H 453.74 V 197.99 H 0 Z"
         id="path64" />
    </clipPath>
    <clipPath
       clipPathUnits="userSpaceOnUse"
       id="clipPath65">
      <path
         d="M 0,0 H 453.74 V 197.99 H 0 Z"
         id="path65" />
    </clipPath>
    <clipPath
       clipPathUnits="userSpaceOnUse"
       id="clipPath66">
      <path
         d="M 0,0 H 453.74 V 197.99 H 0 Z"
         id="path66" />
    </clipPath>
    <clipPath
       clipPathUnits="userSpaceOnUse"
       id="clipPath67">
      <path
         d="M 0,0 H 453.74 V 197.99 H 0 Z"
         id="path67" />
    </clipPath>
    <clipPath
       clipPathUnits="userSpaceOnUse"
       id="clipPath68">
      <path
         d="M 0,0 H 453.74 V 197.99 H 0 Z"
         id="path68" />
    </clipPath>
    <clipPath
       clipPathUnits="userSpaceOnUse"
       id="clipPath69">
      <path
         d="M 0,0 H 453.74 V 197.99 H 0 Z"
         id="path69" />
    </clipPath>
    <clipPath
       clipPathUnits="userSpaceOnUse"
       id="clipPath70">
      <path
         d="M 0,0 H 453.74 V 197.99 H 0 Z"
         id="path70" />
    </clipPath>
    <clipPath
       clipPathUnits="userSpaceOnUse"
       id="clipPath71">
      <path
         d="M 0,0 H 453.74 V 197.99 H 0 Z"
         id="path71" />
    </clipPath>
    <clipPath
       clipPathUnits="userSpaceOnUse"
       id="clipPath72">
      <path
         d="M 0,0 H 453.74 V 197.99 H 0 Z"
         id="path72" />
    </clipPath>
    <clipPath
       clipPathUnits="userSpaceOnUse"
       id="clipPath73">
      <path
         d="M 0,0 H 453.74 V 197.99 H 0 Z"
         id="path73" />
    </clipPath>
    <clipPath
       clipPathUnits="userSpaceOnUse"
       id="clipPath74">
      <path
         d="M 0,0 H 453.74 V 197.99 H 0 Z"
         id="path74" />
    </clipPath>
    <clipPath
       clipPathUnits="userSpaceOnUse"
       id="clipPath75">
      <path
         d="M 0,0 H 453.74 V 197.99 H 0 Z"
         id="path75" />
    </clipPath>
    <clipPath
       clipPathUnits="userSpaceOnUse"
       id="clipPath76">
      <path
         d="M 0,0 H 453.74 V 197.99 H 0 Z"
         id="path76" />
    </clipPath>
    <clipPath
       clipPathUnits="userSpaceOnUse"
       id="clipPath77">
      <path
         d="M 0,0 H 453.74 V 197.99 H 0 Z"
         id="path77" />
    </clipPath>
    <clipPath
       clipPathUnits="userSpaceOnUse"
       id="clipPath78">
      <path
         d="M 0,0 H 453.74 V 197.99 H 0 Z"
         id="path78" />
    </clipPath>
    <clipPath
       clipPathUnits="userSpaceOnUse"
       id="clipPath79">
      <path
         d="M 0,0 H 453.74 V 197.99 H 0 Z"
         id="path79" />
    </clipPath>
    <clipPath
       clipPathUnits="userSpaceOnUse"
       id="clipPath80">
      <path
         d="M 0,0 H 453.74 V 197.99 H 0 Z"
         id="path80" />
    </clipPath>
    <clipPath
       clipPathUnits="userSpaceOnUse"
       id="clipPath81">
      <path
         d="M 0,0 H 453.74 V 197.99 H 0 Z"
         id="path81" />
    </clipPath>
    <clipPath
       clipPathUnits="userSpaceOnUse"
       id="clipPath82">
      <path
         d="M 0,0 H 453.74 V 197.99 H 0 Z"
         id="path82" />
    </clipPath>
    <clipPath
       clipPathUnits="userSpaceOnUse"
       id="clipPath83">
      <path
         d="M 0,0 H 453.74 V 197.99 H 0 Z"
         id="path83" />
    </clipPath>
    <clipPath
       clipPathUnits="userSpaceOnUse"
       id="clipPath84">
      <path
         d="M 0,0 H 453.74 V 197.99 H 0 Z"
         id="path84" />
    </clipPath>
    <clipPath
       clipPathUnits="userSpaceOnUse"
       id="clipPath85">
      <path
         d="M 0,0 H 453.74 V 197.99 H 0 Z"
         id="path85" />
    </clipPath>
    <clipPath
       clipPathUnits="userSpaceOnUse"
       id="clipPath86">
      <path
         d="M 0,0 H 453.74 V 197.99 H 0 Z"
         id="path86" />
    </clipPath>
    <clipPath
       clipPathUnits="userSpaceOnUse"
       id="clipPath87">
      <path
         d="M 0,0 H 453.74 V 197.99 H 0 Z"
         id="path87" />
    </clipPath>
    <clipPath
       clipPathUnits="userSpaceOnUse"
       id="clipPath88">
      <path
         d="M 0,0 H 453.74 V 197.99 H 0 Z"
         id="path88" />
    </clipPath>
    <clipPath
       clipPathUnits="userSpaceOnUse"
       id="clipPath89">
      <path
         d="M 0,0 H 453.74 V 197.99 H 0 Z"
         id="path89" />
    </clipPath>
    <clipPath
       clipPathUnits="userSpaceOnUse"
       id="clipPath90">
      <path
         d="M 0,0 H 453.74 V 197.99 H 0 Z"
         id="path90" />
    </clipPath>
    <clipPath
       clipPathUnits="userSpaceOnUse"
       id="clipPath91">
      <path
         d="M 0,0 H 453.74 V 197.99 H 0 Z"
         id="path91" />
    </clipPath>
    <clipPath
       clipPathUnits="userSpaceOnUse"
       id="clipPath92">
      <path
         d="M 0,0 H 453.74 V 197.99 H 0 Z"
         id="path92" />
    </clipPath>
    <clipPath
       clipPathUnits="userSpaceOnUse"
       id="clipPath93">
      <path
         d="M 0,0 H 453.74 V 197.99 H 0 Z"
         id="path93" />
    </clipPath>
    <clipPath
       clipPathUnits="userSpaceOnUse"
       id="clipPath94">
      <path
         d="M 0,0 H 453.74 V 197.99 H 0 Z"
         id="path94" />
    </clipPath>
    <clipPath
       clipPathUnits="userSpaceOnUse"
       id="clipPath95">
      <path
         d="M 0,0 H 453.74 V 197.99 H 0 Z"
         id="path95" />
    </clipPath>
    <clipPath
       clipPathUnits="userSpaceOnUse"
       id="clipPath96">
      <path
         d="M 0,0 H 453.74 V 197.99 H 0 Z"
         id="path96" />
    </clipPath>
    <clipPath
       clipPathUnits="userSpaceOnUse"
       id="clipPath97">
      <path
         d="M 0,0 H 453.74 V 197.99 H 0 Z"
         id="path97" />
    </clipPath>
    <clipPath
       clipPathUnits="userSpaceOnUse"
       id="clipPath98">
      <path
         d="M 0,0 H 453.74 V 197.99 H 0 Z"
         id="path98" />
    </clipPath>
    <clipPath
       clipPathUnits="userSpaceOnUse"
       id="clipPath99">
      <path
         d="M 0,0 H 453.74 V 197.99 H 0 Z"
         id="path99" />
    </clipPath>
    <clipPath
       clipPathUnits="userSpaceOnUse"
       id="clipPath100">
      <path
         d="M 0,0 H 453.74 V 197.99 H 0 Z"
         id="path100" />
    </clipPath>
    <clipPath
       clipPathUnits="userSpaceOnUse"
       id="clipPath101">
      <path
         d="M 0,0 H 453.74 V 197.99 H 0 Z"
         id="path101" />
    </clipPath>
    <clipPath
       clipPathUnits="userSpaceOnUse"
       id="clipPath102">
      <path
         d="M 0,0 H 453.74 V 197.99 H 0 Z"
         id="path102" />
    </clipPath>
    <clipPath
       clipPathUnits="userSpaceOnUse"
       id="clipPath103">
      <path
         d="M 0,0 H 453.74 V 197.99 H 0 Z"
         id="path103" />
    </clipPath>
    <clipPath
       clipPathUnits="userSpaceOnUse"
       id="clipPath104">
      <path
         d="M 0,0 H 453.74 V 197.99 H 0 Z"
         id="path104" />
    </clipPath>
    <clipPath
       clipPathUnits="userSpaceOnUse"
       id="clipPath208">
      <path
         d="M 64.29,379.95 H 463.78 V 553.8 H 64.29 Z"
         transform="matrix(1.3333333,0,0,-1.3333333,-114.6012,726.33333)"
         clip-rule="evenodd"
         id="path208" />
    </clipPath>
  </defs>
  <sodipodi:namedview
     id="namedview1"
     pagecolor="#ffffff"
     bordercolor="#000000"
     borderopacity="0.25"
     inkscape:showpageshadow="2"
     inkscape:pageopacity="0.0"
     inkscape:pagecheckerboard="0"
     inkscape:deskcolor="#d1d1d1"
     inkscape:zoom="5.2228037"
     inkscape:cx="231.2934"
     inkscape:cy="110.76426"
     inkscape:window-width="2560"
     inkscape:window-height="1377"
     inkscape:window-x="-8"
     inkscape:window-y="-8"
     inkscape:window-maximized="1"
     inkscape:current-layer="g1">
    <inkscape:page
       x="0"
       y="0"
       inkscape:label="1"
       id="page1"
       width="462.58679"
       height="221.67467"
       margin="0"
       bleed="0" />
  </sodipodi:namedview>
  <g
     id="g1"
     inkscape:groupmode="layer"
     inkscape:label="1">
    <g
       id="g2">
      <g
         id="g207"
         clip-path="url(#clipPath208)">
        <path
           d="M 59.25,30.742 H 411 v 152.25 H 59.25 Z"
           style="fill:#ffffff;fill-opacity:1;fill-rule:evenodd;stroke:none"
           transform="matrix(1.1738935,7.9763147e-8,-4.5577467e-8,-1.1707591,-28.8812,219.73333)"
           clip-path="url(#clipPath2)"
           id="path105" />
        <path
           d="m 60,42.742 v 6 h -1.5 v -6 z m 0,12 v 6 h -1.5 v -6 z m 0,12 v 6 h -1.5 v -6 z m 0,12 v 6 h -1.5 v -6 z m 0,12 v 6 h -1.5 v -6 z m 0,11.998 v 6 h -1.5 v -6 z m 0,12 v 6 h -1.5 v -6 z m 0,12 v 6 h -1.5 v -6 z m 0,12 v 6 h -1.5 v -6 z m 0,12 v 6 h -1.5 v -6 z m 0,12 v 6 h -1.5 v -6 z m 0,12 v 6 h -1.5 v -6 z M 60,30.742 v 6 h -1.5 v -6 z"
           style="fill:#262626;fill-opacity:0.14902;fill-rule:nonzero;stroke:none"
           transform="matrix(1.1738935,7.9763147e-8,-4.5577467e-8,-1.1707591,-28.8812,219.73333)"
           clip-path="url(#clipPath3)"
           id="path106" />
        <path
           d="m 177.25,42.742 v 6 h -1.5 v -6 z m 0,12 v 6 h -1.5 v -6 z m 0,12 v 6 h -1.5 v -6 z m 0,12 v 6 h -1.5 v -6 z m 0,12 v 6 h -1.5 v -6 z m 0,11.998 v 6 h -1.5 v -6 z m 0,12 v 6 h -1.5 v -6 z m 0,12 v 6 h -1.5 v -6 z m 0,12 v 6 h -1.5 v -6 z m 0,12 v 6 h -1.5 v -6 z m 0,12 v 6 h -1.5 v -6 z m 0,12 v 6 h -1.5 v -6 z m 0,-143.998 v 6 h -1.5 v -6 z"
           style="fill:#262626;fill-opacity:0.14902;fill-rule:nonzero;stroke:none"
           transform="matrix(1.1738935,7.9763147e-8,-4.5577467e-8,-1.1707591,-28.8812,219.73333)"
           clip-path="url(#clipPath4)"
           id="path107" />
        <path
           d="m 294.5,42.742 v 6 H 293 v -6 z m 0,12 v 6 H 293 v -6 z m 0,12 v 6 H 293 v -6 z m 0,12 v 6 H 293 v -6 z m 0,12 v 6 H 293 v -6 z m 0,11.998 v 6 H 293 v -6 z m 0,12 v 6 H 293 v -6 z m 0,12 v 6 H 293 v -6 z m 0,12 v 6 H 293 v -6 z m 0,12 v 6 H 293 v -6 z m 0,12 v 6 H 293 v -6 z m 0,12 v 6 H 293 v -6 z m 0,-143.998 v 6 H 293 v -6 z"
           style="fill:#262626;fill-opacity:0.14902;fill-rule:nonzero;stroke:none"
           transform="matrix(1.1738935,7.9763147e-8,-4.5577467e-8,-1.1707591,-28.8812,219.73333)"
           clip-path="url(#clipPath5)"
           id="path108" />
        <path
           d="m 411.75,42.742 v 6 h -1.5 v -6 z m 0,12 v 6 h -1.5 v -6 z m 0,12 v 6 h -1.5 v -6 z m 0,12 v 6 h -1.5 v -6 z m 0,12 v 6 h -1.5 v -6 z m 0,11.998 v 6 h -1.5 v -6 z m 0,12 v 6 h -1.5 v -6 z m 0,12 v 6 h -1.5 v -6 z m 0,12 v 6 h -1.5 v -6 z m 0,12 v 6 h -1.5 v -6 z m 0,12 v 6 h -1.5 v -6 z m 0,12 v 6 h -1.5 v -6 z m 0,-143.998 v 6 h -1.5 v -6 z"
           style="fill:#262626;fill-opacity:0.14902;fill-rule:nonzero;stroke:none"
           transform="matrix(1.1738935,7.9763147e-8,-4.5577467e-8,-1.1707591,-28.8812,219.73333)"
           clip-path="url(#clipPath6)"
           id="path109" />
        <path
           d="m 399,47.518 h -6 v -1.5 h 6 z m -12,0 h -6 v -1.5 h 6 z m -12,0 h -6 v -1.5 h 6 z m -12,0 h -6 v -1.5 h 6 z m -12,0 h -6 v -1.5 h 6 z m -12,0 h -6 v -1.5 h 6 z m -12,0 h -6 v -1.5 h 6 z m -12,0 h -6 v -1.5 h 6 z m -12,0 h -6 v -1.5 h 6 z m -12,0 h -6 v -1.5 h 6 z m -12,0 h -6 v -1.5 h 6 z m -12,0 h -6 v -1.5 h 6 z m -12,0 h -6 v -1.5 h 6 z m -12,0 h -6 v -1.5 h 6 z m -12,0 h -6 v -1.5 h 6 z m -12,0 h -6 v -1.5 h 6 z m -12,0 h -6 v -1.5 h 6 z m -12,0 h -6 v -1.5 h 6 z m -12,0 h -6 v -1.5 h 6 z m -12,0 h -6 v -1.5 h 6 z m -12,0 h -6 v -1.5 h 6 z m -12,0 h -6 v -1.5 h 6 z m -12,0 h -6 v -1.5 h 6 z m -12,0 h -6 v -1.5 h 6 z m -12,0 h -6 v -1.5 h 6 z m -12,0 h -6 v -1.5 h 6 z m -12,0 h -6 v -1.5 h 6 z m -12,0 h -6 v -1.5 h 6 z m -12,0 h -3.75 v -1.5 H 63 Z m 348,0 h -6 v -1.5 h 6 z"
           style="fill:#000000;fill-opacity:0.14902;fill-rule:nonzero;stroke:none"
           transform="matrix(1.1738935,7.9763147e-8,-4.5577467e-8,-1.1707591,-28.8812,219.73333)"
           clip-path="url(#clipPath7)"
           id="path110" />
        <path
           d="m 399,87.584 h -6 v -1.5 h 6 z m -12,0 h -6 v -1.5 h 6 z m -12,0 h -6 v -1.5 h 6 z m -12,0 h -6 v -1.5 h 6 z m -12,0 h -6 v -1.5 h 6 z m -12,0 h -6 v -1.5 h 6 z m -12,0 h -6 v -1.5 h 6 z m -12,0 h -6 v -1.5 h 6 z m -12,0 h -6 v -1.5 h 6 z m -12,0 h -6 v -1.5 h 6 z m -12,0 h -6 v -1.5 h 6 z m -12,0 h -6 v -1.5 h 6 z m -12,0 h -6 v -1.5 h 6 z m -12,0 h -6 v -1.5 h 6 z m -12,0 h -6 v -1.5 h 6 z m -12,0 h -6 v -1.5 h 6 z m -12,0 h -6 v -1.5 h 6 z m -12,0 h -6 v -1.5 h 6 z m -12,0 h -6 v -1.5 h 6 z m -12,0 h -6 v -1.5 h 6 z m -12,0 h -6 v -1.5 h 6 z m -12,0 h -6 v -1.5 h 6 z m -12,0 h -6 v -1.5 h 6 z m -12,0 h -6 v -1.5 h 6 z m -12,0 h -6 v -1.5 h 6 z m -12,0 h -6 v -1.5 h 6 z m -12,0 h -6 v -1.5 h 6 z m -12,0 h -6 v -1.5 h 6 z m -12,0 h -3.75 v -1.5 H 63 Z m 348,0 h -6 v -1.5 h 6 z"
           style="fill:#000000;fill-opacity:0.14902;fill-rule:nonzero;stroke:none"
           transform="matrix(1.1738935,7.9763147e-8,-4.5577467e-8,-1.1707591,-28.8812,219.73333)"
           clip-path="url(#clipPath8)"
           id="path111" />
        <path
           d="m 399,127.65 h -6 v -1.5 h 6 z m -12,0 h -6 v -1.5 h 6 z m -12,0 h -6 v -1.5 h 6 z m -12,0 h -6 v -1.5 h 6 z m -12,0 h -6 v -1.5 h 6 z m -12,0 h -6 v -1.5 h 6 z m -12,0 h -6 v -1.5 h 6 z m -12,0 h -6 v -1.5 h 6 z m -12,0 h -6 v -1.5 h 6 z m -12,0 h -6 v -1.5 h 6 z m -12,0 h -6 v -1.5 h 6 z m -12,0 h -6 v -1.5 h 6 z m -12,0 h -6 v -1.5 h 6 z m -12,0 h -6 v -1.5 h 6 z m -12,0 h -6 v -1.5 h 6 z m -12,0 h -6 v -1.5 h 6 z m -12,0 h -6 v -1.5 h 6 z m -12,0 h -6 v -1.5 h 6 z m -12,0 h -6 v -1.5 h 6 z m -12,0 h -6 v -1.5 h 6 z m -12,0 h -6 v -1.5 h 6 z m -12,0 h -6 v -1.5 h 6 z m -12,0 h -6 v -1.5 h 6 z m -12,0 h -6 v -1.5 h 6 z m -12,0 h -6 v -1.5 h 6 z m -12,0 h -6 v -1.5 h 6 z m -12,0 h -6 v -1.5 h 6 z m -12,0 h -6 v -1.5 h 6 z m -12,0 h -3.75 v -1.5 H 63 Z m 348,0 h -6 v -1.5 h 6 z"
           style="fill:#000000;fill-opacity:0.14902;fill-rule:nonzero;stroke:none"
           transform="matrix(1.1738935,7.9763147e-8,-4.5577467e-8,-1.1707591,-28.8812,219.73333)"
           clip-path="url(#clipPath9)"
           id="path112" />
        <path
           d="m 399,167.72 h -6 v -1.5 h 6 z m -12,0 h -6 v -1.5 h 6 z m -12,0 h -6 v -1.5 h 6 z m -12,0 h -6 v -1.5 h 6 z m -12,0 h -6 v -1.5 h 6 z m -12,0 h -6 v -1.5 h 6 z m -12,0 h -6 v -1.5 h 6 z m -12,0 h -6 v -1.5 h 6 z m -12,0 h -6 v -1.5 h 6 z m -12,0 h -6 v -1.5 h 6 z m -12,0 h -6 v -1.5 h 6 z m -12,0 h -6 v -1.5 h 6 z m -12,0 h -6 v -1.5 h 6 z m -12,0 h -6 v -1.5 h 6 z m -12,0 h -6 v -1.5 h 6 z m -12,0 h -6 v -1.5 h 6 z m -12,0 h -6 v -1.5 h 6 z m -12,0 h -6 v -1.5 h 6 z m -12,0 h -6 v -1.5 h 6 z m -12,0 h -6 v -1.5 h 6 z m -12,0 h -6 v -1.5 h 6 z m -12,0 h -6 v -1.5 h 6 z m -12,0 h -6 v -1.5 h 6 z m -12,0 h -6 v -1.5 h 6 z m -12,0 h -6 v -1.5 h 6 z m -12,0 h -6 v -1.5 h 6 z m -12,0 h -6 v -1.5 h 6 z m -12,0 h -6 v -1.5 h 6 z m -12,0 h -3.75 v -1.5 H 63 Z m 348,0 h -6 v -1.5 h 6 z"
           style="fill:#000000;fill-opacity:0.14902;fill-rule:nonzero;stroke:none"
           transform="matrix(1.1738935,7.9763147e-8,-4.5577467e-8,-1.1707591,-28.8812,219.73333)"
           clip-path="url(#clipPath10)"
           id="path113" />
        <path
           d="m 59.25,29.992 h 352.5 v 1.5 H 59.25 Z"
           style="fill:#262626;fill-opacity:1;fill-rule:nonzero;stroke:none"
           transform="matrix(1.1738935,7.9763147e-8,-4.5577467e-8,-1.1707591,-28.8812,219.73333)"
           clip-path="url(#clipPath11)"
           id="path114" />
        <path
           d="m 59.25,182.24 h 352.5 v 1.5 H 59.25 Z"
           style="fill:#262626;fill-opacity:1;fill-rule:nonzero;stroke:none"
           transform="matrix(1.1738935,7.9763147e-8,-4.5577467e-8,-1.1707591,-28.8812,219.73333)"
           clip-path="url(#clipPath12)"
           id="path115" />
        <path
           d="M 58.5,30.742 H 60 v 4.2675 h -1.5 z"
           style="fill:#262626;fill-opacity:1;fill-rule:nonzero;stroke:none"
           transform="matrix(1.1738935,7.9763147e-8,-4.5577467e-8,-1.1707591,-28.8812,219.73333)"
           clip-path="url(#clipPath13)"
           id="path116" />
        <path
           d="m 175.75,30.742 h 1.5 v 4.2675 h -1.5 z"
           style="fill:#262626;fill-opacity:1;fill-rule:nonzero;stroke:none"
           transform="matrix(1.1738935,7.9763147e-8,-4.5577467e-8,-1.1707591,-28.8812,219.73333)"
           clip-path="url(#clipPath14)"
           id="path117" />
        <path
           d="m 293,30.742 h 1.5 v 4.2675 H 293 Z"
           style="fill:#262626;fill-opacity:1;fill-rule:nonzero;stroke:none"
           transform="matrix(1.1738935,7.9763147e-8,-4.5577467e-8,-1.1707591,-28.8812,219.73333)"
           clip-path="url(#clipPath15)"
           id="path118" />
        <path
           d="m 410.25,30.742 h 1.5001 v 4.2675 H 410.25 Z"
           style="fill:#262626;fill-opacity:1;fill-rule:nonzero;stroke:none"
           transform="matrix(1.1738935,7.9763147e-8,-4.5577467e-8,-1.1707591,-28.8812,219.73333)"
           clip-path="url(#clipPath16)"
           id="path119" />
        <path
           d="M 58.5,178.72 H 60 v 4.2675 h -1.5 z"
           style="fill:#262626;fill-opacity:1;fill-rule:nonzero;stroke:none"
           transform="matrix(1.1738935,7.9763147e-8,-4.5577467e-8,-1.1707591,-28.8812,219.73333)"
           clip-path="url(#clipPath17)"
           id="path120" />
        <path
           d="m 175.75,178.72 h 1.5 v 4.2675 h -1.5 z"
           style="fill:#262626;fill-opacity:1;fill-rule:nonzero;stroke:none"
           transform="matrix(1.1738935,7.9763147e-8,-4.5577467e-8,-1.1707591,-28.8812,219.73333)"
           clip-path="url(#clipPath18)"
           id="path121" />
        <path
           d="m 293,178.72 h 1.5 v 4.2675 H 293 Z"
           style="fill:#262626;fill-opacity:1;fill-rule:nonzero;stroke:none"
           transform="matrix(1.1738935,7.9763147e-8,-4.5577467e-8,-1.1707591,-28.8812,219.73333)"
           clip-path="url(#clipPath19)"
           id="path122" />
        <path
           d="m 410.25,178.72 h 1.5 v 4.2675 h -1.5 z"
           style="fill:#262626;fill-opacity:1;fill-rule:nonzero;stroke:none"
           transform="matrix(1.1738935,7.9763147e-8,-4.5577467e-8,-1.1707591,-28.8812,219.73333)"
           clip-path="url(#clipPath20)"
           id="path123" />
        <path
           d="m 81.95,30.742 h 1.5 v 2.5088 h -1.5 z"
           style="fill:#262626;fill-opacity:1;fill-rule:nonzero;stroke:none"
           transform="matrix(1.1738935,7.9763147e-8,-4.5577467e-8,-1.1707591,-28.8812,219.73333)"
           clip-path="url(#clipPath21)"
           id="path124" />
        <path
           d="m 105.4,30.742 h 1.5 v 2.5088 h -1.5 z"
           style="fill:#262626;fill-opacity:1;fill-rule:nonzero;stroke:none"
           transform="matrix(1.1738935,7.9763147e-8,-4.5577467e-8,-1.1707591,-28.8812,219.73333)"
           clip-path="url(#clipPath22)"
           id="path125" />
        <path
           d="m 128.85,30.742 h 1.5 v 2.5088 h -1.5 z"
           style="fill:#262626;fill-opacity:1;fill-rule:nonzero;stroke:none"
           transform="matrix(1.1738935,7.9763147e-8,-4.5577467e-8,-1.1707591,-28.8812,219.73333)"
           clip-path="url(#clipPath23)"
           id="path126" />
        <path
           d="m 152.3,30.742 h 1.5 v 2.5088 h -1.5 z"
           style="fill:#262626;fill-opacity:1;fill-rule:nonzero;stroke:none"
           transform="matrix(1.1738935,7.9763147e-8,-4.5577467e-8,-1.1707591,-28.8812,219.73333)"
           clip-path="url(#clipPath24)"
           id="path127" />
        <path
           d="m 199.2,30.742 h 1.5 v 2.5088 h -1.5 z"
           style="fill:#262626;fill-opacity:1;fill-rule:nonzero;stroke:none"
           transform="matrix(1.1738935,7.9763147e-8,-4.5577467e-8,-1.1707591,-28.8812,219.73333)"
           clip-path="url(#clipPath25)"
           id="path128" />
        <path
           d="m 222.65,30.742 h 1.5 v 2.5088 h -1.5 z"
           style="fill:#262626;fill-opacity:1;fill-rule:nonzero;stroke:none"
           transform="matrix(1.1738935,7.9763147e-8,-4.5577467e-8,-1.1707591,-28.8812,219.73333)"
           clip-path="url(#clipPath26)"
           id="path129" />
        <path
           d="m 246.1,30.742 h 1.5 v 2.5088 h -1.5 z"
           style="fill:#262626;fill-opacity:1;fill-rule:nonzero;stroke:none"
           transform="matrix(1.1738935,7.9763147e-8,-4.5577467e-8,-1.1707591,-28.8812,219.73333)"
           clip-path="url(#clipPath27)"
           id="path130" />
        <path
           d="m 269.55,30.742 h 1.5 v 2.5088 h -1.5 z"
           style="fill:#262626;fill-opacity:1;fill-rule:nonzero;stroke:none"
           transform="matrix(1.1738935,7.9763147e-8,-4.5577467e-8,-1.1707591,-28.8812,219.73333)"
           clip-path="url(#clipPath28)"
           id="path131" />
        <path
           d="m 316.45,30.742 h 1.5 v 2.5088 h -1.5 z"
           style="fill:#262626;fill-opacity:1;fill-rule:nonzero;stroke:none"
           transform="matrix(1.1738935,7.9763147e-8,-4.5577467e-8,-1.1707591,-28.8812,219.73333)"
           clip-path="url(#clipPath29)"
           id="path132" />
        <path
           d="m 339.9,30.742 h 1.5 v 2.5088 h -1.5 z"
           style="fill:#262626;fill-opacity:1;fill-rule:nonzero;stroke:none"
           transform="matrix(1.1738935,7.9763147e-8,-4.5577467e-8,-1.1707591,-28.8812,219.73333)"
           clip-path="url(#clipPath30)"
           id="path133" />
        <path
           d="m 363.35,30.742 h 1.5 v 2.5088 h -1.5 z"
           style="fill:#262626;fill-opacity:1;fill-rule:nonzero;stroke:none"
           transform="matrix(1.1738935,7.9763147e-8,-4.5577467e-8,-1.1707591,-28.8812,219.73333)"
           clip-path="url(#clipPath31)"
           id="path134" />
        <path
           d="m 386.8,30.742 h 1.5 v 2.5088 h -1.5 z"
           style="fill:#262626;fill-opacity:1;fill-rule:nonzero;stroke:none"
           transform="matrix(1.1738935,7.9763147e-8,-4.5577467e-8,-1.1707591,-28.8812,219.73333)"
           clip-path="url(#clipPath32)"
           id="path135" />
        <path
           d="m 81.95,180.48 h 1.5 v 2.5087 h -1.5 z"
           style="fill:#262626;fill-opacity:1;fill-rule:nonzero;stroke:none"
           transform="matrix(1.1738935,7.9763147e-8,-4.5577467e-8,-1.1707591,-28.8812,219.73333)"
           clip-path="url(#clipPath33)"
           id="path136" />
        <path
           d="m 105.4,180.48 h 1.5 v 2.5087 h -1.5 z"
           style="fill:#262626;fill-opacity:1;fill-rule:nonzero;stroke:none"
           transform="matrix(1.1738935,7.9763147e-8,-4.5577467e-8,-1.1707591,-28.8812,219.73333)"
           clip-path="url(#clipPath34)"
           id="path137" />
        <path
           d="m 128.85,180.48 h 1.5 v 2.5087 h -1.5 z"
           style="fill:#262626;fill-opacity:1;fill-rule:nonzero;stroke:none"
           transform="matrix(1.1738935,7.9763147e-8,-4.5577467e-8,-1.1707591,-28.8812,219.73333)"
           clip-path="url(#clipPath35)"
           id="path138" />
        <path
           d="m 152.3,180.48 h 1.5 v 2.5087 h -1.5 z"
           style="fill:#262626;fill-opacity:1;fill-rule:nonzero;stroke:none"
           transform="matrix(1.1738935,7.9763147e-8,-4.5577467e-8,-1.1707591,-28.8812,219.73333)"
           clip-path="url(#clipPath36)"
           id="path139" />
        <path
           d="m 199.2,180.48 h 1.5 v 2.5087 h -1.5 z"
           style="fill:#262626;fill-opacity:1;fill-rule:nonzero;stroke:none"
           transform="matrix(1.1738935,7.9763147e-8,-4.5577467e-8,-1.1707591,-28.8812,219.73333)"
           clip-path="url(#clipPath37)"
           id="path140" />
        <path
           d="m 222.65,180.48 h 1.5 v 2.5087 h -1.5 z"
           style="fill:#262626;fill-opacity:1;fill-rule:nonzero;stroke:none"
           transform="matrix(1.1738935,7.9763147e-8,-4.5577467e-8,-1.1707591,-28.8812,219.73333)"
           clip-path="url(#clipPath38)"
           id="path141" />
        <path
           d="m 246.1,180.48 h 1.5 v 2.5087 h -1.5 z"
           style="fill:#262626;fill-opacity:1;fill-rule:nonzero;stroke:none"
           transform="matrix(1.1738935,7.9763147e-8,-4.5577467e-8,-1.1707591,-28.8812,219.73333)"
           clip-path="url(#clipPath39)"
           id="path142" />
        <path
           d="m 269.55,180.48 h 1.5 v 2.5087 h -1.5 z"
           style="fill:#262626;fill-opacity:1;fill-rule:nonzero;stroke:none"
           transform="matrix(1.1738935,7.9763147e-8,-4.5577467e-8,-1.1707591,-28.8812,219.73333)"
           clip-path="url(#clipPath40)"
           id="path143" />
        <path
           d="m 316.45,180.48 h 1.5 v 2.5087 h -1.5 z"
           style="fill:#262626;fill-opacity:1;fill-rule:nonzero;stroke:none"
           transform="matrix(1.1738935,7.9763147e-8,-4.5577467e-8,-1.1707591,-28.8812,219.73333)"
           clip-path="url(#clipPath41)"
           id="path144" />
        <path
           d="m 339.9,180.48 h 1.5 v 2.5087 h -1.5 z"
           style="fill:#262626;fill-opacity:1;fill-rule:nonzero;stroke:none"
           transform="matrix(1.1738935,7.9763147e-8,-4.5577467e-8,-1.1707591,-28.8812,219.73333)"
           clip-path="url(#clipPath42)"
           id="path145" />
        <path
           d="m 363.35,180.48 h 1.5 v 2.5087 h -1.5 z"
           style="fill:#262626;fill-opacity:1;fill-rule:nonzero;stroke:none"
           transform="matrix(1.1738935,7.9763147e-8,-4.5577467e-8,-1.1707591,-28.8812,219.73333)"
           clip-path="url(#clipPath43)"
           id="path146" />
        <path
           d="m 386.8,180.48 h 1.5 v 2.5087 h -1.5 z"
           style="fill:#262626;fill-opacity:1;fill-rule:nonzero;stroke:none"
           transform="matrix(1.1738935,7.9763147e-8,-4.5577467e-8,-1.1707591,-28.8812,219.73333)"
           clip-path="url(#clipPath44)"
           id="path147" />
        <path
           d="m 52.452,16.182 v 0.146 c 0.577,0.132 1.066,0.326 1.468,0.584 0.401,0.257 0.719,0.575 0.954,0.954 0.235,0.379 0.399,0.815 0.493,1.309 -0.216,-0.111 -0.399,-0.189 -0.55,-0.232 -0.152,-0.044 -0.311,-0.065 -0.478,-0.065 -0.535,0 -0.981,0.193 -1.337,0.578 -0.356,0.386 -0.535,0.915 -0.535,1.586 0,0.466 0.097,0.892 0.29,1.28 0.193,0.388 0.468,0.688 0.826,0.902 0.358,0.214 0.73,0.321 1.116,0.321 0.414,0 0.805,-0.118 1.174,-0.355 0.368,-0.236 0.662,-0.579 0.881,-1.027 0.219,-0.449 0.328,-0.96 0.328,-1.533 0,-0.744 -0.178,-1.457 -0.534,-2.138 -0.356,-0.682 -0.887,-1.228 -1.593,-1.64 -0.706,-0.412 -1.54,-0.636 -2.503,-0.67 z m 2.993,3.431 c 0.035,0.389 0.052,0.732 0.052,1.027 0,0.633 -0.073,1.222 -0.219,1.768 -0.083,0.302 -0.207,0.525 -0.37,0.667 -0.087,0.077 -0.2,0.115 -0.339,0.115 -0.174,0 -0.309,-0.075 -0.407,-0.224 -0.135,-0.205 -0.203,-0.596 -0.203,-1.173 0,-0.963 0.115,-1.627 0.344,-1.992 0.149,-0.237 0.351,-0.355 0.605,-0.355 0.135,0 0.315,0.056 0.537,0.167 z m 3.515,-1.679 c 0.243,0 0.449,-0.085 0.618,-0.256 0.168,-0.17 0.253,-0.375 0.253,-0.615 0,-0.24 -0.086,-0.444 -0.256,-0.613 -0.17,-0.168 -0.375,-0.253 -0.615,-0.253 -0.24,0 -0.444,0.085 -0.613,0.253 -0.169,0.169 -0.253,0.373 -0.253,0.613 0,0.24 0.084,0.445 0.253,0.615 0.169,0.171 0.373,0.256 0.613,0.256 z M 62,23.399 h 3.311 L 64.784,22.053 H 62 l -0.266,-0.704 c 1.199,-0.045 2.122,-0.344 2.769,-0.897 0.532,-0.455 0.798,-1.022 0.798,-1.7 0,-0.434 -0.124,-0.859 -0.371,-1.274 -0.246,-0.416 -0.594,-0.736 -1.042,-0.96 -0.449,-0.224 -0.941,-0.336 -1.476,-0.336 -0.577,0 -1.021,0.107 -1.33,0.323 -0.216,0.153 -0.323,0.327 -0.323,0.521 0,0.15 0.056,0.282 0.169,0.397 0.113,0.114 0.244,0.172 0.394,0.172 0.135,0 0.273,-0.028 0.412,-0.084 0.139,-0.055 0.377,-0.201 0.714,-0.438 0.212,-0.146 0.395,-0.246 0.548,-0.302 0.108,-0.042 0.229,-0.063 0.365,-0.063 0.285,0 0.527,0.105 0.727,0.313 0.2,0.209 0.3,0.459 0.3,0.751 0,0.612 -0.306,1.109 -0.918,1.492 -0.612,0.382 -1.383,0.573 -2.315,0.573 -0.094,0 -0.235,-0.002 -0.422,-0.005 z"
           style="fill:#262626;fill-opacity:1;fill-rule:evenodd;stroke:none"
           transform="matrix(1.1738935,7.9763147e-8,-4.5577467e-8,-1.1707591,-28.8812,219.73333)"
           clip-path="url(#clipPath45)"
           id="path148" />
        <path
           d="m 174.35,23.545 v -5.783 c 0,-0.435 0.02,-0.712 0.06,-0.832 0.04,-0.12 0.12,-0.218 0.24,-0.295 0.12,-0.076 0.32,-0.114 0.58,-0.114 h 0.16 v -0.193 h -3.72 v 0.193 h 0.19 c 0.3,0 0.52,0.034 0.65,0.104 0.12,0.069 0.21,0.165 0.26,0.287 0.04,0.121 0.06,0.405 0.06,0.85 v 3.666 c 0,0.326 -0.01,0.531 -0.04,0.612 -0.03,0.082 -0.09,0.152 -0.18,0.209 -0.08,0.057 -0.18,0.086 -0.29,0.086 -0.18,0 -0.4,-0.056 -0.65,-0.167 l -0.09,0.188 2.6,1.189 z m 6.97,-3.682 c 0,-0.705 -0.1,-1.364 -0.29,-1.976 -0.12,-0.376 -0.28,-0.683 -0.48,-0.923 -0.2,-0.24 -0.43,-0.43 -0.68,-0.571 -0.26,-0.141 -0.53,-0.211 -0.83,-0.211 -0.34,0 -0.65,0.087 -0.92,0.26 -0.28,0.174 -0.52,0.423 -0.73,0.746 -0.16,0.236 -0.29,0.551 -0.41,0.944 -0.14,0.532 -0.22,1.081 -0.22,1.648 0,0.768 0.11,1.474 0.32,2.117 0.18,0.532 0.45,0.939 0.81,1.223 0.36,0.283 0.75,0.425 1.15,0.425 0.41,0 0.79,-0.14 1.15,-0.42 0.36,-0.28 0.62,-0.656 0.78,-1.129 0.24,-0.65 0.35,-1.361 0.35,-2.133 z m -1.6,0.011 c 0,1.237 -0.01,1.959 -0.02,2.164 -0.04,0.483 -0.12,0.81 -0.25,0.98 -0.09,0.111 -0.23,0.167 -0.43,0.167 -0.15,0 -0.26,-0.042 -0.35,-0.125 -0.13,-0.122 -0.22,-0.337 -0.26,-0.644 -0.05,-0.308 -0.07,-1.381 -0.07,-3.22 0,-1.001 0.04,-1.672 0.1,-2.013 0.06,-0.247 0.13,-0.412 0.23,-0.496 0.1,-0.083 0.23,-0.125 0.39,-0.125 0.17,0 0.3,0.056 0.39,0.167 0.14,0.195 0.23,0.496 0.25,0.902 z"
           style="fill:#262626;fill-opacity:1;fill-rule:evenodd;stroke:none"
           transform="matrix(1.1738935,7.9763147e-8,-4.5577467e-8,-1.1707591,-28.8812,219.73333)"
           clip-path="url(#clipPath46)"
           id="path149" />
        <path
           d="m 287.48,23.545 v -5.783 c 0,-0.435 0.02,-0.712 0.05,-0.832 0.04,-0.12 0.12,-0.218 0.24,-0.295 0.13,-0.076 0.32,-0.114 0.59,-0.114 h 0.16 v -0.193 h -3.72 v 0.193 h 0.18 c 0.31,0 0.52,0.034 0.65,0.104 0.13,0.069 0.22,0.165 0.26,0.287 0.05,0.121 0.07,0.405 0.07,0.85 v 3.666 c 0,0.326 -0.02,0.531 -0.05,0.612 -0.03,0.082 -0.09,0.152 -0.17,0.209 -0.09,0.057 -0.19,0.086 -0.3,0.086 -0.17,0 -0.39,-0.056 -0.64,-0.167 l -0.1,0.188 2.6,1.189 z m 6.97,-3.682 c 0,-0.705 -0.1,-1.364 -0.3,-1.976 -0.12,-0.376 -0.28,-0.683 -0.48,-0.923 -0.2,-0.24 -0.42,-0.43 -0.68,-0.571 -0.25,-0.141 -0.53,-0.211 -0.83,-0.211 -0.34,0 -0.64,0.087 -0.92,0.26 -0.27,0.174 -0.52,0.423 -0.73,0.746 -0.15,0.236 -0.29,0.551 -0.4,0.944 -0.15,0.532 -0.22,1.081 -0.22,1.648 0,0.768 0.1,1.474 0.32,2.117 0.18,0.532 0.45,0.939 0.81,1.223 0.36,0.283 0.74,0.425 1.14,0.425 0.41,0 0.8,-0.14 1.15,-0.42 0.36,-0.28 0.62,-0.656 0.79,-1.129 0.23,-0.65 0.35,-1.361 0.35,-2.133 z m -1.61,0.011 c 0,1.237 0,1.959 -0.02,2.164 -0.03,0.483 -0.12,0.81 -0.25,0.98 -0.09,0.111 -0.23,0.167 -0.42,0.167 -0.15,0 -0.27,-0.042 -0.36,-0.125 -0.12,-0.122 -0.21,-0.337 -0.26,-0.644 -0.04,-0.308 -0.06,-1.381 -0.06,-3.22 0,-1.001 0.03,-1.672 0.1,-2.013 0.05,-0.247 0.13,-0.412 0.22,-0.496 0.1,-0.083 0.23,-0.125 0.39,-0.125 0.17,0 0.3,0.056 0.39,0.167 0.15,0.195 0.23,0.496 0.25,0.902 z m 3.5,-1.94 c 0.24,0 0.45,-0.085 0.61,-0.256 0.17,-0.17 0.26,-0.375 0.26,-0.615 0,-0.24 -0.09,-0.444 -0.26,-0.613 -0.17,-0.168 -0.37,-0.253 -0.61,-0.253 -0.24,0 -0.45,0.085 -0.62,0.253 -0.17,0.169 -0.25,0.373 -0.25,0.613 0,0.24 0.08,0.445 0.25,0.615 0.17,0.171 0.38,0.256 0.62,0.256 z m 3.04,5.465 h 3.31 l -0.53,-1.346 h -2.78 l -0.27,-0.704 c 1.2,-0.045 2.12,-0.344 2.77,-0.897 0.53,-0.455 0.8,-1.022 0.8,-1.7 0,-0.434 -0.13,-0.859 -0.37,-1.274 -0.25,-0.416 -0.6,-0.736 -1.05,-0.96 -0.44,-0.224 -0.94,-0.336 -1.47,-0.336 -0.58,0 -1.02,0.107 -1.33,0.323 -0.22,0.153 -0.32,0.327 -0.32,0.521 0,0.15 0.05,0.282 0.16,0.397 0.12,0.114 0.25,0.172 0.4,0.172 0.13,0 0.27,-0.028 0.41,-0.084 0.14,-0.055 0.38,-0.201 0.71,-0.438 0.22,-0.146 0.4,-0.246 0.55,-0.302 0.11,-0.042 0.23,-0.063 0.37,-0.063 0.28,0 0.52,0.105 0.72,0.313 0.2,0.209 0.3,0.459 0.3,0.751 0,0.612 -0.3,1.109 -0.91,1.492 -0.62,0.382 -1.39,0.573 -2.32,0.573 -0.09,0 -0.23,-0.002 -0.42,-0.005 z"
           style="fill:#262626;fill-opacity:1;fill-rule:evenodd;stroke:none"
           transform="matrix(1.1738935,7.9763147e-8,-4.5577467e-8,-1.1707591,-28.8812,219.73333)"
           clip-path="url(#clipPath47)"
           id="path150" />
        <path
           d="m 408.85,23.545 v -5.783 c 0,-0.435 0.02,-0.712 0.06,-0.832 0.04,-0.12 0.12,-0.218 0.24,-0.295 0.12,-0.076 0.32,-0.114 0.58,-0.114 h 0.16 v -0.193 h -3.72 v 0.193 h 0.19 c 0.3,0 0.52,0.034 0.65,0.104 0.12,0.069 0.21,0.165 0.26,0.287 0.04,0.121 0.06,0.405 0.06,0.85 v 3.666 c 0,0.326 -0.01,0.531 -0.04,0.612 -0.03,0.082 -0.09,0.152 -0.18,0.209 -0.08,0.057 -0.18,0.086 -0.29,0.086 -0.18,0 -0.4,-0.056 -0.65,-0.167 l -0.09,0.188 2.6,1.189 z m 4.89,0 v -5.783 c 0,-0.435 0.02,-0.712 0.06,-0.832 0.04,-0.12 0.12,-0.218 0.24,-0.295 0.12,-0.076 0.32,-0.114 0.58,-0.114 h 0.17 v -0.193 h -3.73 v 0.193 h 0.19 c 0.3,0 0.52,0.034 0.65,0.104 0.13,0.069 0.21,0.165 0.26,0.287 0.04,0.121 0.07,0.405 0.07,0.85 v 3.666 c 0,0.326 -0.02,0.531 -0.05,0.612 -0.03,0.082 -0.09,0.152 -0.18,0.209 -0.08,0.057 -0.18,0.086 -0.29,0.086 -0.18,0 -0.39,-0.056 -0.65,-0.167 l -0.09,0.188 2.6,1.189 z"
           style="fill:#262626;fill-opacity:1;fill-rule:evenodd;stroke:none"
           transform="matrix(1.1738935,7.9763147e-8,-4.5577467e-8,-1.1707591,-28.8812,219.73333)"
           clip-path="url(#clipPath48)"
           id="path151" />
        <path
           d="M 222.36,9.6487 V 7.735 h -0.19 c -0.11,0.4415 -0.23,0.7587 -0.37,0.9516 -0.13,0.193 -0.32,0.3468 -0.56,0.4615 -0.13,0.0626 -0.36,0.0939 -0.69,0.0939 h -0.53 V 3.7875 c 0,-0.3616 0.02,-0.5875 0.06,-0.6779 0.04,-0.0904 0.12,-0.1695 0.24,-0.2373 0.12,-0.0678 0.27,-0.1017 0.48,-0.1017 h 0.23 V 2.5777 h -3.7 v 0.1929 h 0.23 c 0.21,0 0.37,0.0365 0.5,0.1095 0.09,0.0487 0.16,0.1321 0.21,0.2503 0.04,0.0835 0.06,0.3025 0.06,0.6571 V 9.242 h -0.51 c -0.48,0 -0.82,-0.1008 -1.04,-0.3024 -0.3,-0.2816 -0.49,-0.6832 -0.57,-1.2046 h -0.2 v 1.9137 z m 1.94,0.1669 c 0.22,0 0.41,-0.0791 0.57,-0.2372 0.16,-0.1582 0.23,-0.3486 0.23,-0.5711 0,-0.2224 -0.08,-0.4119 -0.23,-0.5684 -0.16,-0.1564 -0.35,-0.2346 -0.57,-0.2346 -0.23,0 -0.42,0.0782 -0.57,0.2346 -0.16,0.1565 -0.24,0.346 -0.24,0.5684 0,0.2225 0.08,0.4129 0.24,0.5711 0.15,0.1581 0.34,0.2372 0.57,0.2372 z m 0.73,-2.3622 V 3.5893 c 0,-0.3442 0.04,-0.564 0.12,-0.6596 0.08,-0.0956 0.23,-0.1504 0.46,-0.1643 V 2.5777 h -2.63 v 0.1877 c 0.22,0.007 0.38,0.0695 0.48,0.1877 0.07,0.08 0.11,0.292 0.11,0.6362 v 2.8472 c 0,0.3442 -0.04,0.5641 -0.12,0.6597 -0.08,0.0956 -0.24,0.1503 -0.47,0.1642 v 0.193 z m 3.17,0 V 6.812 c 0.27,0.292 0.52,0.4962 0.74,0.6127 0.23,0.1165 0.48,0.1747 0.75,0.1747 0.32,0 0.58,-0.073 0.79,-0.219 0.21,-0.146 0.38,-0.3685 0.49,-0.6675 0.28,0.3129 0.55,0.5388 0.8,0.6779 0.26,0.1391 0.52,0.2086 0.8,0.2086 0.34,0 0.61,-0.0774 0.81,-0.2321 0.2,-0.1547 0.34,-0.3511 0.41,-0.5892 0.08,-0.2382 0.12,-0.618 0.12,-1.1394 V 3.6415 c 0,-0.3755 0.04,-0.6084 0.1,-0.6988 0.07,-0.0904 0.21,-0.1495 0.43,-0.1773 V 2.5777 h -2.52 v 0.1877 c 0.2,0.0174 0.34,0.0939 0.44,0.2295 0.06,0.0938 0.09,0.3093 0.09,0.6466 v 2.0963 c 0,0.4345 -0.02,0.7109 -0.05,0.8291 -0.04,0.1182 -0.09,0.206 -0.17,0.2633 -0.07,0.0574 -0.16,0.0861 -0.26,0.0861 -0.15,0 -0.3,-0.0548 -0.45,-0.1643 -0.16,-0.1095 -0.31,-0.2738 -0.47,-0.4928 V 3.6415 c 0,-0.3512 0.03,-0.5719 0.09,-0.6623 0.08,-0.1286 0.24,-0.1999 0.46,-0.2138 V 2.5777 h -2.52 v 0.1877 c 0.13,0.007 0.24,0.0409 0.32,0.1017 0.08,0.0608 0.13,0.1338 0.15,0.219 0.03,0.0852 0.04,0.2703 0.04,0.5554 v 2.0963 c 0,0.4415 -0.01,0.7178 -0.05,0.8291 -0.03,0.1112 -0.09,0.1981 -0.17,0.2607 -0.08,0.0626 -0.17,0.0939 -0.27,0.0939 -0.14,0 -0.26,-0.0365 -0.38,-0.1095 C 228.56,6.7042 228.39,6.52 228.2,6.2592 V 3.6415 c 0,-0.3442 0.04,-0.571 0.1,-0.6805 0.07,-0.1096 0.21,-0.1747 0.43,-0.1956 V 2.5777 h -2.52 v 0.1877 c 0.21,0.0209 0.36,0.0869 0.44,0.1982 0.06,0.0764 0.09,0.3024 0.09,0.6779 v 2.7533 c 0,0.3685 -0.03,0.598 -0.1,0.6883 -0.07,0.0904 -0.21,0.1495 -0.43,0.1773 v 0.193 z m 11.27,-2.2632 h -2.68 c 0.04,-0.6466 0.21,-1.1576 0.52,-1.5331 0.24,-0.2885 0.53,-0.4328 0.87,-0.4328 0.21,0 0.39,0.0582 0.57,0.1747 0.17,0.1164 0.35,0.3259 0.54,0.6284 l 0.18,-0.1148 c -0.26,-0.5388 -0.56,-0.9204 -0.88,-1.1446 -0.32,-0.2242 -0.69,-0.3363 -1.11,-0.3363 -0.72,0 -1.27,0.2781 -1.64,0.8343 -0.3,0.4485 -0.45,1.0047 -0.45,1.6687 0,0.8135 0.22,1.461 0.66,1.9425 0.44,0.4814 0.96,0.7222 1.55,0.7222 0.49,0 0.92,-0.2025 1.28,-0.6075 0.37,-0.405 0.56,-1.0056 0.59,-1.8017 z m -1.28,0.3494 c 0,0.5597 -0.03,0.9439 -0.09,1.1524 -0.06,0.2086 -0.16,0.3668 -0.29,0.4746 -0.07,0.0626 -0.17,0.0938 -0.29,0.0938 -0.18,0 -0.33,-0.0886 -0.44,-0.2659 -0.21,-0.3094 -0.31,-0.7335 -0.31,-1.2724 V 5.5396 Z m 7.85,4.2708 V 9.5705 c -0.36,-0.2364 -0.63,-0.4675 -0.8,-0.6935 -0.23,-0.3129 -0.42,-0.7144 -0.55,-1.2046 -0.17,-0.6084 -0.25,-1.4584 -0.25,-2.55 0,-1.029 0.08,-1.8286 0.23,-2.3987 0.15,-0.5702 0.35,-1.0308 0.61,-1.3819 0.19,-0.2434 0.44,-0.45714 0.76,-0.64139 V 0.43967 c -0.84,0.2816 -1.55,0.85603 -2.13,1.72343 -0.58,0.8674 -0.87,1.8643 -0.87,2.9906 0,1.1125 0.29,2.0972 0.87,2.9541 0.58,0.857 1.29,1.4245 2.13,1.7026 z m 3.67,-2.2214 0.08,-1.6635 h -0.18 c -0.21,0.4936 -0.43,0.8308 -0.66,1.0116 -0.22,0.1808 -0.45,0.2712 -0.68,0.2712 -0.14,0 -0.26,-0.0478 -0.36,-0.1434 -0.1,-0.0956 -0.15,-0.206 -0.15,-0.3311 0,-0.0939 0.03,-0.1843 0.1,-0.2712 0.11,-0.1425 0.42,-0.3868 0.93,-0.7327 0.51,-0.3459 0.85,-0.6396 1.01,-0.8812 0.16,-0.2417 0.25,-0.5119 0.25,-0.8109 0,-0.2712 -0.07,-0.5371 -0.21,-0.7979 -0.13,-0.2607 -0.32,-0.4606 -0.57,-0.5996 -0.25,-0.1391 -0.52,-0.2086 -0.82,-0.2086 -0.23,0 -0.54,0.073 -0.93,0.219 -0.11,0.0382 -0.18,0.0573 -0.22,0.0573 -0.11,0 -0.21,-0.0869 -0.28,-0.2607 h -0.18 l -0.08,1.7521 h 0.18 c 0.15,-0.4589 0.37,-0.803 0.64,-1.0325 0.27,-0.2294 0.53,-0.3441 0.78,-0.3441 0.16,0 0.3,0.0512 0.41,0.1538 0.1,0.1025 0.15,0.2268 0.15,0.3728 0,0.1669 -0.05,0.3112 -0.15,0.4329 -0.11,0.1216 -0.34,0.3059 -0.7,0.5527 -0.53,0.3685 -0.88,0.6501 -1.03,0.8448 -0.23,0.2851 -0.35,0.5997 -0.35,0.9438 0,0.3755 0.13,0.7153 0.39,1.0195 0.26,0.3042 0.63,0.4563 1.12,0.4563 0.27,0 0.52,-0.0643 0.77,-0.193 0.1,-0.0521 0.17,-0.0782 0.23,-0.0782 0.06,0 0.11,0.0131 0.15,0.0391 0.04,0.0261 0.1,0.1 0.18,0.2217 z m 0.97,-7.14933 v 0.23988 c 0.36,0.23987 0.63,0.47275 0.8,0.69875 0.23,0.3129 0.42,0.7127 0.55,1.1994 0.17,0.6118 0.25,1.4636 0.25,2.5552 0,1.029 -0.07,1.8277 -0.22,2.3961 -0.16,0.5684 -0.36,1.0281 -0.62,1.3793 -0.18,0.2433 -0.44,0.4571 -0.76,0.6414 v 0.2607 c 0.84,-0.2816 1.55,-0.8561 2.13,-1.7234 0.58,-0.8674 0.88,-1.8643 0.88,-2.9906 0,-1.109 -0.3,-2.092 -0.88,-2.9489 -0.58,-0.857 -1.29,-1.42623 -2.13,-1.70783 z"
           style="fill:#000000;fill-opacity:1;fill-rule:evenodd;stroke:none"
           transform="matrix(1.1738935,7.9763147e-8,-4.5577467e-8,-1.1707591,-28.8812,219.73333)"
           clip-path="url(#clipPath49)"
           id="path152" />
        <path
           d="M 58.5,30.742 H 60 v 153 h -1.5 z"
           style="fill:#000000;fill-opacity:1;fill-rule:nonzero;stroke:none"
           transform="matrix(1.1738935,7.9763147e-8,-4.5577467e-8,-1.1707591,-28.8812,219.73333)"
           clip-path="url(#clipPath50)"
           id="path153" />
        <path
           d="m 410.25,30.742 h 1.5 v 153 h -1.5 z"
           style="fill:#000000;fill-opacity:1;fill-rule:nonzero;stroke:none"
           transform="matrix(1.1738935,7.9763147e-8,-4.5577467e-8,-1.1707591,-28.8812,219.73333)"
           clip-path="url(#clipPath51)"
           id="path154" />
        <path
           d="m 59.25,46.019 h 4.2676 v 1.5 H 59.25 Z"
           style="fill:#000000;fill-opacity:1;fill-rule:nonzero;stroke:none"
           transform="matrix(1.1738935,7.9763147e-8,-4.5577467e-8,-1.1707591,-28.8812,219.73333)"
           clip-path="url(#clipPath52)"
           id="path155" />
        <path
           d="m 59.25,86.084 h 4.2676 v 1.5 H 59.25 Z"
           style="fill:#000000;fill-opacity:1;fill-rule:nonzero;stroke:none"
           transform="matrix(1.1738935,7.9763147e-8,-4.5577467e-8,-1.1707591,-28.8812,219.73333)"
           clip-path="url(#clipPath53)"
           id="path156" />
        <path
           d="m 59.25,126.15 h 4.2676 v 1.5 H 59.25 Z"
           style="fill:#000000;fill-opacity:1;fill-rule:nonzero;stroke:none"
           transform="matrix(1.1738935,7.9763147e-8,-4.5577467e-8,-1.1707591,-28.8812,219.73333)"
           clip-path="url(#clipPath54)"
           id="path157" />
        <path
           d="m 59.25,166.22 h 4.2676 v 1.5 H 59.25 Z"
           style="fill:#000000;fill-opacity:1;fill-rule:nonzero;stroke:none"
           transform="matrix(1.1738935,7.9763147e-8,-4.5577467e-8,-1.1707591,-28.8812,219.73333)"
           clip-path="url(#clipPath55)"
           id="path158" />
        <path
           d="m 406.73,46.019 h 4.2677 v 1.5 H 406.73 Z"
           style="fill:#000000;fill-opacity:1;fill-rule:nonzero;stroke:none"
           transform="matrix(1.1738935,7.9763147e-8,-4.5577467e-8,-1.1707591,-28.8812,219.73333)"
           clip-path="url(#clipPath56)"
           id="path159" />
        <path
           d="m 406.73,86.084 h 4.2677 v 1.5 H 406.73 Z"
           style="fill:#000000;fill-opacity:1;fill-rule:nonzero;stroke:none"
           transform="matrix(1.1738935,7.9763147e-8,-4.5577467e-8,-1.1707591,-28.8812,219.73333)"
           clip-path="url(#clipPath57)"
           id="path160" />
        <path
           d="m 406.73,126.15 h 4.2677 v 1.5 H 406.73 Z"
           style="fill:#000000;fill-opacity:1;fill-rule:nonzero;stroke:none"
           transform="matrix(1.1738935,7.9763147e-8,-4.5577467e-8,-1.1707591,-28.8812,219.73333)"
           clip-path="url(#clipPath58)"
           id="path161" />
        <path
           d="m 406.73,166.22 h 4.2677 v 1.5 H 406.73 Z"
           style="fill:#000000;fill-opacity:1;fill-rule:nonzero;stroke:none"
           transform="matrix(1.1738935,7.9763147e-8,-4.5577467e-8,-1.1707591,-28.8812,219.73333)"
           clip-path="url(#clipPath59)"
           id="path162" />
        <path
           d="m 59.25,29.992 h 2.5087 v 1.5 H 59.25 Z"
           style="fill:#000000;fill-opacity:1;fill-rule:nonzero;stroke:none"
           transform="matrix(1.1738935,7.9763147e-8,-4.5577467e-8,-1.1707591,-28.8812,219.73333)"
           clip-path="url(#clipPath60)"
           id="path163" />
        <path
           d="m 59.25,38.005 h 2.5087 v 1.5 H 59.25 Z"
           style="fill:#000000;fill-opacity:1;fill-rule:nonzero;stroke:none"
           transform="matrix(1.1738935,7.9763147e-8,-4.5577467e-8,-1.1707591,-28.8812,219.73333)"
           clip-path="url(#clipPath61)"
           id="path164" />
        <path
           d="m 59.25,54.032 h 2.5087 v 1.5 H 59.25 Z"
           style="fill:#000000;fill-opacity:1;fill-rule:nonzero;stroke:none"
           transform="matrix(1.1738935,7.9763147e-8,-4.5577467e-8,-1.1707591,-28.8812,219.73333)"
           clip-path="url(#clipPath62)"
           id="path165" />
        <path
           d="m 59.25,62.045 h 2.5087 v 1.5 H 59.25 Z"
           style="fill:#000000;fill-opacity:1;fill-rule:nonzero;stroke:none"
           transform="matrix(1.1738935,7.9763147e-8,-4.5577467e-8,-1.1707591,-28.8812,219.73333)"
           clip-path="url(#clipPath63)"
           id="path166" />
        <path
           d="m 59.25,70.058 h 2.5087 v 1.5 H 59.25 Z"
           style="fill:#000000;fill-opacity:1;fill-rule:nonzero;stroke:none"
           transform="matrix(1.1738935,7.9763147e-8,-4.5577467e-8,-1.1707591,-28.8812,219.73333)"
           clip-path="url(#clipPath64)"
           id="path167" />
        <path
           d="m 59.25,78.071 h 2.5087 v 1.5 H 59.25 Z"
           style="fill:#000000;fill-opacity:1;fill-rule:nonzero;stroke:none"
           transform="matrix(1.1738935,7.9763147e-8,-4.5577467e-8,-1.1707591,-28.8812,219.73333)"
           clip-path="url(#clipPath65)"
           id="path168" />
        <path
           d="m 59.25,94.097 h 2.5087 v 1.5 H 59.25 Z"
           style="fill:#000000;fill-opacity:1;fill-rule:nonzero;stroke:none"
           transform="matrix(1.1738935,7.9763147e-8,-4.5577467e-8,-1.1707591,-28.8812,219.73333)"
           clip-path="url(#clipPath66)"
           id="path169" />
        <path
           d="m 59.25,102.11 h 2.5087 v 1.5 H 59.25 Z"
           style="fill:#000000;fill-opacity:1;fill-rule:nonzero;stroke:none"
           transform="matrix(1.1738935,7.9763147e-8,-4.5577467e-8,-1.1707591,-28.8812,219.73333)"
           clip-path="url(#clipPath67)"
           id="path170" />
        <path
           d="m 59.25,110.12 h 2.5087 v 1.5 H 59.25 Z"
           style="fill:#000000;fill-opacity:1;fill-rule:nonzero;stroke:none"
           transform="matrix(1.1738935,7.9763147e-8,-4.5577467e-8,-1.1707591,-28.8812,219.73333)"
           clip-path="url(#clipPath68)"
           id="path171" />
        <path
           d="m 59.25,118.14 h 2.5087 v 1.5 H 59.25 Z"
           style="fill:#000000;fill-opacity:1;fill-rule:nonzero;stroke:none"
           transform="matrix(1.1738935,7.9763147e-8,-4.5577467e-8,-1.1707591,-28.8812,219.73333)"
           clip-path="url(#clipPath69)"
           id="path172" />
        <path
           d="m 59.25,134.16 h 2.5087 v 1.5 H 59.25 Z"
           style="fill:#000000;fill-opacity:1;fill-rule:nonzero;stroke:none"
           transform="matrix(1.1738935,7.9763147e-8,-4.5577467e-8,-1.1707591,-28.8812,219.73333)"
           clip-path="url(#clipPath70)"
           id="path173" />
        <path
           d="m 59.25,142.18 h 2.5087 v 1.5 H 59.25 Z"
           style="fill:#000000;fill-opacity:1;fill-rule:nonzero;stroke:none"
           transform="matrix(1.1738935,7.9763147e-8,-4.5577467e-8,-1.1707591,-28.8812,219.73333)"
           clip-path="url(#clipPath71)"
           id="path174" />
        <path
           d="m 59.25,150.19 h 2.5087 v 1.5 H 59.25 Z"
           style="fill:#000000;fill-opacity:1;fill-rule:nonzero;stroke:none"
           transform="matrix(1.1738935,7.9763147e-8,-4.5577467e-8,-1.1707591,-28.8812,219.73333)"
           clip-path="url(#clipPath72)"
           id="path175" />
        <path
           d="m 59.25,158.2 h 2.5087 v 1.5 H 59.25 Z"
           style="fill:#000000;fill-opacity:1;fill-rule:nonzero;stroke:none"
           transform="matrix(1.1738935,7.9763147e-8,-4.5577467e-8,-1.1707591,-28.8812,219.73333)"
           clip-path="url(#clipPath73)"
           id="path176" />
        <path
           d="m 59.25,174.23 h 2.5087 v 1.5 H 59.25 Z"
           style="fill:#000000;fill-opacity:1;fill-rule:nonzero;stroke:none"
           transform="matrix(1.1738935,7.9763147e-8,-4.5577467e-8,-1.1707591,-28.8812,219.73333)"
           clip-path="url(#clipPath74)"
           id="path177" />
        <path
           d="m 59.25,182.24 h 2.5087 v 1.5 H 59.25 Z"
           style="fill:#000000;fill-opacity:1;fill-rule:nonzero;stroke:none"
           transform="matrix(1.1738935,7.9763147e-8,-4.5577467e-8,-1.1707591,-28.8812,219.73333)"
           clip-path="url(#clipPath75)"
           id="path178" />
        <path
           d="m 408.49,29.992 h 2.5087 v 1.5 H 408.49 Z"
           style="fill:#000000;fill-opacity:1;fill-rule:nonzero;stroke:none"
           transform="matrix(1.1738935,7.9763147e-8,-4.5577467e-8,-1.1707591,-28.8812,219.73333)"
           clip-path="url(#clipPath76)"
           id="path179" />
        <path
           d="m 408.49,38.005 h 2.5087 v 1.5 H 408.49 Z"
           style="fill:#000000;fill-opacity:1;fill-rule:nonzero;stroke:none"
           transform="matrix(1.1738935,7.9763147e-8,-4.5577467e-8,-1.1707591,-28.8812,219.73333)"
           clip-path="url(#clipPath77)"
           id="path180" />
        <path
           d="m 408.49,54.032 h 2.5087 v 1.5 H 408.49 Z"
           style="fill:#000000;fill-opacity:1;fill-rule:nonzero;stroke:none"
           transform="matrix(1.1738935,7.9763147e-8,-4.5577467e-8,-1.1707591,-28.8812,219.73333)"
           clip-path="url(#clipPath78)"
           id="path181" />
        <path
           d="m 408.49,62.045 h 2.5087 v 1.5 H 408.49 Z"
           style="fill:#000000;fill-opacity:1;fill-rule:nonzero;stroke:none"
           transform="matrix(1.1738935,7.9763147e-8,-4.5577467e-8,-1.1707591,-28.8812,219.73333)"
           clip-path="url(#clipPath79)"
           id="path182" />
        <path
           d="m 408.49,70.058 h 2.5087 v 1.5 H 408.49 Z"
           style="fill:#000000;fill-opacity:1;fill-rule:nonzero;stroke:none"
           transform="matrix(1.1738935,7.9763147e-8,-4.5577467e-8,-1.1707591,-28.8812,219.73333)"
           clip-path="url(#clipPath80)"
           id="path183" />
        <path
           d="m 408.49,78.071 h 2.5087 v 1.5 H 408.49 Z"
           style="fill:#000000;fill-opacity:1;fill-rule:nonzero;stroke:none"
           transform="matrix(1.1738935,7.9763147e-8,-4.5577467e-8,-1.1707591,-28.8812,219.73333)"
           clip-path="url(#clipPath81)"
           id="path184" />
        <path
           d="m 408.49,94.097 h 2.5087 v 1.5 H 408.49 Z"
           style="fill:#000000;fill-opacity:1;fill-rule:nonzero;stroke:none"
           transform="matrix(1.1738935,7.9763147e-8,-4.5577467e-8,-1.1707591,-28.8812,219.73333)"
           clip-path="url(#clipPath82)"
           id="path185" />
        <path
           d="m 408.49,102.11 h 2.5087 v 1.5 H 408.49 Z"
           style="fill:#000000;fill-opacity:1;fill-rule:nonzero;stroke:none"
           transform="matrix(1.1738935,7.9763147e-8,-4.5577467e-8,-1.1707591,-28.8812,219.73333)"
           clip-path="url(#clipPath83)"
           id="path186" />
        <path
           d="m 408.49,110.12 h 2.5087 v 1.5 H 408.49 Z"
           style="fill:#000000;fill-opacity:1;fill-rule:nonzero;stroke:none"
           transform="matrix(1.1738935,7.9763147e-8,-4.5577467e-8,-1.1707591,-28.8812,219.73333)"
           clip-path="url(#clipPath84)"
           id="path187" />
        <path
           d="m 408.49,118.14 h 2.5087 v 1.5 H 408.49 Z"
           style="fill:#000000;fill-opacity:1;fill-rule:nonzero;stroke:none"
           transform="matrix(1.1738935,7.9763147e-8,-4.5577467e-8,-1.1707591,-28.8812,219.73333)"
           clip-path="url(#clipPath85)"
           id="path188" />
        <path
           d="m 408.49,134.16 h 2.5087 v 1.5 H 408.49 Z"
           style="fill:#000000;fill-opacity:1;fill-rule:nonzero;stroke:none"
           transform="matrix(1.1738935,7.9763147e-8,-4.5577467e-8,-1.1707591,-28.8812,219.73333)"
           clip-path="url(#clipPath86)"
           id="path189" />
        <path
           d="m 408.49,142.18 h 2.5087 v 1.5 H 408.49 Z"
           style="fill:#000000;fill-opacity:1;fill-rule:nonzero;stroke:none"
           transform="matrix(1.1738935,7.9763147e-8,-4.5577467e-8,-1.1707591,-28.8812,219.73333)"
           clip-path="url(#clipPath87)"
           id="path190" />
        <path
           d="m 408.49,150.19 h 2.5087 v 1.5 H 408.49 Z"
           style="fill:#000000;fill-opacity:1;fill-rule:nonzero;stroke:none"
           transform="matrix(1.1738935,7.9763147e-8,-4.5577467e-8,-1.1707591,-28.8812,219.73333)"
           clip-path="url(#clipPath88)"
           id="path191" />
        <path
           d="m 408.49,158.2 h 2.5087 v 1.5 H 408.49 Z"
           style="fill:#000000;fill-opacity:1;fill-rule:nonzero;stroke:none"
           transform="matrix(1.1738935,7.9763147e-8,-4.5577467e-8,-1.1707591,-28.8812,219.73333)"
           clip-path="url(#clipPath89)"
           id="path192" />
        <path
           d="m 408.49,174.23 h 2.5087 v 1.5 H 408.49 Z"
           style="fill:#000000;fill-opacity:1;fill-rule:nonzero;stroke:none"
           transform="matrix(1.1738935,7.9763147e-8,-4.5577467e-8,-1.1707591,-28.8812,219.73333)"
           clip-path="url(#clipPath90)"
           id="path193" />
        <path
           d="m 408.49,182.24 h 2.5087 v 1.5 H 408.49 Z"
           style="fill:#000000;fill-opacity:1;fill-rule:nonzero;stroke:none"
           transform="matrix(1.1738935,7.9763147e-8,-4.5577467e-8,-1.1707591,-28.8812,219.73333)"
           clip-path="url(#clipPath91)"
           id="path194" />
        <path
           d="m 53.997,46.465 c 0,-0.706 -0.099,-1.365 -0.297,-1.977 -0.118,-0.375 -0.277,-0.683 -0.477,-0.923 -0.2,-0.24 -0.427,-0.43 -0.681,-0.571 -0.254,-0.141 -0.53,-0.211 -0.829,-0.211 -0.341,0 -0.648,0.087 -0.923,0.261 -0.275,0.174 -0.518,0.422 -0.73,0.745 -0.153,0.237 -0.287,0.551 -0.402,0.944 -0.149,0.532 -0.224,1.081 -0.224,1.648 0,0.768 0.108,1.474 0.324,2.117 0.177,0.532 0.446,0.94 0.808,1.223 0.361,0.283 0.744,0.425 1.147,0.425 0.41,0 0.794,-0.14 1.15,-0.42 0.356,-0.28 0.618,-0.656 0.785,-1.129 0.233,-0.65 0.349,-1.361 0.349,-2.132 z m -1.606,0.01 c 0,1.238 -0.007,1.959 -0.021,2.164 -0.035,0.483 -0.118,0.81 -0.25,0.98 -0.087,0.112 -0.228,0.167 -0.423,0.167 -0.149,0 -0.267,-0.041 -0.354,-0.125 -0.129,-0.122 -0.216,-0.336 -0.261,-0.644 -0.045,-0.308 -0.068,-1.381 -0.068,-3.22 0,-1.001 0.035,-1.672 0.105,-2.013 0.052,-0.247 0.126,-0.412 0.224,-0.495 0.097,-0.084 0.226,-0.125 0.386,-0.125 0.174,0 0.304,0.055 0.391,0.167 0.146,0.194 0.229,0.495 0.25,0.902 z"
           style="fill:#000000;fill-opacity:1;fill-rule:evenodd;stroke:none"
           transform="matrix(1.1738935,7.9763147e-8,-4.5577467e-8,-1.1707591,-28.8812,219.73333)"
           clip-path="url(#clipPath92)"
           id="path195" />
        <path
           d="m 45.747,86.53 c 0,-0.705 -0.099,-1.364 -0.297,-1.976 -0.118,-0.375 -0.277,-0.683 -0.477,-0.923 -0.2,-0.24 -0.427,-0.43 -0.681,-0.571 -0.254,-0.141 -0.53,-0.211 -0.829,-0.211 -0.341,0 -0.648,0.087 -0.923,0.261 -0.275,0.173 -0.518,0.422 -0.73,0.745 -0.153,0.237 -0.287,0.551 -0.402,0.944 -0.149,0.532 -0.224,1.081 -0.224,1.648 0,0.768 0.108,1.474 0.324,2.117 0.177,0.532 0.446,0.94 0.808,1.223 0.361,0.283 0.744,0.425 1.147,0.425 0.41,0 0.794,-0.14 1.15,-0.42 0.356,-0.28 0.618,-0.656 0.785,-1.129 0.233,-0.65 0.349,-1.361 0.349,-2.133 z m -1.606,0.011 c 0,1.237 -0.007,1.959 -0.021,2.164 -0.035,0.483 -0.118,0.81 -0.25,0.98 -0.087,0.111 -0.228,0.167 -0.423,0.167 -0.149,0 -0.267,-0.042 -0.354,-0.125 -0.129,-0.122 -0.216,-0.336 -0.261,-0.644 -0.045,-0.308 -0.068,-1.381 -0.068,-3.22 0,-1.001 0.035,-1.672 0.105,-2.013 0.052,-0.247 0.126,-0.412 0.224,-0.495 0.097,-0.084 0.226,-0.126 0.386,-0.126 0.174,0 0.304,0.056 0.391,0.167 0.146,0.195 0.229,0.496 0.25,0.902 z m 3.494,-1.94 c 0.243,0 0.449,-0.085 0.618,-0.256 0.168,-0.17 0.253,-0.375 0.253,-0.615 0,-0.24 -0.086,-0.444 -0.256,-0.613 -0.17,-0.168 -0.375,-0.253 -0.615,-0.253 -0.24,0 -0.444,0.085 -0.613,0.253 -0.169,0.169 -0.253,0.373 -0.253,0.613 0,0.24 0.084,0.445 0.253,0.615 0.169,0.171 0.373,0.256 0.613,0.256 z m 3.04,5.465 h 3.311 L 53.46,88.72 h -2.785 l -0.266,-0.704 c 1.199,-0.045 2.122,-0.344 2.769,-0.896 0.532,-0.456 0.798,-1.022 0.798,-1.7 0,-0.435 -0.124,-0.86 -0.37,-1.275 -0.247,-0.416 -0.595,-0.736 -1.043,-0.96 -0.449,-0.224 -0.941,-0.336 -1.476,-0.336 -0.577,0 -1.02,0.108 -1.33,0.323 -0.215,0.153 -0.323,0.327 -0.323,0.522 0,0.149 0.056,0.281 0.169,0.396 0.113,0.115 0.245,0.172 0.394,0.172 0.136,0 0.273,-0.028 0.412,-0.083 0.139,-0.056 0.377,-0.202 0.714,-0.439 0.212,-0.146 0.395,-0.246 0.548,-0.302 0.108,-0.042 0.229,-0.063 0.365,-0.063 0.285,0 0.527,0.105 0.727,0.313 0.2,0.209 0.3,0.459 0.3,0.751 0,0.612 -0.306,1.109 -0.918,1.492 -0.611,0.382 -1.383,0.573 -2.315,0.573 -0.094,0 -0.235,-0.001 -0.422,-0.005 z"
           style="fill:#000000;fill-opacity:1;fill-rule:evenodd;stroke:none"
           transform="matrix(1.1738935,7.9763147e-8,-4.5577467e-8,-1.1707591,-28.8812,219.73333)"
           clip-path="url(#clipPath93)"
           id="path196" />
        <path
           d="m 52.527,130.28 v -5.79 c 0,-0.43 0.019,-0.71 0.057,-0.83 0.038,-0.12 0.118,-0.22 0.24,-0.29 0.121,-0.08 0.316,-0.12 0.584,-0.12 h 0.161 v -0.19 h -3.723 v 0.19 h 0.188 c 0.302,0 0.518,0.04 0.647,0.11 0.128,0.07 0.215,0.16 0.26,0.28 0.045,0.13 0.068,0.41 0.068,0.85 v 3.67 c 0,0.33 -0.016,0.53 -0.047,0.61 -0.031,0.08 -0.089,0.15 -0.175,0.21 -0.085,0.06 -0.183,0.09 -0.294,0.09 -0.177,0 -0.393,-0.06 -0.647,-0.17 l -0.094,0.19 2.602,1.19 z"
           style="fill:#000000;fill-opacity:1;fill-rule:evenodd;stroke:none"
           transform="matrix(1.1738935,7.9763147e-8,-4.5577467e-8,-1.1707591,-28.8812,219.73333)"
           clip-path="url(#clipPath94)"
           id="path197" />
        <path
           d="m 44.277,170.34 v -5.78 c 0,-0.43 0.019,-0.71 0.057,-0.83 0.038,-0.12 0.118,-0.22 0.24,-0.3 0.121,-0.07 0.316,-0.11 0.584,-0.11 h 0.161 v -0.19 h -3.723 v 0.19 h 0.188 c 0.302,0 0.518,0.03 0.647,0.1 0.128,0.07 0.215,0.17 0.26,0.29 0.045,0.12 0.068,0.41 0.068,0.85 v 3.67 c 0,0.32 -0.016,0.53 -0.047,0.61 -0.031,0.08 -0.089,0.15 -0.175,0.21 -0.085,0.05 -0.183,0.08 -0.294,0.08 -0.177,0 -0.393,-0.05 -0.647,-0.16 l -0.094,0.18 2.602,1.19 z m 3.358,-5.61 c 0.243,0 0.449,-0.08 0.618,-0.25 0.168,-0.17 0.253,-0.38 0.253,-0.62 0,-0.24 -0.086,-0.44 -0.256,-0.61 -0.17,-0.17 -0.375,-0.25 -0.615,-0.25 -0.24,0 -0.444,0.08 -0.613,0.25 -0.169,0.17 -0.253,0.37 -0.253,0.61 0,0.24 0.084,0.45 0.253,0.62 0.169,0.17 0.373,0.25 0.613,0.25 z m 3.04,5.47 h 3.311 l -0.526,-1.35 h -2.785 l -0.266,-0.7 c 1.199,-0.05 2.122,-0.35 2.769,-0.9 0.532,-0.45 0.798,-1.02 0.798,-1.7 0,-0.43 -0.124,-0.86 -0.37,-1.27 -0.247,-0.42 -0.595,-0.74 -1.043,-0.96 -0.449,-0.23 -0.941,-0.34 -1.476,-0.34 -0.577,0 -1.02,0.11 -1.33,0.32 -0.215,0.16 -0.323,0.33 -0.323,0.53 0,0.14 0.056,0.28 0.169,0.39 0.113,0.12 0.245,0.17 0.394,0.17 0.136,0 0.273,-0.02 0.412,-0.08 0.139,-0.06 0.377,-0.2 0.714,-0.44 0.212,-0.14 0.395,-0.24 0.548,-0.3 0.108,-0.04 0.229,-0.06 0.365,-0.06 0.285,0 0.527,0.1 0.727,0.31 0.2,0.21 0.3,0.46 0.3,0.75 0,0.61 -0.306,1.11 -0.918,1.49 -0.611,0.38 -1.383,0.58 -2.315,0.58 -0.094,0 -0.235,-0.01 -0.422,-0.01 z"
           style="fill:#000000;fill-opacity:1;fill-rule:evenodd;stroke:none"
           transform="matrix(1.1738935,7.9763147e-8,-4.5577467e-8,-1.1707591,-28.8812,219.73333)"
           clip-path="url(#clipPath95)"
           id="path198" />
        <path
           d="m 27.727,91.272 c 0,0.226 0.079,0.417 0.237,0.573 0.158,0.157 0.348,0.235 0.571,0.235 0.222,0 0.412,-0.079 0.568,-0.237 0.157,-0.159 0.235,-0.349 0.235,-0.571 0,-0.223 -0.078,-0.412 -0.235,-0.569 -0.156,-0.156 -0.346,-0.234 -0.568,-0.234 -0.223,0 -0.413,0.078 -0.571,0.234 -0.158,0.157 -0.237,0.346 -0.237,0.569 z m 2.362,0.73 h 3.864 c 0.344,0 0.564,0.04 0.66,0.12 0.095,0.08 0.15,0.236 0.164,0.469 h 0.187 v -2.633 h -0.187 c -0.007,0.215 -0.07,0.375 -0.188,0.479 -0.08,0.07 -0.292,0.105 -0.636,0.105 h -2.847 c -0.345,0 -0.564,-0.04 -0.66,-0.12 -0.096,-0.08 -0.15,-0.235 -0.164,-0.464 h -0.193 z m 6.497,0.693 v 5.538 h 0.683 v -5.538 z m -6.497,7.985 h 1.105 c -0.504,0.32 -0.838,0.61 -1.004,0.85 -0.165,0.24 -0.247,0.48 -0.247,0.7 0,0.2 0.06,0.35 0.18,0.47 0.12,0.12 0.289,0.17 0.508,0.17 0.233,0 0.414,-0.05 0.542,-0.17 0.129,-0.11 0.193,-0.24 0.193,-0.4 0,-0.19 -0.059,-0.35 -0.177,-0.48 -0.118,-0.14 -0.184,-0.22 -0.198,-0.24 -0.021,-0.04 -0.031,-0.08 -0.031,-0.12 0,-0.1 0.038,-0.2 0.114,-0.29 0.119,-0.14 0.287,-0.25 0.506,-0.32 0.337,-0.12 0.709,-0.17 1.116,-0.17 h 1.121 0.292 c 0.198,0 0.325,0.02 0.381,0.04 0.094,0.04 0.162,0.1 0.206,0.19 0.043,0.08 0.07,0.22 0.081,0.41 h 0.187 v -2.633 h -0.187 c -0.018,0.212 -0.076,0.355 -0.175,0.43 -0.099,0.075 -0.361,0.112 -0.785,0.112 h -2.696 c -0.278,0 -0.455,-0.014 -0.532,-0.041 -0.097,-0.035 -0.168,-0.086 -0.213,-0.152 -0.046,-0.066 -0.077,-0.182 -0.094,-0.349 h -0.193 z m -2.357,8.48 h 0.24 c 0.236,-0.36 0.467,-0.63 0.693,-0.8 0.313,-0.24 0.715,-0.42 1.205,-0.55 0.608,-0.17 1.458,-0.25 2.55,-0.25 1.029,0 1.828,0.07 2.398,0.22 0.571,0.16 1.031,0.36 1.382,0.62 0.244,0.18 0.458,0.43 0.642,0.76 h 0.261 c -0.282,-0.84 -0.857,-1.55 -1.724,-2.13 -0.867,-0.58 -1.864,-0.88 -2.991,-0.88 -1.112,0 -2.097,0.29 -2.954,0.88 -0.857,0.58 -1.424,1.29 -1.702,2.13 z m 0.161,2.57 h 4.652 l -1.111,1.13 c -0.226,0.23 -0.389,0.38 -0.49,0.44 -0.101,0.05 -0.198,0.08 -0.292,0.08 -0.094,0 -0.172,-0.04 -0.235,-0.11 -0.062,-0.08 -0.107,-0.23 -0.135,-0.45 H 30.089 V 115 h 0.193 c 0.01,-0.21 0.06,-0.39 0.148,-0.54 0.089,-0.16 0.356,-0.47 0.801,-0.92 l 0.521,-0.53 1.679,1.14 c 0.682,0.47 1.064,0.74 1.148,0.83 0.118,0.12 0.184,0.27 0.198,0.45 h 0.187 v -2.52 h -0.187 c 0,0.11 -0.021,0.19 -0.063,0.24 -0.042,0.05 -0.087,0.08 -0.135,0.08 -0.08,0 -0.228,-0.08 -0.444,-0.22 l -1.413,-0.97 0.308,-0.31 h 0.876 c 0.372,0 0.604,0.03 0.696,0.1 0.092,0.07 0.15,0.22 0.175,0.43 h 0.187 v -2.52 h -0.187 c -0.021,0.21 -0.087,0.35 -0.198,0.44 -0.077,0.06 -0.301,0.09 -0.673,0.09 h -4.954 c -0.369,0 -0.598,-0.04 -0.688,-0.1 -0.091,-0.07 -0.15,-0.21 -0.178,-0.43 h -0.193 z m 5.059,8.22 v -2.5 l 0.688,-0.3 c 0.229,-0.1 0.419,-0.14 0.568,-0.14 0.199,0 0.345,0.08 0.438,0.24 0.056,0.09 0.098,0.32 0.126,0.69 h 0.192 v -2.35 h -0.192 c -0.039,0.25 -0.144,0.46 -0.316,0.62 -0.172,0.17 -0.527,0.37 -1.066,0.61 l -5.643,2.53 v 0.1 l 5.799,2.55 c 0.549,0.24 0.895,0.44 1.038,0.6 0.108,0.11 0.17,0.28 0.188,0.5 h 0.192 v -3.42 h -0.192 v 0.14 c 0,0.27 -0.039,0.46 -0.115,0.58 -0.056,0.07 -0.136,0.11 -0.24,0.11 -0.063,0 -0.127,-0.01 -0.193,-0.03 -0.031,-0.01 -0.162,-0.06 -0.391,-0.16 z m -0.386,-0.18 -2.435,-1.05 2.435,-1.09 z m 4.537,3.81 h -0.24 c -0.24,0.36 -0.473,0.62 -0.699,0.79 -0.313,0.24 -0.713,0.42 -1.2,0.56 -0.611,0.16 -1.463,0.25 -2.555,0.25 -1.029,0 -1.827,-0.08 -2.396,-0.23 -0.568,-0.15 -1.028,-0.36 -1.379,-0.62 -0.243,-0.18 -0.457,-0.43 -0.641,-0.75 h -0.261 c 0.281,0.83 0.856,1.54 1.723,2.13 0.868,0.58 1.864,0.87 2.991,0.87 1.109,0 2.092,-0.29 2.949,-0.87 0.857,-0.59 1.426,-1.3 1.708,-2.13 z"
           style="fill:#000000;fill-opacity:1;fill-rule:evenodd;stroke:none"
           transform="matrix(1.1738935,7.9763147e-8,-4.5577467e-8,-1.1707591,-28.8812,219.73333)"
           clip-path="url(#clipPath96)"
           id="path199" />
        <path
           d="m 59.208,94.408 0.042,-0.008 2.931,-0.011 2.931,0.071 2.932,0.196 2.931,-0.226 2.931,-0.178 2.931,0.173 2.932,0.501 2.931,-0.618 2.931,0.373 2.932,-0.122 2.931,-0.044 2.931,-0.407 2.931,0.34 2.934,0.174 2.93,0.238 2.93,-0.693 2.93,0.731 2.93,-0.643 2.93,0.389 2.93,-0.165 2.94,0.032 2.93,-0.055 2.93,-0.094 2.93,-0.057 2.93,0.553 2.93,-0.354 2.93,0.363 2.94,-0.594 2.93,0.136 2.93,-0.058 2.93,0.234 2.93,-0.19 2.93,0.228 2.93,-0.285 2.93,0.636 2.93,-0.859 2.94,0.412 2.93,0.006 2.93,0.165 2.93,-0.284 2.93,-39.446 2.93,71.322 2.93,39.91 2.94,-4.16 2.93,-27.48 2.93,11.43 2.93,8.36 2.93,-13.71 2.93,-13.51 2.93,10.42 2.93,9.15 2.93,-7.68 2.94,-7.32 2.93,6.97 2.93,5.2 2.93,-5.9 2.93,20.71 2.93,-91.348 2.93,42.808 2.94,10.72 2.93,-10.63 2.93,-34.392 2.93,21.727 2.93,12.585 2.93,-12.253 2.93,-16.495 2.93,14.199 2.94,8.739 2.93,-9.455 2.93,-9.198 2.93,9.816 2.93,5.427 2.93,-6.789 2.93,-5.185 2.93,6.256 2.93,3.298 2.94,-4.894 2.93,-2.637 2.93,4.692 2.93,1.71 2.93,-4.083 2.93,-1.088 2.93,3.077 2.94,0.886 2.93,-2.615 2.93,-0.577 2.93,2.429 2.93,0.359 2.93,-1.78 2.93,-0.296 2.93,1.633 2.93,-0.253 2.94,-1.213 2.93,-0.184 2.93,1.729 2.93,-0.205 2.93,-1.384 2.93,0.14 2.93,1.622 2.94,-0.588 2.93,-1.219 2.93,0.538 2.93,0.627 2.93,-0.334 2.93,-0.48 2.93,-0.063 2.93,1.385 2.94,-0.861 2.93,-0.401 2.93,0.002 2.93,0.738 2.93,-0.44 2.93,-0.64 2.93,0.593 2.93,1.062 2.93,-1.053 2.94,-0.282 2.93,0.533 2.93,0.342 2.93,-0.793 0.04,-0.004"
           style="fill:none;stroke:#0072bd;stroke-width:2.4;stroke-linecap:butt;stroke-linejoin:round;stroke-miterlimit:10;stroke-dasharray:none;stroke-opacity:1"
           transform="matrix(1.1738935,7.9763147e-8,-4.5577467e-8,-1.1707591,-28.8812,219.73333)"
           clip-path="url(#clipPath97)"
           id="path200" />
        <path
           d="m 59.208,94.408 0.042,-0.008 2.931,-0.011 2.931,0.071 2.932,0.196 2.931,-0.226 2.931,-0.178 2.931,0.173 2.932,0.501 2.931,-0.618 2.931,0.373 2.932,-0.122 2.931,-0.044 2.931,-0.407 2.931,0.34 2.934,0.174 2.93,0.238 2.93,-0.693 2.93,0.731 2.93,-0.643 2.93,0.389 2.93,-0.165 2.94,0.032 2.93,-0.055 2.93,-0.094 2.93,-0.057 2.93,0.553 2.93,-0.354 2.93,0.363 2.94,-0.594 2.93,0.136 2.93,-0.058 2.93,0.234 2.93,-0.19 2.93,0.228 2.93,-0.285 2.93,0.636 2.93,-0.859 2.94,0.412 2.93,0.006 2.93,0.165 2.93,-0.284 2.93,-29.18 2.93,-4.56 2.93,-12.485 2.94,25.139 2.93,1.254 2.93,-3.229 2.93,-6.008 2.93,-12.029 2.93,6.853 2.93,3.276 2.93,-6.423 2.93,-6.885 2.94,7.385 2.93,1.727 2.93,-5.115 2.93,-5.354 2.93,39.701 2.93,-22.594 2.93,31.943 2.94,-5.488 2.93,16.808 2.93,-51.131 2.93,43.081 2.93,-8.351 2.93,5.698 2.93,-27.95 2.93,26.154 2.94,-4.969 2.93,1.983 2.93,-15.192 2.93,16.075 2.93,-1.569 2.93,-0.814 2.93,-9.827 2.93,10.962 2.93,1.439 2.94,-2.054 2.93,-5.79 2.93,7.725 2.93,0.987 2.93,-2.791 2.93,-2.575 2.93,5.176 2.94,0.175 2.93,-3.018 2.93,-0.877 2.93,3.806 2.93,-0.274 2.93,-2.009 2.93,-0.719 2.93,2.589 2.93,-0.005 2.94,-1.743 2.93,-0.296 2.93,1.961 2.93,-0.082 2.93,-1.46 2.93,-0.366 2.93,1.071 2.94,0.128 2.93,-0.997 2.93,-0.569 2.93,1.062 2.93,-0.302 2.93,-0.975 2.93,0.066 2.93,1.025 2.94,-0.391 2.93,-0.648 2.93,0.465 2.93,0.907 2.93,-0.269 2.93,-0.14 2.93,0.301 2.93,0.509 2.93,-0.364 2.94,-0.165 2.93,-0.048 2.93,0.345 2.93,-0.084 0.04,0.002"
           style="fill:none;stroke:#d95319;stroke-width:2.4;stroke-linecap:butt;stroke-linejoin:round;stroke-miterlimit:10;stroke-dasharray:none;stroke-opacity:1"
           transform="matrix(1.1738935,7.9763147e-8,-4.5577467e-8,-1.1707591,-28.8812,219.73333)"
           clip-path="url(#clipPath98)"
           id="path201" />
        <path
           d="m 303.75,38.242 h 99 v 27 h -99 z"
           style="fill:#ffffff;fill-opacity:1;fill-rule:evenodd;stroke:none"
           transform="matrix(1.1738935,7.9763147e-8,-4.5577467e-8,-1.1707591,-28.8812,219.73333)"
           clip-path="url(#clipPath99)"
           id="path202" />
        <path
           d="m 343.67,54.22 -1.2,3.22 -1.18,-3.22 h -0.24 l -1.17,3.182 c -0.17,0.485 -0.32,0.801 -0.45,0.948 -0.07,0.101 -0.19,0.173 -0.35,0.216 v 0.174 h 2.21 v -0.174 c -0.15,0 -0.25,-0.022 -0.31,-0.065 -0.05,-0.044 -0.08,-0.094 -0.08,-0.151 0,-0.053 0.05,-0.212 0.15,-0.478 l 0.64,-1.713 0.62,1.713 -0.05,0.112 c -0.09,0.235 -0.17,0.384 -0.24,0.449 -0.07,0.064 -0.18,0.108 -0.33,0.133 v 0.174 h 2.25 v -0.174 c -0.17,-0.009 -0.29,-0.033 -0.33,-0.072 -0.05,-0.04 -0.07,-0.095 -0.07,-0.167 0,-0.069 0.04,-0.221 0.13,-0.455 l 0.62,-1.713 0.57,1.577 c 0.08,0.225 0.12,0.378 0.12,0.46 0,0.122 -0.03,0.211 -0.09,0.267 -0.06,0.056 -0.18,0.091 -0.35,0.103 v 0.174 h 1.3 v -0.174 c -0.14,-0.018 -0.26,-0.069 -0.34,-0.152 -0.09,-0.083 -0.2,-0.319 -0.33,-0.707 l -1.23,-3.487 z m 3.86,6.646 c 0.2,0 0.37,-0.071 0.51,-0.214 0.14,-0.142 0.21,-0.313 0.21,-0.513 0,-0.201 -0.07,-0.371 -0.21,-0.512 -0.14,-0.141 -0.31,-0.211 -0.51,-0.211 -0.2,0 -0.37,0.07 -0.52,0.211 -0.14,0.141 -0.21,0.311 -0.21,0.512 0,0.2 0.07,0.371 0.21,0.513 0.15,0.143 0.32,0.214 0.52,0.214 z m 0.65,-2.126 v -3.478 c 0,-0.309 0.04,-0.507 0.11,-0.593 0.07,-0.086 0.21,-0.136 0.42,-0.148 v -0.169 h -2.37 v 0.169 c 0.2,0.006 0.34,0.062 0.44,0.169 0.06,0.072 0.09,0.263 0.09,0.572 v 2.563 c 0,0.31 -0.04,0.507 -0.11,0.594 -0.07,0.086 -0.21,0.135 -0.42,0.147 v 0.174 z m 2.78,1.605 V 58.74 H 352 v -0.465 h -1.04 v -2.708 c 0,-0.253 0.01,-0.417 0.04,-0.49 0.02,-0.074 0.06,-0.133 0.12,-0.178 0.06,-0.046 0.12,-0.068 0.17,-0.068 0.2,0 0.39,0.154 0.57,0.464 L 352,55.192 c -0.25,-0.601 -0.66,-0.901 -1.23,-0.901 -0.28,0 -0.51,0.077 -0.71,0.232 -0.19,0.155 -0.31,0.328 -0.37,0.519 -0.03,0.106 -0.04,0.394 -0.04,0.863 v 2.37 h -0.58 v 0.165 c 0.4,0.278 0.73,0.571 1.01,0.877 0.28,0.307 0.52,0.649 0.73,1.028 z m 3.35,0.371 v -2.539 c 0.24,0.253 0.46,0.432 0.66,0.537 0.2,0.105 0.41,0.157 0.62,0.157 0.28,0 0.51,-0.078 0.71,-0.234 0.2,-0.157 0.33,-0.341 0.39,-0.552 0.06,-0.211 0.1,-0.567 0.1,-1.067 v -1.713 c 0,-0.335 0.03,-0.544 0.09,-0.627 0.06,-0.083 0.19,-0.135 0.38,-0.157 v -0.169 h -2.22 v 0.169 c 0.15,0.022 0.27,0.084 0.35,0.188 0.05,0.081 0.08,0.28 0.08,0.596 v 1.957 c 0,0.363 -0.01,0.59 -0.04,0.683 -0.03,0.092 -0.08,0.164 -0.14,0.215 -0.07,0.052 -0.15,0.078 -0.23,0.078 -0.13,0 -0.25,-0.043 -0.37,-0.129 -0.12,-0.086 -0.24,-0.237 -0.38,-0.453 v -2.351 c 0,-0.313 0.02,-0.509 0.07,-0.587 0.06,-0.106 0.18,-0.172 0.36,-0.197 v -0.169 h -2.22 v 0.169 c 0.18,0.019 0.32,0.078 0.39,0.178 0.06,0.069 0.08,0.271 0.08,0.606 v 4.458 c 0,0.332 -0.03,0.538 -0.09,0.62 -0.06,0.081 -0.19,0.134 -0.38,0.159 v 0.174 z m 5.78,-1.845 c 0.38,0 0.74,-0.098 1.06,-0.295 0.33,-0.197 0.58,-0.477 0.75,-0.84 0.17,-0.363 0.26,-0.761 0.26,-1.192 0,-0.623 -0.16,-1.144 -0.47,-1.563 -0.39,-0.507 -0.91,-0.761 -1.59,-0.761 -0.66,0 -1.16,0.232 -1.52,0.695 -0.36,0.463 -0.54,1 -0.54,1.61 0,0.629 0.19,1.177 0.55,1.645 0.36,0.468 0.86,0.701 1.5,0.701 z m 0.02,-0.333 c -0.16,0 -0.3,-0.06 -0.41,-0.181 -0.12,-0.12 -0.19,-0.358 -0.23,-0.713 -0.03,-0.355 -0.05,-0.849 -0.05,-1.481 0,-0.334 0.02,-0.647 0.06,-0.938 0.04,-0.222 0.11,-0.391 0.22,-0.507 0.12,-0.116 0.25,-0.174 0.39,-0.174 0.14,0 0.26,0.039 0.35,0.118 0.12,0.106 0.2,0.255 0.25,0.445 0.06,0.298 0.09,0.898 0.09,1.803 0,0.532 -0.03,0.897 -0.09,1.096 -0.06,0.198 -0.15,0.343 -0.26,0.434 -0.08,0.065 -0.19,0.098 -0.32,0.098 z m 7.1,0.202 v -3.435 c 0,-0.335 0.03,-0.544 0.09,-0.627 0.07,-0.083 0.19,-0.135 0.38,-0.157 v -0.169 h -1.78 v 0.587 c -0.21,-0.251 -0.42,-0.433 -0.63,-0.547 -0.21,-0.114 -0.45,-0.172 -0.71,-0.172 -0.24,0 -0.46,0.076 -0.66,0.228 -0.19,0.152 -0.32,0.329 -0.38,0.533 -0.07,0.203 -0.1,0.558 -0.1,1.065 v 1.741 c 0,0.332 -0.03,0.538 -0.09,0.62 -0.07,0.081 -0.19,0.134 -0.39,0.159 v 0.174 h 1.79 v -2.999 c 0,-0.313 0.02,-0.515 0.05,-0.605 0.03,-0.091 0.07,-0.16 0.14,-0.207 0.06,-0.047 0.14,-0.07 0.22,-0.07 0.11,0 0.21,0.029 0.3,0.089 0.13,0.081 0.28,0.246 0.46,0.493 v 2.346 c 0,0.332 -0.04,0.538 -0.1,0.62 -0.06,0.081 -0.18,0.134 -0.38,0.159 v 0.174 z m 3.01,1.605 V 58.74 h 1.04 v -0.465 h -1.04 v -2.708 c 0,-0.253 0.01,-0.417 0.03,-0.49 0.03,-0.074 0.07,-0.133 0.13,-0.178 0.06,-0.046 0.11,-0.068 0.16,-0.068 0.2,0 0.4,0.154 0.58,0.464 l 0.14,-0.103 c -0.25,-0.601 -0.67,-0.901 -1.23,-0.901 -0.28,0 -0.52,0.077 -0.71,0.232 -0.19,0.155 -0.32,0.328 -0.37,0.519 -0.03,0.106 -0.05,0.394 -0.05,0.863 v 2.37 h -0.57 v 0.165 c 0.4,0.278 0.73,0.571 1.01,0.877 0.27,0.307 0.52,0.649 0.72,1.028 z m 10.33,0.516 v -2.243 h -0.17 c -0.21,0.613 -0.53,1.079 -0.95,1.399 -0.41,0.319 -0.87,0.478 -1.37,0.478 -0.48,0 -0.87,-0.134 -1.19,-0.401 -0.31,-0.268 -0.54,-0.641 -0.67,-1.119 -0.13,-0.479 -0.2,-0.97 -0.2,-1.474 0,-0.61 0.08,-1.145 0.22,-1.605 0.14,-0.46 0.38,-0.798 0.7,-1.014 0.32,-0.216 0.7,-0.324 1.14,-0.324 0.15,0 0.31,0.017 0.47,0.05 0.16,0.032 0.33,0.08 0.5,0.143 v 1.323 c 0,0.251 -0.02,0.412 -0.05,0.486 -0.04,0.074 -0.11,0.14 -0.22,0.199 -0.11,0.06 -0.24,0.09 -0.39,0.09 h -0.16 v 0.173 h 3.09 v -0.173 c -0.24,-0.016 -0.4,-0.048 -0.49,-0.097 -0.09,-0.048 -0.17,-0.129 -0.22,-0.241 -0.02,-0.06 -0.04,-0.205 -0.04,-0.437 v -1.323 c -0.4,-0.182 -0.83,-0.319 -1.27,-0.411 -0.44,-0.092 -0.89,-0.138 -1.37,-0.138 -0.6,0 -1.1,0.082 -1.5,0.246 -0.4,0.164 -0.75,0.38 -1.06,0.648 -0.3,0.267 -0.54,0.568 -0.71,0.903 -0.22,0.432 -0.33,0.915 -0.33,1.45 0,0.958 0.34,1.767 1.01,2.427 0.67,0.66 1.52,0.99 2.54,0.99 0.31,0 0.6,-0.025 0.85,-0.075 0.14,-0.025 0.36,-0.096 0.67,-0.214 0.31,-0.117 0.49,-0.176 0.55,-0.176 0.09,0 0.17,0.032 0.24,0.097 0.08,0.064 0.15,0.185 0.21,0.363 z m 5.59,0 0.05,-2.121 H 386 c -0.09,0.532 -0.32,0.96 -0.67,1.284 -0.36,0.323 -0.74,0.485 -1.15,0.485 -0.32,0 -0.58,-0.085 -0.76,-0.255 -0.19,-0.171 -0.28,-0.367 -0.28,-0.589 0,-0.141 0.03,-0.266 0.1,-0.376 0.09,-0.147 0.23,-0.292 0.43,-0.436 0.15,-0.104 0.49,-0.287 1.02,-0.549 0.75,-0.367 1.25,-0.712 1.51,-1.038 0.25,-0.325 0.38,-0.697 0.38,-1.117 0,-0.532 -0.2,-0.989 -0.62,-1.372 -0.41,-0.384 -0.94,-0.575 -1.58,-0.575 -0.2,0 -0.39,0.02 -0.57,0.061 -0.17,0.04 -0.4,0.117 -0.67,0.23 -0.15,0.062 -0.27,0.094 -0.37,0.094 -0.08,0 -0.17,-0.032 -0.26,-0.094 -0.09,-0.063 -0.16,-0.158 -0.22,-0.287 h -0.17 v 2.403 h 0.17 c 0.14,-0.676 0.41,-1.191 0.8,-1.546 0.39,-0.355 0.81,-0.533 1.27,-0.533 0.35,0 0.63,0.096 0.84,0.286 0.2,0.191 0.31,0.413 0.31,0.667 0,0.15 -0.04,0.296 -0.12,0.436 -0.08,0.141 -0.2,0.275 -0.37,0.402 -0.16,0.126 -0.45,0.291 -0.86,0.495 -0.58,0.285 -0.99,0.527 -1.25,0.727 -0.25,0.2 -0.45,0.424 -0.58,0.671 -0.14,0.248 -0.21,0.52 -0.21,0.817 0,0.507 0.19,0.939 0.56,1.295 0.37,0.357 0.84,0.535 1.41,0.535 0.21,0 0.41,-0.025 0.6,-0.075 0.15,-0.037 0.33,-0.107 0.54,-0.209 0.21,-0.101 0.36,-0.152 0.44,-0.152 0.08,0 0.15,0.025 0.19,0.075 0.05,0.05 0.1,0.17 0.14,0.361 z m 3.61,-0.511 v -2.591 h 0.12 c 0.41,0 0.7,0.127 0.88,0.38 0.18,0.254 0.3,0.628 0.35,1.122 h 0.18 v -3.332 h -0.18 c -0.04,0.363 -0.12,0.66 -0.24,0.891 -0.12,0.232 -0.26,0.388 -0.42,0.467 -0.16,0.08 -0.39,0.12 -0.69,0.12 v -1.793 c 0,-0.35 0.01,-0.564 0.04,-0.643 0.03,-0.078 0.09,-0.142 0.17,-0.192 0.08,-0.05 0.21,-0.075 0.39,-0.075 h 0.38 c 0.6,0 1.07,0.138 1.43,0.413 0.36,0.275 0.62,0.694 0.77,1.258 h 0.18 l -0.29,-2.023 h -5.5 v 0.174 h 0.21 c 0.19,0 0.33,0.032 0.45,0.098 0.08,0.044 0.14,0.119 0.18,0.225 0.04,0.075 0.06,0.273 0.06,0.592 v 4.186 c 0,0.288 -0.01,0.465 -0.03,0.53 -0.03,0.11 -0.09,0.194 -0.17,0.254 -0.12,0.087 -0.28,0.131 -0.49,0.131 h -0.21 v 0.174 h 5.33 v -1.882 h -0.18 c -0.09,0.46 -0.22,0.79 -0.38,0.99 -0.17,0.2 -0.4,0.347 -0.7,0.441 -0.18,0.057 -0.51,0.085 -0.99,0.085 z m 8.5,0.511 0.05,-2.121 h -0.2 c -0.09,0.532 -0.31,0.96 -0.66,1.284 -0.36,0.323 -0.74,0.485 -1.16,0.485 -0.32,0 -0.57,-0.085 -0.75,-0.255 -0.19,-0.171 -0.28,-0.367 -0.28,-0.589 0,-0.141 0.03,-0.266 0.09,-0.376 0.1,-0.147 0.24,-0.292 0.44,-0.436 0.15,-0.104 0.49,-0.287 1.02,-0.549 0.74,-0.367 1.25,-0.712 1.51,-1.038 0.25,-0.325 0.38,-0.697 0.38,-1.117 0,-0.532 -0.21,-0.989 -0.62,-1.372 -0.42,-0.384 -0.94,-0.575 -1.58,-0.575 -0.2,0 -0.39,0.02 -0.57,0.061 -0.18,0.04 -0.4,0.117 -0.67,0.23 -0.15,0.062 -0.27,0.094 -0.37,0.094 -0.08,0 -0.17,-0.032 -0.26,-0.094 -0.09,-0.063 -0.16,-0.158 -0.22,-0.287 h -0.17 v 2.403 h 0.17 c 0.14,-0.676 0.4,-1.191 0.8,-1.546 0.39,-0.355 0.81,-0.533 1.27,-0.533 0.35,0 0.63,0.096 0.83,0.286 0.21,0.191 0.32,0.413 0.32,0.667 0,0.15 -0.04,0.296 -0.12,0.436 -0.08,0.141 -0.2,0.275 -0.37,0.402 -0.16,0.126 -0.45,0.291 -0.86,0.495 -0.58,0.285 -1,0.527 -1.25,0.727 -0.25,0.2 -0.45,0.424 -0.58,0.671 -0.14,0.248 -0.21,0.52 -0.21,0.817 0,0.507 0.19,0.939 0.56,1.295 0.37,0.357 0.84,0.535 1.41,0.535 0.21,0 0.41,-0.025 0.6,-0.075 0.15,-0.037 0.33,-0.107 0.54,-0.209 0.21,-0.101 0.36,-0.152 0.44,-0.152 0.08,0 0.15,0.025 0.19,0.075 0.05,0.05 0.09,0.17 0.13,0.361 z"
           style="fill:#000000;fill-opacity:1;fill-rule:evenodd;stroke:none"
           transform="matrix(1.1738935,7.9763147e-8,-4.5577467e-8,-1.1707591,-28.8812,219.73333)"
           clip-path="url(#clipPath100)"
           id="path203" />
        <path
           d="m 306.75,57.845 h 30"
           style="fill:none;stroke:#0072bd;stroke-width:2.4;stroke-linecap:butt;stroke-linejoin:round;stroke-miterlimit:10;stroke-dasharray:none;stroke-opacity:1"
           transform="matrix(1.1738935,7.9763147e-8,-4.5577467e-8,-1.1707591,-28.8812,219.73333)"
           clip-path="url(#clipPath101)"
           id="path204" />
        <path
           d="m 343.67,42.015 -1.2,3.22 -1.18,-3.22 h -0.24 l -1.17,3.182 c -0.17,0.485 -0.32,0.801 -0.45,0.948 -0.07,0.1 -0.19,0.172 -0.35,0.216 v 0.174 h 2.21 v -0.174 c -0.15,0 -0.25,-0.022 -0.31,-0.066 -0.05,-0.044 -0.08,-0.094 -0.08,-0.15 0,-0.053 0.05,-0.213 0.15,-0.479 l 0.64,-1.713 0.62,1.713 -0.05,0.113 c -0.09,0.235 -0.17,0.384 -0.24,0.448 -0.07,0.064 -0.18,0.109 -0.33,0.134 v 0.174 h 2.25 v -0.174 c -0.17,-0.01 -0.29,-0.034 -0.33,-0.073 -0.05,-0.039 -0.07,-0.095 -0.07,-0.166 0,-0.069 0.04,-0.221 0.13,-0.456 l 0.62,-1.713 0.57,1.577 c 0.08,0.225 0.12,0.379 0.12,0.46 0,0.122 -0.03,0.211 -0.09,0.268 -0.06,0.056 -0.18,0.09 -0.35,0.103 v 0.174 h 1.3 v -0.174 c -0.14,-0.019 -0.26,-0.07 -0.34,-0.153 -0.09,-0.083 -0.2,-0.318 -0.33,-0.706 l -1.23,-3.487 z m 3.86,6.646 c 0.2,0 0.37,-0.072 0.51,-0.214 0.14,-0.142 0.21,-0.314 0.21,-0.514 0,-0.2 -0.07,-0.371 -0.21,-0.511 -0.14,-0.141 -0.31,-0.212 -0.51,-0.212 -0.2,0 -0.37,0.071 -0.52,0.212 -0.14,0.14 -0.21,0.311 -0.21,0.511 0,0.2 0.07,0.372 0.21,0.514 0.15,0.142 0.32,0.214 0.52,0.214 z m 0.65,-2.126 v -3.478 c 0,-0.31 0.04,-0.508 0.11,-0.594 0.07,-0.086 0.21,-0.135 0.42,-0.148 v -0.169 h -2.37 v 0.169 c 0.2,0.007 0.34,0.063 0.44,0.169 0.06,0.072 0.09,0.263 0.09,0.573 v 2.562 c 0,0.31 -0.04,0.508 -0.11,0.594 -0.07,0.086 -0.21,0.135 -0.42,0.148 v 0.174 z m 2.78,1.605 V 46.535 H 352 V 46.07 h -1.04 v -2.708 c 0,-0.254 0.01,-0.417 0.04,-0.491 0.02,-0.073 0.06,-0.132 0.12,-0.178 0.06,-0.045 0.12,-0.068 0.17,-0.068 0.2,0 0.39,0.155 0.57,0.465 L 352,42.986 c -0.25,-0.6 -0.66,-0.901 -1.23,-0.901 -0.28,0 -0.51,0.078 -0.71,0.233 -0.19,0.155 -0.31,0.327 -0.37,0.518 -0.03,0.107 -0.04,0.395 -0.04,0.864 v 2.37 h -0.58 v 0.164 c 0.4,0.279 0.73,0.571 1.01,0.878 0.28,0.306 0.52,0.649 0.73,1.028 z m 3.35,0.37 v -2.539 c 0.24,0.254 0.46,0.433 0.66,0.538 0.2,0.105 0.41,0.157 0.62,0.157 0.28,0 0.51,-0.078 0.71,-0.235 0.2,-0.156 0.33,-0.34 0.39,-0.551 0.06,-0.211 0.1,-0.567 0.1,-1.068 v -1.713 c 0,-0.335 0.03,-0.544 0.09,-0.626 0.06,-0.083 0.19,-0.136 0.38,-0.158 v -0.169 h -2.22 v 0.169 c 0.15,0.022 0.27,0.085 0.35,0.188 0.05,0.081 0.08,0.28 0.08,0.596 v 1.957 c 0,0.363 -0.01,0.591 -0.04,0.683 -0.03,0.092 -0.08,0.164 -0.14,0.216 -0.07,0.052 -0.15,0.077 -0.23,0.077 -0.13,0 -0.25,-0.043 -0.37,-0.129 -0.12,-0.086 -0.24,-0.237 -0.38,-0.453 v -2.351 c 0,-0.313 0.02,-0.508 0.07,-0.587 0.06,-0.106 0.18,-0.172 0.36,-0.197 v -0.169 h -2.22 v 0.169 c 0.18,0.019 0.32,0.079 0.39,0.179 0.06,0.069 0.08,0.27 0.08,0.605 v 4.459 c 0,0.331 -0.03,0.538 -0.09,0.619 -0.06,0.081 -0.19,0.135 -0.38,0.16 v 0.173 z m 12.49,0.146 v -2.244 h -0.17 c -0.21,0.614 -0.53,1.08 -0.95,1.399 -0.42,0.319 -0.87,0.479 -1.37,0.479 -0.48,0 -0.87,-0.134 -1.19,-0.401 -0.31,-0.268 -0.54,-0.641 -0.67,-1.12 -0.13,-0.479 -0.2,-0.97 -0.2,-1.473 0,-0.611 0.08,-1.146 0.22,-1.606 0.14,-0.459 0.38,-0.797 0.7,-1.013 0.32,-0.216 0.7,-0.324 1.14,-0.324 0.15,0 0.31,0.016 0.47,0.049 0.16,0.033 0.33,0.081 0.5,0.143 v 1.324 c 0,0.25 -0.02,0.412 -0.06,0.486 -0.03,0.073 -0.1,0.14 -0.21,0.199 -0.11,0.059 -0.24,0.089 -0.39,0.089 h -0.17 v 0.174 h 3.1 v -0.174 c -0.24,-0.015 -0.4,-0.048 -0.49,-0.096 -0.1,-0.049 -0.17,-0.129 -0.22,-0.242 -0.03,-0.059 -0.04,-0.205 -0.04,-0.436 v -1.324 c -0.41,-0.181 -0.83,-0.318 -1.27,-0.41 -0.44,-0.093 -0.89,-0.139 -1.37,-0.139 -0.6,0 -1.1,0.082 -1.5,0.247 -0.4,0.164 -0.75,0.38 -1.06,0.647 -0.3,0.268 -0.54,0.569 -0.71,0.904 -0.22,0.431 -0.33,0.915 -0.33,1.45 0,0.957 0.34,1.766 1.01,2.426 0.67,0.66 1.52,0.991 2.54,0.991 0.31,0 0.6,-0.026 0.85,-0.076 0.14,-0.025 0.36,-0.096 0.67,-0.213 0.31,-0.117 0.49,-0.176 0.55,-0.176 0.08,0 0.17,0.032 0.24,0.096 0.08,0.064 0.14,0.185 0.21,0.364 z m 5.59,0 0.05,-2.121 h -0.19 c -0.1,0.531 -0.32,0.959 -0.67,1.283 -0.36,0.324 -0.74,0.486 -1.16,0.486 -0.32,0 -0.57,-0.085 -0.75,-0.256 -0.19,-0.17 -0.28,-0.367 -0.28,-0.589 0,-0.141 0.03,-0.266 0.1,-0.375 0.09,-0.147 0.23,-0.293 0.43,-0.437 0.15,-0.103 0.49,-0.286 1.02,-0.549 0.74,-0.366 1.25,-0.712 1.51,-1.037 0.25,-0.326 0.38,-0.698 0.38,-1.117 0,-0.532 -0.21,-0.99 -0.62,-1.373 -0.41,-0.383 -0.94,-0.575 -1.58,-0.575 -0.2,0 -0.39,0.021 -0.57,0.061 -0.18,0.041 -0.4,0.118 -0.67,0.23 -0.15,0.063 -0.27,0.094 -0.37,0.094 -0.08,0 -0.17,-0.031 -0.26,-0.094 -0.09,-0.062 -0.16,-0.158 -0.22,-0.286 h -0.17 v 2.403 h 0.17 c 0.14,-0.676 0.4,-1.191 0.8,-1.547 0.39,-0.355 0.81,-0.532 1.27,-0.532 0.35,0 0.63,0.095 0.83,0.286 0.21,0.191 0.32,0.413 0.32,0.666 0,0.151 -0.04,0.296 -0.12,0.437 -0.08,0.141 -0.2,0.274 -0.37,0.401 -0.16,0.127 -0.45,0.292 -0.86,0.495 -0.58,0.285 -1,0.528 -1.25,0.728 -0.25,0.2 -0.45,0.424 -0.58,0.671 -0.14,0.247 -0.21,0.519 -0.21,0.817 0,0.506 0.19,0.938 0.56,1.295 0.37,0.356 0.84,0.535 1.41,0.535 0.21,0 0.41,-0.025 0.6,-0.075 0.15,-0.038 0.33,-0.107 0.54,-0.209 0.21,-0.102 0.36,-0.153 0.44,-0.153 0.08,0 0.15,0.025 0.19,0.075 0.05,0.051 0.09,0.171 0.14,0.362 z m 3.6,-0.512 v -2.59 h 0.13 c 0.41,0 0.7,0.126 0.88,0.38 0.18,0.253 0.3,0.627 0.35,1.121 h 0.17 v -3.332 h -0.17 c -0.04,0.363 -0.12,0.66 -0.24,0.892 -0.12,0.232 -0.26,0.387 -0.42,0.467 -0.16,0.08 -0.39,0.12 -0.7,0.12 v -1.793 c 0,-0.351 0.02,-0.565 0.05,-0.643 0.03,-0.078 0.08,-0.142 0.17,-0.193 0.08,-0.05 0.21,-0.075 0.39,-0.075 h 0.38 c 0.59,0 1.07,0.138 1.43,0.413 0.36,0.276 0.62,0.695 0.77,1.258 h 0.18 l -0.29,-2.023 h -5.5 v 0.174 h 0.21 c 0.18,0 0.33,0.033 0.45,0.099 0.08,0.043 0.14,0.118 0.18,0.225 0.04,0.075 0.05,0.272 0.05,0.591 v 4.187 c 0,0.287 0,0.464 -0.02,0.53 -0.03,0.109 -0.09,0.194 -0.17,0.253 -0.12,0.088 -0.28,0.132 -0.49,0.132 h -0.21 v 0.173 h 5.33 v -1.882 h -0.18 c -0.09,0.46 -0.22,0.79 -0.39,0.991 -0.16,0.2 -0.39,0.347 -0.69,0.441 -0.18,0.056 -0.51,0.084 -0.99,0.084 z m 8.5,0.512 0.06,-2.121 h -0.2 c -0.09,0.531 -0.31,0.959 -0.67,1.283 -0.35,0.324 -0.73,0.486 -1.15,0.486 -0.32,0 -0.57,-0.085 -0.76,-0.256 -0.18,-0.17 -0.27,-0.367 -0.27,-0.589 0,-0.141 0.03,-0.266 0.09,-0.375 0.09,-0.147 0.24,-0.293 0.44,-0.437 0.15,-0.103 0.49,-0.286 1.02,-0.549 0.74,-0.366 1.25,-0.712 1.51,-1.037 0.25,-0.326 0.38,-0.698 0.38,-1.117 0,-0.532 -0.21,-0.99 -0.62,-1.373 -0.42,-0.383 -0.94,-0.575 -1.58,-0.575 -0.2,0 -0.39,0.021 -0.57,0.061 -0.18,0.041 -0.4,0.118 -0.67,0.23 -0.15,0.063 -0.27,0.094 -0.37,0.094 -0.08,0 -0.17,-0.031 -0.26,-0.094 -0.09,-0.062 -0.16,-0.158 -0.22,-0.286 h -0.17 v 2.403 h 0.17 c 0.14,-0.676 0.4,-1.191 0.8,-1.547 0.39,-0.355 0.81,-0.532 1.27,-0.532 0.35,0 0.63,0.095 0.83,0.286 0.21,0.191 0.32,0.413 0.32,0.666 0,0.151 -0.04,0.296 -0.12,0.437 -0.08,0.141 -0.21,0.274 -0.37,0.401 -0.16,0.127 -0.45,0.292 -0.86,0.495 -0.58,0.285 -1,0.528 -1.25,0.728 -0.25,0.2 -0.45,0.424 -0.58,0.671 -0.14,0.247 -0.21,0.519 -0.21,0.817 0,0.506 0.19,0.938 0.56,1.295 0.37,0.356 0.84,0.535 1.41,0.535 0.2,0 0.4,-0.025 0.6,-0.075 0.15,-0.038 0.32,-0.107 0.54,-0.209 0.21,-0.102 0.36,-0.153 0.44,-0.153 0.08,0 0.15,0.025 0.19,0.075 0.05,0.051 0.09,0.171 0.13,0.362 z"
           style="fill:#000000;fill-opacity:1;fill-rule:evenodd;stroke:none"
           transform="matrix(1.1738935,7.9763147e-8,-4.5577467e-8,-1.1707591,-28.8812,219.73333)"
           clip-path="url(#clipPath102)"
           id="path205" />
        <path
           d="m 306.75,45.639 h 30"
           style="fill:none;stroke:#d95319;stroke-width:2.4;stroke-linecap:butt;stroke-linejoin:round;stroke-miterlimit:10;stroke-dasharray:none;stroke-opacity:1"
           transform="matrix(1.1738935,7.9763147e-8,-4.5577467e-8,-1.1707591,-28.8812,219.73333)"
           clip-path="url(#clipPath103)"
           id="path206" />
        <path
           d="m 303,37.492 v 28.5 h 100.5 v -28.5 z m 99.75,1.5 -0.75,-0.75 v 27 l 0.75,-0.75 h -99 l 0.75,0.75 v -27 l -0.75,0.75 z"
           style="fill:#262626;fill-opacity:1;fill-rule:nonzero;stroke:none"
           transform="matrix(1.1738935,7.9763147e-8,-4.5577467e-8,-1.1707591,-28.8812,219.73333)"
           clip-path="url(#clipPath104)"
           id="path207" />
      </g>
    </g>
  </g>
</svg>
