<?xml version="1.0" encoding="UTF-8" standalone="no"?>
<!-- Created with Inkscape (http://www.inkscape.org/) -->

<svg
   version="1.1"
   id="svg1"
   width="771.40802"
   height="211.06667"
   viewBox="0 0 771.40802 211.06667"
   sodipodi:docname="Fig_6_Grid_connected_DFIG_system_topology.svg"
   inkscape:version="1.4 (86a8ad7, 2024-10-11)"
   xmlns:inkscape="http://www.inkscape.org/namespaces/inkscape"
   xmlns:sodipodi="http://sodipodi.sourceforge.net/DTD/sodipodi-0.dtd"
   xmlns="http://www.w3.org/2000/svg"
   xmlns:svg="http://www.w3.org/2000/svg">
  <defs
     id="defs1">
    <clipPath
       clipPathUnits="userSpaceOnUse"
       id="clipPath1">
      <path
         d="M 0,0 H 1122 V 793 H 0 Z"
         id="path1" />
    </clipPath>
  </defs>
  <sodipodi:namedview
     id="namedview1"
     pagecolor="#ffffff"
     bordercolor="#000000"
     borderopacity="0.25"
     inkscape:showpageshadow="2"
     inkscape:pageopacity="0.0"
     inkscape:pagecheckerboard="0"
     inkscape:deskcolor="#d1d1d1"
     inkscape:zoom="1.5659676"
     inkscape:cx="442.53788"
     inkscape:cy="138.25318"
     inkscape:window-width="2560"
     inkscape:window-height="1377"
     inkscape:window-x="-8"
     inkscape:window-y="-8"
     inkscape:window-maximized="1"
     inkscape:current-layer="g1">
    <inkscape:page
       x="0"
       y="0"
       inkscape:label="1"
       id="page1"
       width="771.40802"
       height="211.06667"
       margin="0"
       bleed="0" />
  </sodipodi:namedview>
  <g
     id="g1"
     inkscape:groupmode="layer"
     inkscape:label="1"
     clip-path="url(#clipPath1)">
    <g
       id="g2">
      <path
         id="path2"
         d="m 137.01,410.72 c 3.39,0 6.14,2.72 6.14,6.06 0,3.35 -2.74,6.06 -6.14,6.06 -3.4,0 -6.14,-2.72 -6.14,-6.07 0,-3.33 2.74,-6.05 6.14,-6.05 z m -2.6,-4.43 -3.8,-33.66 h 12.66 l -3.8,33.66 h -5.06 z m 28.41,-1.09 c -5.11,3.7 -10.39,7.16 -15.83,10.37 -0.23,0.14 -0.52,0.15 -0.77,0.03 -0.25,-0.11 -0.42,-0.33 -0.46,-0.6 -0.36,-2.1 -1.49,-3.99 -3.17,-5.29 -0.21,-0.17 -0.33,-0.43 -0.31,-0.71 0.02,-0.26 0.18,-0.51 0.42,-0.65 10.55,-5.74 23.01,-11.87 26.58,-11.96 0.39,0.01 0.92,0.06 1.3,0.59 0.11,0.19 0.17,0.41 0.17,0.62 -0.32,1.97 -3.4,4.12 -7.93,7.6 z m -28.81,19.27 c -0.44,-0.16 -0.91,0.07 -1.07,0.5 -0.03,0.09 -0.05,0.18 -0.05,0.28 0.16,9.85 1,20.09 2.19,24.78 0.53,1.5 0.52,2.66 2.05,2.99 1.54,-0.34 1.52,-1.48 2.05,-2.99 0.41,-1.57 0.76,-3.74 1.06,-6.32 0.61,-5.14 1.03,-11.91 1.13,-18.46 0,-0.27 -0.13,-0.53 -0.36,-0.68 -0.13,-0.1 -0.3,-0.16 -0.47,-0.16 -0.1,0 -0.2,0.02 -0.29,0.06 -1,0.38 -2.05,0.58 -3.12,0.59 -1.09,0 -2.14,-0.22 -3.12,-0.59 z m -2.24,-15.33 c -0.03,-0.27 -0.19,-0.51 -0.43,-0.64 -10.48,-5.7 -22.46,-11.27 -26.05,-11.35 -0.42,0.01 -0.96,0.03 -1.35,0.6 -0.12,0.19 -0.18,0.4 -0.18,0.62 0.32,1.98 3.32,4 7.76,7.33 4.41,3.16 10.19,6.87 15.72,10.12 0.39,0.24 0.89,0.12 1.12,-0.27 0.06,-0.09 0.1,-0.2 0.11,-0.31 0.3,-2.11 1.37,-4.02 3.01,-5.39 0.2,-0.17 0.32,-0.44 0.29,-0.71 z"
         style="fill:#ffffff;fill-opacity:1;fill-rule:evenodd;stroke:#000000;stroke-width:1.5;stroke-linecap:round;stroke-linejoin:round;stroke-miterlimit:10;stroke-dasharray:none;stroke-opacity:1"
         transform="matrix(1.3333333,0,0,-1.3333333,-136.01333,606.36)" />
      <path
         id="path3"
         d="m 200.59,419 c 0,16.63 13.48,30.1 30.1,30.1 16.62,0 30.1,-13.47 30.1,-30.1 0,-16.62 -13.48,-30.1 -30.1,-30.1 -16.62,0 -30.1,13.48 -30.1,30.1 z"
         style="fill:#ffffff;fill-opacity:1;fill-rule:evenodd;stroke:#000000;stroke-width:1.5;stroke-linecap:round;stroke-linejoin:round;stroke-miterlimit:10;stroke-dasharray:none;stroke-opacity:1"
         transform="matrix(1.3333333,0,0,-1.3333333,-136.01333,606.36)" />
      <path
         id="path4"
         d="m 206.57,419 c 0,13.32 10.8,24.12 24.12,24.12 13.32,0 24.11,-10.8 24.11,-24.12 0,-13.32 -10.79,-24.11 -24.11,-24.11 -13.32,0 -24.12,10.79 -24.12,24.11 z"
         style="fill:#ffffff;fill-opacity:1;fill-rule:evenodd;stroke:#000000;stroke-width:1.5;stroke-linecap:round;stroke-linejoin:round;stroke-miterlimit:10;stroke-dasharray:none;stroke-opacity:1"
         transform="matrix(1.3333333,0,0,-1.3333333,-136.01333,606.36)" />
    </g>
    <g
       id="g4">
      <text
         id="text4"
         xml:space="preserve"
         transform="matrix(1.3333333,0,0,1.3333333,150.05333,53.586667)"><tspan
           id="tspan4"
           style="font-variant:normal;font-weight:normal;font-size:14.275px;font-family:'Times New Roman';writing-mode:lr-tb;fill:#000000;fill-opacity:1;fill-rule:nonzero;stroke:none"
           x="0"
           dx="0 -0.55672503 0.299775 -0.25694999"
           y="0">DFIG</tspan></text>
      <path
         id="path5"
         d="m 325.98,406.77 c 6.73,-3.95 15.38,-1.69 19.33,5.07 3.94,6.75 1.68,15.43 -5.05,19.39 -4.41,2.59 -9.87,2.59 -14.28,0 -6.73,3.95 -15.38,1.68 -19.32,-5.07 -3.94,-6.75 -1.68,-15.43 5.05,-19.39 4.41,-2.58 9.86,-2.58 14.27,0 z"
         style="fill:#ffffff;fill-opacity:1;fill-rule:evenodd;stroke:#000000;stroke-width:1.5;stroke-linecap:round;stroke-linejoin:round;stroke-miterlimit:10;stroke-dasharray:none;stroke-opacity:1"
         transform="matrix(1.3333333,0,0,-1.3333333,-136.01333,606.36)" />
      <path
         id="path6"
         d="m 325.98,406.69 c 6.78,3.92 9.1,12.62 5.18,19.42 -1.24,2.16 -3.03,3.96 -5.18,5.21 -6.78,-3.93 -9.1,-12.63 -5.19,-19.43 1.25,-2.16 3.03,-3.95 5.19,-5.2 z"
         style="fill:#ffffff;fill-opacity:1;fill-rule:evenodd;stroke:#000000;stroke-width:1.5;stroke-linecap:round;stroke-linejoin:round;stroke-miterlimit:10;stroke-dasharray:none;stroke-opacity:1"
         transform="matrix(1.3333333,0,0,-1.3333333,-136.01333,606.36)" />
      <path
         id="path7"
         d="m 260.79,419 h 43.93"
         style="fill:none;stroke:#000000;stroke-width:1.5;stroke-linecap:round;stroke-linejoin:round;stroke-miterlimit:10;stroke-dasharray:none;stroke-opacity:1"
         transform="matrix(1.3333333,0,0,-1.3333333,-136.01333,606.36)" />
      <path
         id="path8"
         d="m 620.79,418.47 c 0,9.69 7.85,17.54 17.54,17.54 9.68,0 17.54,-7.85 17.54,-17.54 0,-9.69 -7.86,-17.54 -17.54,-17.54 -9.69,0 -17.54,7.85 -17.54,17.54 z"
         style="fill:#ffffff;fill-opacity:1;fill-rule:evenodd;stroke:none"
         transform="matrix(1.3333333,0,0,-1.3333333,-136.01333,606.36)" />
      <path
         id="path9"
         d="m 638.33,418.47 c 0,-3.23 2.62,-5.85 5.84,-5.85 3.23,0 5.85,2.62 5.85,5.85 m -23.39,0 c 0,3.23 2.62,5.85 5.85,5.85 3.23,0 5.85,-2.62 5.85,-5.85 m -17.54,0 c 0,9.69 7.85,17.54 17.54,17.54 9.68,0 17.54,-7.85 17.54,-17.54 0,-9.69 -7.86,-17.54 -17.54,-17.54 -9.69,0 -17.54,7.85 -17.54,17.54 z"
         style="fill:none;stroke:#000000;stroke-width:1.5;stroke-linecap:round;stroke-linejoin:round;stroke-miterlimit:10;stroke-dasharray:none;stroke-opacity:1"
         transform="matrix(1.3333333,0,0,-1.3333333,-136.01333,606.36)" />
    </g>
    <g
       id="g9">
      <text
         id="text9"
         xml:space="preserve"
         transform="matrix(1.3333333,0,0,1.3333333,700.01333,93.52)"><tspan
           id="tspan9"
           style="font-variant:normal;font-weight:normal;font-size:14.275px;font-family:'Times New Roman';writing-mode:lr-tb;fill:#000000;fill-opacity:1;fill-rule:nonzero;stroke:none"
           x="0"
           dx="0 -0.55672503 0.48535001 -0.21412501"
           y="0">Grid</tspan></text>
      <path
         id="path10"
         d="M 206.57,419 H 142.73"
         style="fill:none;stroke:#000000;stroke-width:1.5;stroke-linecap:round;stroke-linejoin:round;stroke-miterlimit:10;stroke-dasharray:none;stroke-opacity:1"
         transform="matrix(1.3333333,0,0,-1.3333333,-136.01333,606.36)" />
      <path
         id="path11"
         d="m 516.28,418.98 -2.01,-4.79 -4.06,9.63 -4.02,-9.63 -4.06,9.63 -4.02,-9.63 -4.02,9.63 -2.02,-4.84"
         style="fill:none;stroke:#000000;stroke-width:1.5;stroke-linecap:round;stroke-linejoin:round;stroke-miterlimit:10;stroke-dasharray:none;stroke-opacity:1"
         transform="matrix(1.3333333,0,0,-1.3333333,-136.01333,606.36)" />
      <path
         id="path12"
         d="m 534.99,419.18 c -0.12,3.06 1.97,5.66 4.66,5.77 2.68,0.12 4.92,-2.27 5.04,-5.34 0,-0.16 0,-0.31 0,-0.43 -0.12,3.06 1.97,5.66 4.66,5.77 2.68,0.12 4.92,-2.27 5.04,-5.34 0,-0.16 0,-0.31 0,-0.43 -0.12,3.06 1.97,5.66 4.62,5.77 2.68,0.12 4.96,-2.27 5.04,-5.34 0,-0.16 0,-0.31 0,-0.43 -0.08,3.06 1.97,5.66 4.66,5.77 2.68,0.12 4.92,-2.27 5.04,-5.34 0,-0.16 0,-0.31 0,-0.43"
         style="fill:none;stroke:#000000;stroke-width:1.5;stroke-linecap:round;stroke-linejoin:round;stroke-miterlimit:10;stroke-dasharray:none;stroke-opacity:1"
         transform="matrix(1.3333333,0,0,-1.3333333,-136.01333,606.36)" />
      <path
         id="path13"
         d="M 347.24,419 H 492.07"
         style="fill:none;stroke:#000000;stroke-width:1.5;stroke-linecap:round;stroke-linejoin:round;stroke-miterlimit:10;stroke-dasharray:none;stroke-opacity:1"
         transform="matrix(1.3333333,0,0,-1.3333333,-136.01333,606.36)" />
      <path
         id="path14"
         d="m 516.28,418.98 18.19,0.03"
         style="fill:none;stroke:#000000;stroke-width:1.5;stroke-linecap:round;stroke-linejoin:round;stroke-miterlimit:10;stroke-dasharray:none;stroke-opacity:1"
         transform="matrix(1.3333333,0,0,-1.3333333,-136.01333,606.36)" />
      <path
         id="path15"
         d="m 574.02,419.29 h 46.79"
         style="fill:none;stroke:#000000;stroke-width:1.5;stroke-linecap:round;stroke-linejoin:round;stroke-miterlimit:10;stroke-dasharray:none;stroke-opacity:1"
         transform="matrix(1.3333333,0,0,-1.3333333,-136.01333,606.36)" />
      <path
         id="path16"
         d="M 400.68,419 V 381.27"
         style="fill:none;stroke:#000000;stroke-width:1.5;stroke-linecap:round;stroke-linejoin:round;stroke-miterlimit:10;stroke-dasharray:none;stroke-opacity:1"
         transform="matrix(1.3333333,0,0,-1.3333333,-136.01333,606.36)" />
      <path
         id="path17"
         d="m 394.02,380.36 6.75,-13.52 6.76,13.52 z"
         style="fill:#000000;fill-opacity:1;fill-rule:evenodd;stroke:#000000;stroke-width:1.5;stroke-linecap:round;stroke-linejoin:round;stroke-miterlimit:10;stroke-dasharray:none;stroke-opacity:1"
         transform="matrix(1.3333333,0,0,-1.3333333,-136.01333,606.36)" />
      <path
         id="path18"
         d="m 445.04,382.11 7.31,8.55 c 1,-3.27 2.04,-6.44 3.14,-9.5 l -1.9,-3.09 4.27,-6.41 -1.42,-2.37 3.8,-8.08 -6.65,3.33 0.95,2.37 c -1.58,2.07 -3.17,4.12 -4.75,6.17 l 0.95,4.04 z"
         style="fill:#ffff00;fill-opacity:1;fill-rule:evenodd;stroke:#000000;stroke-width:1.5;stroke-linecap:round;stroke-linejoin:round;stroke-miterlimit:10;stroke-dasharray:none;stroke-opacity:1"
         transform="matrix(1.3333333,0,0,-1.3333333,-136.01333,606.36)" />
      <path
         id="path19"
         d="m 460.87,350.97 h 10.208 v 29.443 H 460.87 Z"
         style="fill:#ffffff;fill-opacity:1;fill-rule:evenodd;stroke:#000000;stroke-width:1.5;stroke-linecap:round;stroke-linejoin:round;stroke-miterlimit:10;stroke-dasharray:none;stroke-opacity:1"
         transform="matrix(1.3333333,0,0,-1.3333333,-136.01333,606.36)" />
      <path
         id="path20"
         d="m 463.32,317.85 h 4.42 m -6.63,2.21 h 8.84 m -11.04,2.21 h 13.24 m -6.62,28.7 v -28.7"
         style="fill:none;stroke:#000000;stroke-width:1.5;stroke-linecap:round;stroke-linejoin:round;stroke-miterlimit:10;stroke-dasharray:none;stroke-opacity:1"
         transform="matrix(1.3333333,0,0,-1.3333333,-136.01333,606.36)" />
      <path
         id="path21"
         d="m 465.46,380.41 v 37.7"
         style="fill:none;stroke:#000000;stroke-width:1.5;stroke-linecap:round;stroke-linejoin:round;stroke-miterlimit:10;stroke-dasharray:none;stroke-opacity:1"
         transform="matrix(1.3333333,0,0,-1.3333333,-136.01333,606.36)" />
    </g>
    <g
       id="g21">
      <text
         id="text21"
         xml:space="preserve"
         transform="matrix(-5.8666667e-8,1.3333333,-1.3333333,-5.8666667e-8,503.96,131.76)"><tspan
           id="tspan21"
           style="font-variant:normal;font-weight:normal;font-size:14.25px;font-family:'Times New Roman';writing-mode:lr-tb;fill:#000000;fill-opacity:1;fill-rule:nonzero;stroke:none"
           x="0"
           dx="0 -0.42750001 0.41325 -0.3705 -0.21375"
           y="0">Fault</tspan></text>
    </g>
    <g
       id="g22">
      <text
         id="text22"
         xml:space="preserve"
         transform="matrix(1.3333333,0,0,1.3333333,256.98667,91.586667)"><tspan
           id="tspan22"
           style="font-variant:normal;font-weight:normal;font-size:14.25px;font-family:'Times New Roman';writing-mode:lr-tb;fill:#000000;fill-opacity:1;fill-rule:nonzero;stroke:none"
           x="0"
           dx="0 -0.54149997 0.31349999 -0.24225"
           y="0">DFIG</tspan></text>
    </g>
    <g
       id="g23">
      <text
         id="text23"
         xml:space="preserve"
         transform="matrix(1.3333333,0,0,1.3333333,300.58667,91.586667)"><tspan
           id="tspan23"
           style="font-variant:normal;font-weight:normal;font-size:14.25px;font-family:'Times New Roman';writing-mode:lr-tb;fill:#000000;fill-opacity:1;fill-rule:nonzero;stroke:none"
           x="0"
           y="0">-</tspan></text>
    </g>
    <g
       id="g24">
      <text
         id="text24"
         xml:space="preserve"
         transform="matrix(1.3333333,0,0,1.3333333,306.78667,91.586667)"><tspan
           id="tspan24"
           style="font-variant:normal;font-weight:normal;font-size:14.25px;font-family:'Times New Roman';writing-mode:lr-tb;fill:#000000;fill-opacity:1;fill-rule:nonzero;stroke:none"
           x="0"
           dx="0 -0.51300001 0.51300001 -0.18525 -0.35624999"
           y="0">Grid </tspan></text>
    </g>
    <g
       id="g25">
      <text
         id="text25"
         xml:space="preserve"
         transform="matrix(1.3333333,0,0,1.3333333,252.32,114.02667)"><tspan
           id="tspan25"
           style="font-variant:normal;font-weight:normal;font-size:14.25px;font-family:'Times New Roman';writing-mode:lr-tb;fill:#000000;fill-opacity:1;fill-rule:nonzero;stroke:none"
           x="0"
           dx="0 -0.42750001 0.51300001 -0.29925001 -0.35624999 0.47025001 -0.21375 -0.35624999 -0.21375 0.171 -0.29925001"
           y="0">Transformer</tspan></text>
    </g>
    <g
       id="g26">
      <text
         id="text26"
         xml:space="preserve"
         transform="matrix(1.3333333,0,0,1.3333333,379.62667,144.42667)"><tspan
           id="tspan26"
           style="font-variant:normal;font-weight:normal;font-size:14.25px;font-family:'Times New Roman';writing-mode:lr-tb;fill:#000000;fill-opacity:1;fill-rule:nonzero;stroke:none"
           x="0"
           dx="0 -0.456 0.35624999 -0.32775"
           y="0">Load</tspan></text>
    </g>
    <g
       id="g27">
      <text
         id="text27"
         xml:space="preserve"
         transform="matrix(1.3333333,0,0,1.3333333,507.45333,83.16)"><tspan
           id="tspan27"
           style="font-variant:normal;font-weight:normal;font-size:14.25px;font-family:'Times New Roman';writing-mode:lr-tb;fill:#000000;fill-opacity:1;fill-rule:nonzero;stroke:none"
           x="0"
           dx="0 -0.456 0.48449999 -0.32775 -0.3705 0.44174999 -0.58424997 -0.21375 -0.29925001 0.44174999 -0.21375 -0.3705 0.35624999 -0.55575001 0.285 -0.21375 -0.3705"
           y="0">Transmission Line</tspan></text>
    </g>
  </g>
</svg>
