<?xml version="1.0" encoding="utf-8"?>
<!-- Generator: Adobe Illustrator 24.3.0, SVG Export Plug-In . SVG Version: 6.00 Build 0)  -->
<svg version="1.1" id="Layer_1" xmlns="http://www.w3.org/2000/svg" xmlns:xlink="http://www.w3.org/1999/xlink" x="0px" y="0px"
	 viewBox="0 0 792 612" style="enable-background:new 0 0 792 612;" xml:space="preserve">
<style type="text/css">
	.st0{fill:#A89968;}
	.st1{fill:#BA0C2F;}
</style>
<g>
	<g>
		<g>
			<path d="M403.8,323.57c1.38-1.67,1.71-3.57,1.71-7.04v-22.03h-3.33c-4.19,0-6.38,0.86-7.47,2.47h-0.24v-6.23h27.74l0.38,6.23
				h-0.28c-1.1-1.62-3.24-2.47-7.42-2.47h-3.72v22.03c0,3.47,0.38,5.38,1.71,7.04v0.24h-9.09V323.57z"/>
			<path d="M441.24,290.73H449v0.24c-2.19,1.95-3.71,4.19-5.47,7.18l-7.57,12.42v5.9c0,3.52,0.33,5.38,1.48,7.09v0.24h-8.61v-0.24
				c1.14-1.71,1.48-3.57,1.48-7.09v-5.9l-7.42-12.66c-1.81-3.05-3.14-5.09-5.04-6.95v-0.24h9.47v0.19c-0.52,2,0.43,4.19,1.95,6.85
				l4.66,8.14h0.24l4.81-8.04c1.81-3,2.62-5.04,2.28-6.9V290.73z"/>
		</g>
		<path d="M178.91,310.15v-12.18c0-3.43-0.33-5.33-1.47-6.99v-0.24h8.61v0.24c-1.14,1.67-1.47,3.57-1.47,6.99v12.23
			c0,5.76,2.9,9.61,8.52,9.61c5.42,0,8.52-3.57,8.52-9.56v-12.23c0-3.47-0.33-5.47-1.43-7.04v-0.24h7.28v0.24
			c-1.14,1.57-1.48,3.62-1.48,7.04v12.08c0,8.95-4.85,14.32-13.47,14.32S178.91,319.19,178.91,310.15z"/>
		<path d="M212.13,323.57c1.19-1.57,1.47-3.76,1.47-7.14v-23.74l-1.19-1.81v-0.14h8.42l15.13,25.07h0.28v-17.79
			c0-3.33-0.28-5.47-1.47-7.04v-0.24h7.28v0.24c-1.19,1.57-1.47,3.71-1.47,7.04v25.79h-6.09l-16.27-26.74h-0.29v19.36
			c0,3.38,0.29,5.57,1.48,7.14v0.24h-7.28V323.57z"/>
		<path d="M248.15,323.57c1.09-1.66,1.43-3.57,1.43-6.99v-18.6c0-3.43-0.33-5.33-1.43-6.99v-0.24h8.61v0.24
			c-1.19,1.67-1.48,3.57-1.48,6.99v18.6c0,3.43,0.29,5.33,1.48,6.99v0.24h-8.61V323.57z"/>
		<path d="M278.74,323.8h-5.04l-9.42-25.74c-1.09-3-2-5.28-3.52-7.09v-0.24h8.99v0.24c-1.09,1.81-0.52,4.19,0.62,7.33l6.57,18.41
			h0.24l6.99-18.56c1.29-3.33,1.76-5.38,0.95-7.18v-0.24h7.33v0.24c-1.71,1.86-2.62,4.04-3.85,7.33L278.74,323.8z"/>
		<path d="M320,317.09v6.71h-24.31v-0.24c1.19-1.66,1.48-3.62,1.48-7.14v-18.51c0-3.38-0.33-5.33-1.48-6.95v-0.24h23.6v6.09h-0.24
			c-1.28-1.67-3.14-2.28-7.33-2.28h-8.85v10.66h6.8c3.81,0,5.33-0.57,6.52-1.71h0.29v7.28h-0.29c-1.14-1.24-2.76-1.76-6.52-1.76
			h-6.8V320h9.56c3.71,0,5.9-0.62,7.28-2.9H320z"/>
		<path d="M354.31,323.71v0.09h-7.14l-11.9-15.23h-2.9v7.9c0,3.52,0.28,5.42,1.43,7.09v0.24h-8.56v-0.24
			c1.19-1.66,1.47-3.57,1.47-7.09v-18.56c0-3.24-0.24-5.28-1.47-6.95v-0.24h12.04c7.33,0,11.94,3.43,11.94,8.75
			c0,4.04-2.85,7.18-7.71,8.37L354.31,323.71z M332.37,304.87h4c4.43,0,6.9-2,6.9-5.33c0-3.43-2.57-5.09-6.85-5.09h-4.04V304.87z"/>
		<path d="M354.83,321.23V315h0.29c2.52,3.76,5.95,5.52,9.33,5.52c3.19,0,6.23-1.62,6.23-4.9c0-2.28-1.43-3.57-4.19-4.81l-4.38-2.05
			c-4.38-2-6.52-5-6.52-8.75c0-5.57,4.85-9.9,11.56-9.9c3.28,0,6.33,0.95,8.23,2.24v6h-0.29c-1.76-2.85-4.76-4.38-7.85-4.38
			c-3.43,0-6.09,1.76-6.09,4.9c0,2.05,1.14,3.52,4.04,4.85l4.61,2.14c4.19,1.9,6.47,4.52,6.47,8.61c0,5.9-5.14,9.94-11.66,9.94
			C361.02,324.42,357.55,323.28,354.83,321.23z"/>
		<path d="M381.72,323.57c1.09-1.66,1.43-3.57,1.43-6.99v-18.6c0-3.43-0.33-5.33-1.43-6.99v-0.24h8.61v0.24
			c-1.19,1.67-1.48,3.57-1.48,6.99v18.6c0,3.43,0.29,5.33,1.48,6.99v0.24h-8.61V323.57z"/>
		<path d="M455.94,307.28c0-6.83,4.75-11.74,11.45-11.74c6.73,0,11.45,4.91,11.45,11.74c0,6.86-4.72,11.71-11.45,11.71
			C460.72,319,455.94,314.15,455.94,307.28z M474.61,307.28c0-5.4-2.8-9.04-7.22-9.04c-4.43,0-7.19,3.64-7.19,9.04
			c0,5.4,2.77,8.98,7.19,8.98C471.82,316.26,474.61,312.68,474.61,307.28z"/>
		<path d="M481.83,318.41c0.78-0.98,1.01-1.89,1.01-4.13v-14.06c0-2.21-0.23-3.16-1.01-4.1v-0.16h15.1v4.16h-0.2
			c-0.72-1.14-2.15-1.56-5.01-1.56h-4.98v7.61h4.16c2.57,0,3.81-0.32,4.46-1.2h0.2v4.98h-0.2c-0.65-0.81-1.89-1.17-4.46-1.17h-4.16
			v5.5c0,2.24,0.2,3.16,1.14,4.13v0.16h-6.05V318.41z"/>
		<path d="M512.42,297.92c0-3.38-0.29-5.28-1.43-6.95v-0.24h12.42c10.99,0,18.08,6.57,18.08,16.51c0,9.94-7.09,16.56-18.08,16.56
			h-12.42v-0.24c1.28-1.66,1.43-3.71,1.43-7.23V297.92z M518.13,320.09h4.04c7.8,0,13.08-3.81,13.08-12.85
			c0-8.99-5.28-12.8-13.08-12.8h-4.04V320.09z"/>
		<path d="M569.95,317.09v6.71h-24.31v-0.24c1.19-1.66,1.48-3.62,1.48-7.14v-18.51c0-3.38-0.33-5.33-1.48-6.95v-0.24h23.6v6.09H569
			c-1.28-1.67-3.14-2.28-7.33-2.28h-8.85v10.66h6.8c3.81,0,5.33-0.57,6.52-1.71h0.29v7.28h-0.29c-1.14-1.24-2.76-1.76-6.52-1.76
			h-6.8V320h9.56c3.71,0,5.9-0.62,7.28-2.9H569.95z"/>
		<path d="M575.09,323.57c1.19-1.57,1.48-3.76,1.48-7.14v-23.74l-1.19-1.81v-0.14h8.42l15.13,25.07h0.28v-17.79
			c0-3.33-0.28-5.47-1.47-7.04v-0.24h7.28v0.24c-1.19,1.57-1.47,3.71-1.47,7.04v25.79h-6.09l-16.27-26.74h-0.28v19.36
			c0,3.38,0.28,5.57,1.47,7.14v0.24h-7.28V323.57z"/>
		<path d="M626.24,323.8h-5.04l-9.42-25.74c-1.09-3-2-5.28-3.52-7.09v-0.24h8.99v0.24c-1.09,1.81-0.52,4.19,0.62,7.33l6.57,18.41
			h0.24l6.99-18.56c1.28-3.33,1.76-5.38,0.95-7.18v-0.24h7.33v0.24c-1.71,1.86-2.62,4.04-3.85,7.33L626.24,323.8z"/>
		<path d="M667.5,317.09v6.71h-24.31v-0.24c1.19-1.66,1.48-3.62,1.48-7.14v-18.51c0-3.38-0.33-5.33-1.48-6.95v-0.24h23.6v6.09h-0.24
			c-1.28-1.67-3.14-2.28-7.33-2.28h-8.85v10.66h6.8c3.81,0,5.33-0.57,6.52-1.71h0.29v7.28h-0.29c-1.14-1.24-2.76-1.76-6.52-1.76
			h-6.8V320h9.56c3.71,0,5.9-0.62,7.28-2.9H667.5z"/>
		<path d="M701.71,323.71v0.09h-7.14l-11.9-15.23h-2.9v7.9c0,3.52,0.28,5.42,1.43,7.09v0.24h-8.56v-0.24
			c1.19-1.66,1.47-3.57,1.47-7.09v-18.56c0-3.24-0.24-5.28-1.47-6.95v-0.24h12.04c7.33,0,11.94,3.43,11.94,8.75
			c0,4.04-2.85,7.18-7.71,8.37L701.71,323.71z M679.78,304.87h4c4.43,0,6.9-2,6.9-5.33c0-3.43-2.57-5.09-6.85-5.09h-4.04V304.87z"/>
	</g>
	<g>
		<path class="st0" d="M119.9,290.74h-13.25v2.7l1.42,0.75v18.65h11.83c0.76,0,1.37-0.61,1.37-1.37v-19.35
			C121.27,291.35,120.65,290.74,119.9,290.74"/>
		<path class="st0" d="M142.09,290.74c-0.76,0-1.37,0.61-1.37,1.37v19.9c0,5.85-4.74,10.57-10.58,10.57h-20.36
			c2.11,3.53,5.96,5.9,10.36,5.92h21.66c6.69,0,12.12-5.43,12.12-12.12v-22.19l1.42-0.75v-2.7H142.09z"/>
		<path class="st1" d="M128.68,283.5H90.29v2.7l1.97,1.04v29.4l-1.97,1.04v2.7h38.39c5.06,0,9.16-4.1,9.16-9.16v-18.56
			C137.84,287.6,133.73,283.5,128.68,283.5 M124.52,311.87c0,1.81-1.47,3.28-3.28,3.28h-16.51v-26.73h16.51
			c1.81,0,3.28,1.47,3.28,3.28V311.87z"/>
	</g>
</g>
</svg>
