<svg xmlns="http://www.w3.org/2000/svg" xmlns:xlink="http://www.w3.org/1999/xlink" version="1.1" width="696" height="505.91999" viewBox="0 0 696 505.91999">
<defs>
<clipPath id="clip_0">
<path transform="matrix(.24,0,0,.24,0,0)" d="M0 0H2897.998V2108.9844H0Z" fill-rule="evenodd"/>
</clipPath>
<clipPath id="clip_1">
<path transform="matrix(.24,0,0,.24,0,0)" d="M0 0H2897.998V2108.9844H0Z" fill-rule="evenodd"/>
</clipPath>
</defs>
<g clip-path="url(#clip_0)">
<path transform="matrix(.75,0,0,.75,0,0)" d="M0 0H927V675H0Z" fill="#ffffff"/>
</g>
<g clip-path="url(#clip_1)">
<path transform="matrix(.71981129,0,0,.71981129,-150.43962,-34.910848)" d="M280 155C280 146.72 286.72 140 295 140 303.28 140 310 146.72 310 155 310 163.28 303.28 170 295 170 286.72 170 280 163.28 280 155" fill="#cdeb8b"/>
<path transform="matrix(.71981129,0,0,.71981129,-150.43962,-34.910848)" stroke-width="2" stroke-linecap="butt" stroke-miterlimit="10" stroke-linejoin="miter" fill="none" stroke="#36393d" d="M280 155C280 146.72 286.72 140 295 140 303.28 140 310 146.72 310 155 310 163.28 303.28 170 295 170 286.72 170 280 163.28 280 155"/>
<path transform="matrix(.71981129,0,0,.71981129,-150.43962,-34.910848)" stroke-width="2" stroke-linecap="butt" stroke-miterlimit="10" stroke-linejoin="miter" fill="none" stroke="#36393d" d="M295 155C295.07 157.71 297.29 159.88 300 159.88 302.71 159.88 304.93 157.71 305 155M285 155C284.96 153.19 285.9 151.49 287.46 150.57 289.03 149.65 290.97 149.65 292.54 150.57 294.1 151.49 295.04 153.19 295 155"/>
<path transform="matrix(.71981129,0,0,.71981129,-150.07971,-34.55094)" stroke-width="5" stroke-linecap="butt" stroke-miterlimit="10" stroke-linejoin="miter" fill="none" stroke="#000000" d="M260 290 549.98 289.92"/>
<text xml:space="preserve" transform="matrix(.71981129 0 0 .71981129 -150.43962 -34.910848)" font-size="15" font-family="Arial" font-weight="bold"><tspan y="294" x="247.32813">2</tspan></text>
<path transform="matrix(.71981129,0,0,.71981129,-150.07971,-34.55094)" stroke-width="3" stroke-linecap="butt" stroke-miterlimit="10" stroke-linejoin="miter" fill="none" stroke="#000000" d="M294.66 258 295 650"/>
<path transform="matrix(.71981129,0,0,.71981129,-150.43962,-34.910848)" stroke-width="2" stroke-linecap="butt" stroke-miterlimit="4" stroke-linejoin="miter" fill="none" stroke="#000000" d="M307.5 232.5C307.49998 233.32076 307.4199 234.13362 307.25978 234.93862 307.09965 235.74359 306.86256 236.52523 306.54844 237.28351 306.23435 238.0418 305.8493 238.76215 305.3933 239.44458 304.93736 240.12703 304.4192 240.75844 303.8388 241.3388 303.25843 241.91916 302.627 242.43733 301.94459 242.89333 301.26219 243.34932 300.5418 243.73438 299.78355 244.04848 299.02528 244.36257 298.24363 244.59967 297.43864 244.7598 296.63365 244.91992 295.82078 244.99999 295 245 294.17924 244.99999 293.36634 244.91992 292.56135 244.75978 291.75633 244.59966 290.97468 244.36255 290.2164 244.04846 289.45814 243.73436 288.73777 243.34932 288.05534 242.89333 287.37287 242.43733 286.7415 241.91916 286.16114 241.3388 285.58076 240.75844 285.06257 240.12703 284.6066 239.44458 284.15065 238.76215 283.7656 238.0418 283.45149 237.28351 283.1374 236.52523 282.90028 235.74359 282.74015 234.9386 282.58003 234.13362 282.49998 233.32076 282.5 232.5 282.49998 231.67923 282.58003 230.86635 282.74015 230.06136 282.90028 229.25635 283.1374 228.4747 283.45149 227.71642 283.7656 226.95813 284.15065 226.23777 284.6066 225.55535 285.06257 224.87291 285.58076 224.24152 286.16114 223.66115 286.7415 223.08078 287.37287 222.5626 288.05534 222.10662 288.73777 221.65064 289.45814 221.2656 290.2164 220.95149 290.97468 220.63739 291.75633 220.40029 292.56135 220.24018 293.36634 220.08007 294.17924 220 295 220 295.82078 220 296.63365 220.08007 297.43864 220.24018 298.24363 220.40029 299.02528 220.63739 299.78355 220.95149 300.5418 221.2656 301.26219 221.65064 301.94459 222.10662 302.627 222.5626 303.25843 223.08078 303.8388 223.66115 304.4192 224.24152 304.93739 224.87291 305.39335 225.55535 305.8493 226.23777 306.23435 226.95813 306.54844 227.71642 306.86256 228.4747 307.09965 229.25635 307.25978 230.06136 307.4199 230.86635 307.49998 231.67923 307.5 232.5Z"/>
<path transform="matrix(.71981129,0,0,.71981129,-150.43962,-34.910848)" stroke-width="2" stroke-linecap="butt" stroke-miterlimit="4" stroke-linejoin="miter" fill="none" stroke="#000000" d="M307.5 245.5C307.49998 246.32074 307.4199 247.1336 307.25978 247.9386 307.09965 248.74358 306.86256 249.52523 306.54844 250.28351 306.23435 251.04178 305.8493 251.76215 305.3933 252.4446 304.93736 253.12702 304.4192 253.75843 303.8388 254.3388 303.25843 254.91918 302.627 255.43735 301.94459 255.89333 301.26219 256.34934 300.5418 256.73439 299.78355 257.04847 299.02528 257.36259 298.24363 257.59968 297.43864 257.7598 296.63365 257.91993 295.82078 258 295 258 294.17924 258 293.36634 257.91993 292.56135 257.7598 291.75633 257.59968 290.97468 257.36259 290.2164 257.04847 289.45814 256.73439 288.73777 256.34934 288.05534 255.89334 287.37287 255.43737 286.7415 254.91918 286.16114 254.3388 285.58076 253.75843 285.06257 253.12702 284.6066 252.4446 284.15065 251.76215 283.7656 251.04178 283.45149 250.28351 283.1374 249.52523 282.90028 248.74359 282.74015 247.93862 282.58003 247.1336 282.49998 246.32074 282.5 245.5 282.49998 244.67922 282.58003 243.86634 282.74015 243.06134 282.90028 242.25635 283.1374 241.4747 283.45149 240.71642 283.7656 239.95813 284.15065 239.23778 284.6066 238.55535 285.06257 237.8729 285.58076 237.2415 286.16114 236.66114 286.7415 236.08077 287.37287 235.56259 288.05534 235.1066 288.73777 234.6506 289.45814 234.26557 290.2164 233.95146 290.97468 233.63738 291.75633 233.40029 292.56135 233.24018 293.36634 233.08007 294.17924 233 295 233 295.82078 233 296.63365 233.08007 297.43864 233.24018 298.24363 233.40029 299.02528 233.63738 299.78355 233.95146 300.5418 234.26557 301.26219 234.6506 301.94459 235.10659 302.627 235.56259 303.25843 236.08077 303.8388 236.66114 304.4192 237.2415 304.93739 237.8729 305.39335 238.55535 305.8493 239.23778 306.23435 239.95813 306.54844 240.71642 306.86256 241.4747 307.09965 242.25635 307.25978 243.06134 307.4199 243.86634 307.49998 244.67922 307.5 245.5Z"/>
<path transform="matrix(.71981129,0,0,.71981129,-150.07971,-34.55094)" stroke-width="3" stroke-linecap="butt" stroke-miterlimit="10" stroke-linejoin="miter" fill="none" stroke="#000000" d="M295 170V220"/>
<path transform="matrix(.71981129,0,0,.71981129,-150.07971,-34.55094)" stroke-width="5" stroke-linecap="butt" stroke-miterlimit="10" stroke-linejoin="miter" fill="none" stroke="#000000" d="M260 201.75H330"/>
<text xml:space="preserve" transform="matrix(.71981129 0 0 .71981129 -150.43962 -34.910848)" font-size="15" font-family="Arial" font-weight="bold"><tspan y="207" x="241.15625 249.49625">30</tspan></text>
<path transform="matrix(.71981129,0,0,.71981129,-150.07971,-34.55094)" stroke-width="5" stroke-linecap="butt" stroke-miterlimit="10" stroke-linejoin="miter" fill="none" stroke="#000000" d="M260 350H330"/>
<text xml:space="preserve" transform="matrix(.71981129 0 0 .71981129 -150.43962 -34.910848)" font-size="15" font-family="Arial" font-weight="bold"><tspan y="355" x="251.32813">1</tspan></text>
<path transform="matrix(.71981129,0,0,.71981129,-150.07971,-34.55094)" stroke-width="5" stroke-linecap="butt" stroke-miterlimit="10" stroke-linejoin="miter" fill="none" stroke="#000000" d="M230 440H330"/>
<text xml:space="preserve" transform="matrix(.71981129 0 0 .71981129 -150.43962 -34.910848)" font-size="15" font-family="Arial" font-weight="bold"><tspan y="447" x="212.15625 220.49625">39</tspan></text>
<path transform="matrix(.71981129,0,0,.71981129,-150.43962,-34.910848)" d="M240 395C240 386.72 246.72 380 255 380 263.28 380 270 386.72 270 395 270 403.28 263.28 410 255 410 246.72 410 240 403.28 240 395" fill="#cdeb8b"/>
<path transform="matrix(.71981129,0,0,.71981129,-150.43962,-34.910848)" stroke-width="2" stroke-linecap="butt" stroke-miterlimit="10" stroke-linejoin="miter" fill="none" stroke="#36393d" d="M240 395C240 386.72 246.72 380 255 380 263.28 380 270 386.72 270 395 270 403.28 263.28 410 255 410 246.72 410 240 403.28 240 395"/>
<path transform="matrix(.71981129,0,0,.71981129,-150.43962,-34.910848)" stroke-width="2" stroke-linecap="butt" stroke-miterlimit="10" stroke-linejoin="miter" fill="none" stroke="#36393d" d="M255 395C255.07 397.71 257.29 399.88 260 399.88 262.71 399.88 264.93 397.71 265 395M245 395C244.96 393.19 245.9 391.49 247.46 390.57 249.03 389.65 250.97 389.65 252.54 390.57 254.1 391.49 255.04 393.19 255 395"/>
<path transform="matrix(.71981129,0,0,.71981129,-150.07971,-34.55094)" stroke-width="3" stroke-linecap="butt" stroke-miterlimit="10" stroke-linejoin="miter" fill="none" stroke="#000000" d="M255 410V440"/>
<path transform="matrix(0,.71981129,-.71981129,0,380.06129,128.1264)" d="M242.75 465 267.75 481.25 242.75 497.5V465Z" fill="#ffff88"/>
<path transform="matrix(0,.71981129,-.71981129,0,380.06129,128.1264)" stroke-width="1" stroke-linecap="butt" stroke-miterlimit="10" stroke-linejoin="miter" fill="none" stroke="#36393d" d="M242.75 465 267.75 481.25 242.75 497.5V465Z"/>
<path transform="matrix(.71981129,0,0,.71981129,-150.07971,-34.55094)" stroke-width="3" stroke-linecap="butt" stroke-miterlimit="10" stroke-linejoin="miter" fill="none" stroke="#000000" d="M254.96 440V470"/>
<path transform="matrix(.71981129,0,0,.71981129,-150.07971,-34.55094)" stroke-width="5" stroke-linecap="butt" stroke-miterlimit="10" stroke-linejoin="miter" fill="none" stroke="#000000" d="M260 650H400"/>
<text xml:space="preserve" transform="matrix(.71981129 0 0 .71981129 -150.43962 -34.910848)" font-size="15" font-family="Arial" font-weight="bold"><tspan y="655" x="252.32813">9</tspan></text>
<path transform="matrix(.71981129,0,0,.71981129,-150.07971,-34.55094)" stroke-width="5" stroke-linecap="butt" stroke-miterlimit="10" stroke-linejoin="miter" fill="none" stroke="#000000" d="M340 600H360 500"/>
<text xml:space="preserve" transform="matrix(.71981129 0 0 .71981129 -150.43962 -34.910848)" font-size="15" font-family="Arial" font-weight="bold"><tspan y="607" x="330.32814">8</tspan></text>
<path transform="matrix(.71981129,0,0,.71981129,-150.07971,-34.55094)" stroke-width="3" stroke-linecap="butt" stroke-miterlimit="10" stroke-linejoin="miter" fill="none" stroke="#000000" d="M360 600V650"/>
<path transform="matrix(0,.71981129,-.71981129,0,647.11129,91.41603)" d="M453.75 625 478.75 641.25 453.75 657.5V625Z" fill="#ffff88"/>
<path transform="matrix(0,.71981129,-.71981129,0,647.11129,91.41603)" stroke-width="1" stroke-linecap="butt" stroke-miterlimit="10" stroke-linejoin="miter" fill="none" stroke="#36393d" d="M453.75 625 478.75 641.25 453.75 657.5V625Z"/>
<path transform="matrix(.71981129,0,0,.71981129,-150.07971,-34.55094)" stroke-width="3" stroke-linecap="butt" stroke-miterlimit="10" stroke-linejoin="miter" fill="none" stroke="#000000" d="M465.96 600V630"/>
<path transform="matrix(.71981129,0,0,.71981129,-150.07971,-34.55094)" stroke-width="5" stroke-linecap="butt" stroke-miterlimit="10" stroke-linejoin="miter" fill="none" stroke="#000000" d="M410 530H430 570"/>
<text xml:space="preserve" transform="matrix(.71981129 0 0 .71981129 -150.43962 -34.910848)" font-size="15" font-family="Arial" font-weight="bold"><tspan y="537" x="399.32814">7</tspan></text>
<path transform="matrix(0,.71981129,-.71981129,0,628.7561,8.997641)" d="M498.25 555 523.25 571.25 498.25 587.5V555Z" fill="#ffff88"/>
<path transform="matrix(0,.71981129,-.71981129,0,628.7561,8.997641)" stroke-width="1" stroke-linecap="butt" stroke-miterlimit="10" stroke-linejoin="miter" fill="none" stroke="#36393d" d="M498.25 555 523.25 571.25 498.25 587.5V555Z"/>
<path transform="matrix(.71981129,0,0,.71981129,-150.07971,-34.55094)" stroke-width="3" stroke-linecap="butt" stroke-miterlimit="10" stroke-linejoin="miter" fill="none" stroke="#000000" d="M510.46 530V560"/>
<path transform="matrix(.71981129,0,0,.71981129,-150.07971,-34.55094)" stroke-width="3" stroke-linecap="butt" stroke-miterlimit="10" stroke-linejoin="miter" fill="none" stroke="#000000" d="M360 480V600"/>
<path transform="matrix(.71981129,0,0,.71981129,-150.07971,-34.55094)" stroke-width="5" stroke-linecap="butt" stroke-miterlimit="10" stroke-linejoin="miter" fill="none" stroke="#000000" d="M392.5 420H412.5 552.5"/>
<text xml:space="preserve" transform="matrix(.71981129 0 0 .71981129 -150.43962 -34.910848)" font-size="15" font-family="Arial" font-weight="bold"><tspan y="427" x="384.32814">4</tspan></text>
<path transform="matrix(0,-.71981129,.71981129,0,-114.629009,543.9974)" d="M414 361 439 377.25 414 393.5V361Z" fill="#ffff88"/>
<path transform="matrix(0,-.71981129,.71981129,0,-114.629009,543.9974)" stroke-width="1" stroke-linecap="butt" stroke-miterlimit="10" stroke-linejoin="miter" fill="none" stroke="#36393d" d="M414 361 439 377.25 414 393.5V361Z"/>
<path transform="matrix(.71981129,0,0,.71981129,-150.07971,-34.55094)" stroke-width="3" stroke-linecap="butt" stroke-miterlimit="10" stroke-linejoin="miter" fill="none" stroke="#000000" d="M427 419V389"/>
<path transform="matrix(.71981129,0,0,.71981129,-150.07971,-34.55094)" stroke-width="5" stroke-linecap="butt" stroke-miterlimit="10" stroke-linejoin="miter" fill="none" stroke="#000000" d="M720 418.75H740L830 419"/>
<text xml:space="preserve" transform="matrix(.71981129 0 0 .71981129 -150.43962 -34.910848)" font-size="15" font-family="Arial" font-weight="bold"><tspan y="425" x="830.15628 838.4963">14</tspan></text>
<path transform="matrix(.71981129,0,0,.71981129,-150.07971,-34.55094)" stroke-width="3" stroke-linecap="butt" stroke-miterlimit="10" stroke-linejoin="miter" fill="none" stroke="#000000" d="M740 419V390H540V419"/>
<path transform="matrix(.71981129,0,0,.71981129,-150.07971,-34.55094)" stroke-width="5" stroke-linecap="butt" stroke-miterlimit="10" stroke-linejoin="miter" fill="none" stroke="#000000" d="M392.5 330H412.5 552.5"/>
<text xml:space="preserve" transform="matrix(.71981129 0 0 .71981129 -150.43962 -34.910848)" font-size="15" font-family="Arial" font-weight="bold"><tspan y="337" x="383.32814">3</tspan></text>
<path transform="matrix(0,.71981129,-.71981129,0,459.96034,-110.13113)" d="M463.75 355 488.75 371.25 463.75 387.5V355Z" fill="#ffff88"/>
<path transform="matrix(0,.71981129,-.71981129,0,459.96034,-110.13113)" stroke-width="1" stroke-linecap="butt" stroke-miterlimit="10" stroke-linejoin="miter" fill="none" stroke="#36393d" d="M463.75 355 488.75 371.25 463.75 387.5V355Z"/>
<path transform="matrix(.71981129,0,0,.71981129,-150.07971,-34.55094)" stroke-width="3" stroke-linecap="butt" stroke-miterlimit="10" stroke-linejoin="miter" fill="none" stroke="#000000" d="M475.96 330V360"/>
<path transform="matrix(.71981129,0,0,.71981129,-150.07971,-34.55094)" stroke-width="5" stroke-linecap="butt" stroke-miterlimit="10" stroke-linejoin="miter" fill="none" stroke="#000000" d="M470 200H694"/>
<text xml:space="preserve" transform="matrix(.71981129 0 0 .71981129 -150.43962 -34.910848)" font-size="15" font-family="Arial" font-weight="bold"><tspan y="207" x="452.15626 460.49626">25</tspan></text>
<path transform="matrix(0,.71981129,-.71981129,0,456.60603,-291.99867)" d="M587.75 226.34 612.75 242.59 587.75 258.84V226.34Z" fill="#ffff88"/>
<path transform="matrix(0,.71981129,-.71981129,0,456.60603,-291.99867)" stroke-width="1" stroke-linecap="butt" stroke-miterlimit="10" stroke-linejoin="miter" fill="none" stroke="#36393d" d="M587.75 226.34 612.75 242.59 587.75 258.84V226.34Z"/>
<path transform="matrix(.71981129,0,0,.71981129,-150.07971,-34.55094)" stroke-width="3" stroke-linecap="butt" stroke-miterlimit="10" stroke-linejoin="miter" fill="none" stroke="#000000" d="M599.96 201.34V231.34"/>
<path transform="matrix(.71981129,0,0,.71981129,-150.43962,-34.910848)" stroke-width="2" stroke-linecap="butt" stroke-miterlimit="4" stroke-linejoin="miter" fill="none" stroke="#000000" d="M611.5 142.5C611.5 143.32076 611.4199 144.13362 611.25979 144.93862 611.0997 145.74359 610.8625 146.52524 610.54837 147.28353 610.23428 148.04181 609.84927 148.76218 609.39328 149.44461 608.93728 150.12706 608.4191 150.75847 607.83877 151.33884 607.25839 151.91919 606.627 152.43737 605.9446 152.89337 605.26217 153.34935 604.54177 153.73439 603.78347 154.0485 603.0252 154.3626 602.2435 154.5997 601.43856 154.75981 600.63357 154.91994 599.82077 155 599 155 598.17929 155 597.36636 154.91994 596.56137 154.75981 595.75637 154.5997 594.9747 154.3626 594.21646 154.0485 593.4582 153.73439 592.7378 153.34935 592.05538 152.89337 591.3729 152.43737 590.7415 151.91919 590.16116 151.33884 589.58078 150.75847 589.06259 150.12706 588.6066 149.44461 588.15066 148.76218 587.76559 148.04181 587.4515 147.28353 587.1374 146.52524 586.90029 145.74359 586.7402 144.93862 586.58 144.13362 586.49996 143.32076 586.5 142.5 586.49996 141.67923 586.58 140.86635 586.7402 140.06136 586.90029 139.25638 587.1374 138.47475 587.4515 137.71646 587.76559 136.95818 588.15066 136.23783 588.6066 135.55538 589.06259 134.87294 589.58078 134.24153 590.16116 133.66117 590.7415 133.0808 591.3729 132.56262 592.05538 132.10663 592.7378 131.65062 593.4582 131.26558 594.21646 130.95149 594.9747 130.6374 595.75637 130.4003 596.56137 130.24019 597.36636 130.08007 598.17929 130 599 130 599.82077 130 600.63357 130.08007 601.43856 130.24019 602.2435 130.4003 603.0252 130.6374 603.78347 130.95149 604.54177 131.26558 605.26217 131.65062 605.9446 132.10663 606.627 132.56262 607.25839 133.0808 607.83877 133.66117 608.4191 134.24153 608.93728 134.87294 609.39328 135.55538 609.84927 136.23783 610.23428 136.95818 610.54837 137.71646 610.8625 138.47475 611.0997 139.25638 611.25979 140.06136 611.4199 140.86635 611.5 141.67923 611.5 142.5Z"/>
<path transform="matrix(.71981129,0,0,.71981129,-150.43962,-34.910848)" stroke-width="2" stroke-linecap="butt" stroke-miterlimit="4" stroke-linejoin="miter" fill="none" stroke="#000000" d="M611.5 155.5C611.5 156.32076 611.4199 157.13364 611.25979 157.93862 611.0997 158.7436 610.8625 159.52524 610.54837 160.28353 610.23428 161.04181 609.84927 161.76218 609.39328 162.44461 608.93728 163.12706 608.4191 163.75846 607.83877 164.33882 607.25839 164.91919 606.627 165.43737 605.9446 165.89336 605.26217 166.34935 604.54177 166.73439 603.78347 167.04848 603.0252 167.36257 602.2435 167.59967 601.43856 167.7598 600.63357 167.91992 599.82077 167.99999 599 168 598.17929 167.99999 597.36636 167.91992 596.56137 167.7598 595.75637 167.59967 594.9747 167.36257 594.21646 167.04848 593.4582 166.73439 592.7378 166.34935 592.05538 165.89336 591.3729 165.43737 590.7415 164.91919 590.16116 164.33882 589.58078 163.75846 589.06259 163.12706 588.6066 162.44461 588.15066 161.76218 587.76559 161.04181 587.4515 160.28353 587.1374 159.52524 586.90029 158.7436 586.7402 157.93862 586.58 157.13364 586.49996 156.32076 586.5 155.5 586.49996 154.67925 586.58 153.86637 586.7402 153.06137 586.90029 152.25637 587.1374 151.47473 587.4515 150.71646 587.76559 149.95818 588.15066 149.23781 588.6066 148.55536 589.06259 147.87293 589.58078 147.24153 590.16116 146.66117 590.7415 146.0808 591.3729 145.56262 592.05538 145.10662 592.7378 144.65064 593.4582 144.2656 594.21646 143.9515 594.9747 143.6374 595.75637 143.4003 596.56137 143.24019 597.36636 143.08008 598.17929 143.00002 599 143 599.82077 143.00002 600.63357 143.08008 601.43856 143.24019 602.2435 143.4003 603.0252 143.6374 603.78347 143.9515 604.54177 144.2656 605.26217 144.65064 605.9446 145.10662 606.627 145.56262 607.25839 146.0808 607.83877 146.66117 608.4191 147.24153 608.93728 147.87293 609.39328 148.55536 609.84927 149.23781 610.23428 149.95818 610.54837 150.71646 610.8625 151.47473 611.0997 152.25637 611.25979 153.06137 611.4199 153.86637 611.5 154.67925 611.5 155.5Z"/>
<path transform="matrix(.71981129,0,0,.71981129,-150.07971,-34.55094)" stroke-width="3" stroke-linecap="butt" stroke-miterlimit="10" stroke-linejoin="miter" fill="none" stroke="#000000" d="M598.92 80V130"/>
<path transform="matrix(.71981129,0,0,.71981129,-150.07971,-34.55094)" stroke-width="5" stroke-linecap="butt" stroke-miterlimit="10" stroke-linejoin="miter" fill="none" stroke="#000000" d="M565.25 111.75H635.25"/>
<text xml:space="preserve" transform="matrix(.71981129 0 0 .71981129 -150.43962 -34.910848)" font-size="15" font-family="Arial" font-weight="bold"><tspan y="118" x="548.15628 556.4963">37</tspan></text>
<path transform="matrix(.71981129,0,0,.71981129,-150.43962,-34.910848)" d="M584 65C584 56.72 590.72 50 599 50 607.28 50 614 56.72 614 65 614 73.28 607.28 80 599 80 590.72 80 584 73.28 584 65" fill="#cdeb8b"/>
<path transform="matrix(.71981129,0,0,.71981129,-150.43962,-34.910848)" stroke-width="2" stroke-linecap="butt" stroke-miterlimit="10" stroke-linejoin="miter" fill="none" stroke="#36393d" d="M584 65C584 56.72 590.72 50 599 50 607.28 50 614 56.72 614 65 614 73.28 607.28 80 599 80 590.72 80 584 73.28 584 65"/>
<path transform="matrix(.71981129,0,0,.71981129,-150.43962,-34.910848)" stroke-width="2" stroke-linecap="butt" stroke-miterlimit="10" stroke-linejoin="miter" fill="none" stroke="#36393d" d="M599 65C599.07 67.71 601.29 69.88 604 69.88 606.71 69.88 608.93 67.71 609 65M589 65C588.96 63.19 589.9 61.49 591.46 60.57 593.03 59.65 594.97 59.65 596.54 60.57 598.1 61.49 599.04 63.19 599 65"/>
<path transform="matrix(.71981129,0,0,.71981129,-150.07971,-34.55094)" stroke-width="3" stroke-linecap="butt" stroke-miterlimit="10" stroke-linejoin="miter" fill="none" stroke="#000000" d="M599.96 168 600 200"/>
<path transform="matrix(.71981129,0,0,.71981129,-150.07971,-34.55094)" stroke-width="5" stroke-linecap="butt" stroke-miterlimit="10" stroke-linejoin="miter" fill="none" stroke="#000000" d="M690.12 111.68 849 111.75"/>
<text xml:space="preserve" transform="matrix(.71981129 0 0 .71981129 -150.43962 -34.910848)" font-size="15" font-family="Arial" font-weight="bold"><tspan y="118" x="673.15628 681.4963">26</tspan></text>
<path transform="matrix(0,-.71981129,.71981129,0,344.61058,561.2729)" d="M745 54 770 70.25 745 86.5V54Z" fill="#ffff88"/>
<path transform="matrix(0,-.71981129,.71981129,0,344.61058,561.2729)" stroke-width="1" stroke-linecap="butt" stroke-miterlimit="10" stroke-linejoin="miter" fill="none" stroke="#36393d" d="M745 54 770 70.25 745 86.5V54Z"/>
<path transform="matrix(.71981129,0,0,.71981129,-150.07971,-34.55094)" stroke-width="3" stroke-linecap="butt" stroke-miterlimit="10" stroke-linejoin="miter" fill="none" stroke="#000000" d="M758 112V82"/>
<path transform="matrix(0,.71981129,-.71981129,0,646.3915,-613.2792)" d="M942.75 135 967.75 151.25 942.75 167.5V135Z" fill="#ffff88"/>
<path transform="matrix(0,.71981129,-.71981129,0,646.3915,-613.2792)" stroke-width="1" stroke-linecap="butt" stroke-miterlimit="10" stroke-linejoin="miter" fill="none" stroke="#36393d" d="M942.75 135 967.75 151.25 942.75 167.5V135Z"/>
<path transform="matrix(.71981129,0,0,.71981129,-150.07971,-34.55094)" stroke-width="3" stroke-linecap="butt" stroke-miterlimit="10" stroke-linejoin="miter" fill="none" stroke="#000000" d="M954.96 110V140"/>
<path transform="matrix(.71981129,0,0,.71981129,-150.07971,-34.55094)" stroke-width="5" stroke-linecap="butt" stroke-miterlimit="10" stroke-linejoin="miter" fill="none" stroke="#000000" d="M920.25 110H990.25"/>
<text xml:space="preserve" transform="matrix(.71981129 0 0 .71981129 -150.43962 -34.910848)" font-size="15" font-family="Arial" font-weight="bold"><tspan y="116" x="902.15628 910.4963">28</tspan></text>
<path transform="matrix(.71981129,0,0,.71981129,-150.07971,-34.55094)" stroke-width="3" stroke-linecap="butt" stroke-miterlimit="10" stroke-linejoin="miter" fill="none" stroke="#000000" d="M939 110V112 83H809V111.5"/>
<path transform="matrix(.71981129,0,0,.71981129,-150.07971,-34.55094)" stroke-width="5" stroke-linecap="butt" stroke-miterlimit="10" stroke-linejoin="miter" fill="none" stroke="#000000" d="M1049 111.75H1168"/>
<text xml:space="preserve" transform="matrix(.71981129 0 0 .71981129 -150.43962 -34.910848)" font-size="15" font-family="Arial" font-weight="bold"><tspan y="118" x="1031.1563 1039.4962">29</tspan></text>
<path transform="matrix(0,-.71981129,.71981129,0,615.25967,834.80117)" d="M1123 56 1148 72.25 1123 88.5V56Z" fill="#ffff88"/>
<path transform="matrix(0,-.71981129,.71981129,0,615.25967,834.80117)" stroke-width="1" stroke-linecap="butt" stroke-miterlimit="10" stroke-linejoin="miter" fill="none" stroke="#36393d" d="M1123 56 1148 72.25 1123 88.5V56Z"/>
<path transform="matrix(.71981129,0,0,.71981129,-150.07971,-34.55094)" stroke-width="3" stroke-linecap="butt" stroke-miterlimit="10" stroke-linejoin="miter" fill="none" stroke="#000000" d="M1136 114V84"/>
<path transform="matrix(.71981129,0,0,.71981129,-150.07971,-34.55094)" stroke-width="3" stroke-linecap="butt" stroke-miterlimit="10" stroke-linejoin="miter" fill="none" stroke="#000000" d="M1069 110V81H970.3L970.25 109.5"/>
<path transform="matrix(.71981129,0,0,.71981129,-150.07971,-34.55094)" stroke-width="5" stroke-linecap="butt" stroke-miterlimit="10" stroke-linejoin="miter" fill="none" stroke="#000000" d="M759 140H809 898"/>
<text xml:space="preserve" transform="matrix(.71981129 0 0 .71981129 -150.43962 -34.910848)" font-size="15" font-family="Arial" font-weight="bold"><tspan y="146" x="742.15628 750.4963">27</tspan></text>
<path transform="matrix(0,.71981129,-.71981129,0,603.8794,-526.58517)" d="M853 165.69 878 181.94 853 198.19V165.69Z" fill="#ffff88"/>
<path transform="matrix(0,.71981129,-.71981129,0,603.8794,-526.58517)" stroke-width="1" stroke-linecap="butt" stroke-miterlimit="10" stroke-linejoin="miter" fill="none" stroke="#36393d" d="M853 165.69 878 181.94 853 198.19V165.69Z"/>
<path transform="matrix(.71981129,0,0,.71981129,-150.07971,-34.55094)" stroke-width="3" stroke-linecap="butt" stroke-miterlimit="10" stroke-linejoin="miter" fill="none" stroke="#000000" d="M864 140.69 865 170.69"/>
<path transform="matrix(.71981129,0,0,.71981129,-150.07971,-34.55094)" stroke-width="3" stroke-linecap="butt" stroke-miterlimit="10" stroke-linejoin="miter" fill="none" stroke="#000000" d="M1089 109V50H789V109 380"/>
<path transform="matrix(.71981129,0,0,.71981129,-150.07971,-34.55094)" stroke-width="5" stroke-linecap="butt" stroke-miterlimit="10" stroke-linejoin="miter" fill="none" stroke="#000000" d="M755 379 801.25 379.31 880 380"/>
<text xml:space="preserve" transform="matrix(.71981129 0 0 .71981129 -150.43962 -34.910848)" font-size="15" font-family="Arial" font-weight="bold"><tspan y="383" x="719.15628 727.4963">15</tspan></text>
<path transform="matrix(0,.71981129,-.71981129,0,771.27877,-349.46839)" d="M846.25 405 871.25 421.25 846.25 437.5V405Z" fill="#ffff88"/>
<path transform="matrix(0,.71981129,-.71981129,0,771.27877,-349.46839)" stroke-width="1" stroke-linecap="butt" stroke-miterlimit="10" stroke-linejoin="miter" fill="none" stroke="#36393d" d="M846.25 405 871.25 421.25 846.25 437.5V405Z"/>
<path transform="matrix(.71981129,0,0,.71981129,-150.07971,-34.55094)" stroke-width="3" stroke-linecap="butt" stroke-miterlimit="10" stroke-linejoin="miter" fill="none" stroke="#000000" d="M858.46 380V410"/>
<path transform="matrix(.71981129,0,0,.71981129,-150.07971,-34.55094)" stroke-width="3" stroke-linecap="butt" stroke-miterlimit="10" stroke-linejoin="miter" fill="none" stroke="#000000" d="M790 380V610"/>
<path transform="matrix(.71981129,0,0,.71981129,-150.07971,-34.55094)" stroke-width="5" stroke-linecap="butt" stroke-miterlimit="10" stroke-linejoin="miter" fill="none" stroke="#000000" d="M760 340.09H780L960 340"/>
<text xml:space="preserve" transform="matrix(.71981129 0 0 .71981129 -150.43962 -34.910848)" font-size="15" font-family="Arial" font-weight="bold"><tspan y="346" x="961.15628 969.4963">16</tspan></text>
<path transform="matrix(.71981129,0,0,.71981129,-150.07971,-34.55094)" stroke-width="5" stroke-linecap="butt" stroke-miterlimit="10" stroke-linejoin="miter" fill="none" stroke="#000000" d="M760 300H780 850"/>
<text xml:space="preserve" transform="matrix(.71981129 0 0 .71981129 -150.43962 -34.910848)" font-size="15" font-family="Arial" font-weight="bold"><tspan y="307" x="852.15628 860.4963">17</tspan></text>
<path transform="matrix(0,-.71981129,.71981129,0,135.1455,625.33609)" d="M644 244 669 260.25 644 276.5V244Z" fill="#ffff88"/>
<path transform="matrix(0,-.71981129,.71981129,0,135.1455,625.33609)" stroke-width="1" stroke-linecap="butt" stroke-miterlimit="10" stroke-linejoin="miter" fill="none" stroke="#36393d" d="M644 244 669 260.25 644 276.5V244Z"/>
<path transform="matrix(.71981129,0,0,.71981129,-150.07971,-34.55094)" stroke-width="3" stroke-linecap="butt" stroke-miterlimit="10" stroke-linejoin="miter" fill="none" stroke="#000000" d="M657 302V272"/>
<path transform="matrix(.71981129,0,0,.71981129,-150.07971,-34.55094)" stroke-width="3" stroke-linecap="butt" stroke-miterlimit="10" stroke-linejoin="miter" fill="none" stroke="#000000" d="M510 201.75V530"/>
<path transform="matrix(.71981129,0,0,.71981129,-150.07971,-34.55094)" stroke-width="5" stroke-linecap="butt" stroke-miterlimit="10" stroke-linejoin="miter" fill="none" stroke="#000000" d="M340 480H544"/>
<text xml:space="preserve" transform="matrix(.71981129 0 0 .71981129 -150.43962 -34.910848)" font-size="15" font-family="Arial" font-weight="bold"><tspan y="486" x="331.32814">5</tspan></text>
<path transform="matrix(.71981129,0,0,.71981129,-150.07971,-34.55094)" stroke-width="5" stroke-linecap="butt" stroke-miterlimit="10" stroke-linejoin="miter" fill="none" stroke="#000000" d="M482.5 505H630"/>
<text xml:space="preserve" transform="matrix(.71981129 0 0 .71981129 -150.43962 -34.910848)" font-size="15" font-family="Arial" font-weight="bold"><tspan y="511" x="468.32814">6</tspan></text>
<path transform="matrix(.71981129,0,0,.71981129,-150.07971,-34.55094)" stroke-width="3" stroke-linecap="butt" stroke-miterlimit="10" stroke-linejoin="miter" fill="none" stroke="#000000" d="M770 300V283H683V300"/>
<path transform="matrix(.71981129,0,0,.71981129,-150.07971,-34.55094)" stroke-width="3" stroke-linecap="butt" stroke-miterlimit="10" stroke-linejoin="miter" fill="none" stroke="#000000" d="M527 330V320H627V300"/>
<path transform="matrix(.71981129,0,0,.71981129,-150.07971,-34.55094)" stroke-width="5" stroke-linecap="butt" stroke-miterlimit="10" stroke-linejoin="miter" fill="none" stroke="#000000" d="M611.5 300H631.5 701.5"/>
<text xml:space="preserve" transform="matrix(.71981129 0 0 .71981129 -150.43962 -34.910848)" font-size="15" font-family="Arial" font-weight="bold"><tspan y="307" x="702.15628 710.4963">18</tspan></text>
<path transform="matrix(.71981129,0,0,.71981129,-150.07971,-34.55094)" stroke-width="5" stroke-linecap="butt" stroke-miterlimit="10" stroke-linejoin="miter" fill="none" stroke="#000000" d="M660 468.68H779"/>
<text xml:space="preserve" transform="matrix(.71981129 0 0 .71981129 -150.43962 -34.910848)" font-size="15" font-family="Arial" font-weight="bold"><tspan y="475" x="642.15628 650.4963">12</tspan></text>
<path transform="matrix(.71981129,0,0,.71981129,-150.43962,-34.910848)" stroke-width="2" stroke-linecap="butt" stroke-miterlimit="4" stroke-linejoin="miter" fill="none" stroke="#000000" d="M755 506.25C755 507.07078 754.9199 507.88365 754.75979 508.6886 754.5996 509.49357 754.3625 510.2752 754.04849 511.0335 753.7343 511.79179 753.3493 512.51217 752.8933 513.1946 752.4373 513.877 751.9191 514.5084 751.3388 515.0888 750.7584 515.6691 750.127 516.1873 749.4446 516.6433 748.7621 517.0993 748.0417 517.4843 747.28347 517.7984 746.52517 518.1125 745.7435 518.3496 744.93856 518.50979 744.13357 518.6699 743.32077 518.75 742.5 518.75 741.67929 518.75 740.86636 518.6699 740.06137 518.50979 739.25637 518.3496 738.4747 518.1125 737.7164 517.7984 736.95809 517.4843 736.23776 517.0993 735.5553 516.6433 734.87289 516.1873 734.24148 515.6691 733.66116 515.0888 733.08078 514.5084 732.5625 513.877 732.1065 513.1946 731.6506 512.51217 731.26559 511.79179 730.9515 511.0335 730.6374 510.2752 730.40029 509.49357 730.2402 508.6886 730.0801 507.88365 730 507.07078 730 506.25 730 505.42924 730.0801 504.61634 730.2402 503.8113 730.40029 503.0063 730.6374 502.22465 730.9515 501.46638 731.26559 500.70808 731.6506 499.9877 732.10659 499.3053 732.56259 498.6229 733.08078 497.9915 733.66116 497.41114 734.24148 496.83079 734.8728 496.3126 735.55526 495.85658 736.2377 495.40058 736.95809 495.01554 737.7164 494.70146 738.4747 494.3874 739.25637 494.1503 740.06137 493.99018 740.86636 493.83006 741.67929 493.75 742.5 493.75 743.32077 493.75 744.13357 493.83006 744.93856 493.99018 745.7435 494.1503 746.52517 494.3874 747.28347 494.70146 748.0417 495.01554 748.7621 495.40058 749.4446 495.85658 750.127 496.3126 750.7584 496.83079 751.3388 497.41114 751.9191 497.9915 752.43728 498.6229 752.89328 499.3053 753.34927 499.9877 753.7343 500.70808 754.0484 501.46638 754.3625 502.22465 754.5996 503.0063 754.75979 503.8113 754.9199 504.61634 755 505.42924 755 506.25Z"/>
<path transform="matrix(.71981129,0,0,.71981129,-150.43962,-34.910848)" stroke-width="2" stroke-linecap="butt" stroke-miterlimit="4" stroke-linejoin="miter" fill="none" stroke="#000000" d="M755 519.25C755 520.07077 754.9199 520.88357 754.75979 521.68856 754.5996 522.4935 754.3625 523.27517 754.04849 524.03347 753.7343 524.7917 753.3493 525.5121 752.8933 526.1946 752.4373 526.877 751.9191 527.5084 751.3388 528.0888 750.7584 528.6692 750.127 529.1873 749.4446 529.64328 748.7621 530.09927 748.0417 530.4843 747.28347 530.7984 746.52517 531.1125 745.7435 531.3496 744.93856 531.50979 744.13357 531.66989 743.32077 531.74996 742.5 531.75 741.67929 531.74996 740.86636 531.66989 740.06137 531.50979 739.25637 531.3496 738.4747 531.1125 737.7164 530.7984 736.95809 530.4843 736.23776 530.0993 735.5553 529.6433 734.87289 529.1873 734.24148 528.6692 733.66116 528.0888 733.08078 527.5084 732.5625 526.877 732.1065 526.1946 731.6506 525.5121 731.26559 524.7917 730.9515 524.03347 730.6374 523.27517 730.40029 522.4935 730.2402 521.68856 730.0801 520.88357 730 520.07077 730 519.25 730 518.42929 730.0801 517.61636 730.2402 516.81137 730.40029 516.00637 730.6374 515.2247 730.9515 514.4664 731.26559 513.70809 731.6506 512.98776 732.10659 512.3053 732.56259 511.62287 733.08078 510.9915 733.66116 510.41114 734.24148 509.83076 734.8728 509.31257 735.55526 508.85658 736.2377 508.4006 736.95809 508.01557 737.7164 507.70146 738.4747 507.3874 739.25637 507.1503 740.06137 506.99018 740.86636 506.83006 741.67929 506.75 742.5 506.75 743.32077 506.75 744.13357 506.83006 744.93856 506.99015 745.7435 507.15028 746.52517 507.3874 747.28347 507.70146 748.0417 508.01557 748.7621 508.4006 749.4446 508.85658 750.127 509.31257 750.7584 509.83076 751.3388 510.41114 751.9191 510.9915 752.43728 511.62287 752.89328 512.3053 753.34927 512.98776 753.7343 513.70809 754.0484 514.4664 754.3625 515.2247 754.5996 516.00637 754.75979 516.81137 754.9199 517.61636 755 518.42929 755 519.25Z"/>
<path transform="matrix(.71981129,0,0,.71981129,-150.07971,-34.55094)" stroke-width="3" stroke-linecap="butt" stroke-miterlimit="10" stroke-linejoin="miter" fill="none" stroke="#000000" d="M742.21 468.75 742 491.75"/>
<path transform="matrix(.71981129,0,0,.71981129,-150.07971,-34.55094)" stroke-width="5" stroke-linecap="butt" stroke-miterlimit="10" stroke-linejoin="miter" fill="none" stroke="#000000" d="M710 550.85 824.5 550.59"/>
<text xml:space="preserve" transform="matrix(.71981129 0 0 .71981129 -150.43962 -34.910848)" font-size="15" font-family="Arial" font-weight="bold"><tspan y="555" x="825.15628 833.4963">13</tspan></text>
<path transform="matrix(.71981129,0,0,.71981129,-150.07971,-34.55094)" stroke-width="3" stroke-linecap="butt" stroke-miterlimit="10" stroke-linejoin="miter" fill="none" stroke="#000000" d="M742.5 531.75 742.21 552"/>
<path transform="matrix(.71981129,0,0,.71981129,-150.43962,-34.910848)" stroke-width="2" stroke-linecap="butt" stroke-miterlimit="4" stroke-linejoin="miter" fill="none" stroke="#000000" d="M695 504.5C695 505.32075 694.9199 506.1336 694.75979 506.93858 694.5996 507.74357 694.3625 508.5252 694.0484 509.28349 693.7343 510.04176 693.3493 510.76213 692.8933 511.44459 692.4373 512.127 691.9192 512.7584 691.3388 513.3388 690.7584 513.9192 690.127 514.4373 689.4446 514.8933 688.76217 515.3493 688.04177 515.7343 687.2835 516.04849 686.5252 516.3626 685.7436 516.5997 684.9386 516.75979 684.1336 516.9199 683.32077 517 682.5 517 681.6792 517 680.8663 516.9199 680.0613 516.7598 679.2563 516.59976 678.4746 516.3626 677.7164 516.04849 676.95809 515.7343 676.23776 515.3493 675.5553 514.8934 674.87289 514.4374 674.24148 513.9192 673.6611 513.3388 673.0807 512.7584 672.56259 512.127 672.10659 511.44459 671.6506 510.76213 671.2655 510.04176 670.9514 509.28349 670.6373 508.5252 670.4002 507.74357 670.2401 506.9386 670.08 506.1336 669.99996 505.32075 670 504.5 669.99996 503.67924 670.08 502.86637 670.2401 502.06138 670.4002 501.25636 670.6373 500.47468 670.9514 499.7164 671.2655 498.9581 671.6506 498.23774 672.10659 497.5553 672.56259 496.87287 673.0807 496.2415 673.6611 495.66114 674.24148 495.08076 674.8728 494.56257 675.55526 494.10655 676.2377 493.65058 676.95809 493.26554 677.7164 492.95146 678.4746 492.63737 679.2563 492.40028 680.0613 492.24018 680.8663 492.08006 681.6792 492 682.5 492 683.32077 492 684.1336 492.08006 684.9386 492.24018 685.7436 492.40028 686.5252 492.63737 687.2835 492.95146 688.04177 493.26554 688.76217 493.65058 689.4446 494.10658 690.127 494.56257 690.7584 495.08076 691.3388 495.66114 691.9192 496.2415 692.4373 496.87287 692.8933 497.5553 693.3493 498.23774 693.7343 498.9581 694.0484 499.7164 694.3625 500.47468 694.5996 501.25633 694.75979 502.06135 694.9199 502.86637 695 503.67924 695 504.5Z"/>
<path transform="matrix(.71981129,0,0,.71981129,-150.07971,-34.55094)" stroke-width="3" stroke-linecap="butt" stroke-miterlimit="10" stroke-linejoin="miter" fill="none" stroke="#000000" d="M682.5 530 682.67 580"/>
<path transform="matrix(.71981129,0,0,.71981129,-150.43962,-34.910848)" stroke-width="2" stroke-linecap="butt" stroke-miterlimit="4" stroke-linejoin="miter" fill="none" stroke="#000000" d="M695 517.5C695 518.32077 694.9199 519.1336 694.75979 519.9386 694.5996 520.7436 694.3625 521.5252 694.0484 522.28347 693.7343 523.04177 693.3493 523.76217 692.8933 524.4446 692.4373 525.127 691.9192 525.7584 691.3388 526.3388 690.7584 526.9192 690.127 527.4373 689.4446 527.8933 688.76217 528.3493 688.04177 528.7344 687.2835 529.04849 686.5252 529.36257 685.7436 529.5997 684.9386 529.75979 684.1336 529.9199 683.32077 530 682.5 530 681.6792 530 680.8663 529.9199 680.0613 529.75979 679.2563 529.5997 678.4746 529.36257 677.7164 529.04849 676.95809 528.7344 676.23776 528.3493 675.5553 527.8933 674.87289 527.4373 674.24148 526.9192 673.6611 526.3388 673.0807 525.7584 672.56259 525.127 672.10659 524.4446 671.6506 523.76217 671.2655 523.04177 670.9514 522.28347 670.6373 521.5252 670.4002 520.7436 670.2401 519.9386 670.08 519.1336 669.99996 518.32077 670 517.5 669.99996 516.67929 670.08 515.86636 670.2401 515.06137 670.4002 514.25637 670.6373 513.4747 670.9514 512.7164 671.2655 511.9581 671.6506 511.23774 672.10659 510.5553 672.56259 509.87287 673.0807 509.2415 673.6611 508.66114 674.24148 508.08076 674.8728 507.56257 675.55526 507.10658 676.2377 506.6506 676.95809 506.2656 677.7164 505.95149 678.4746 505.6374 679.2563 505.4003 680.0613 505.24018 680.8663 505.08006 681.6792 505 682.5 505 683.32077 505 684.1336 505.08006 684.9386 505.24018 685.7436 505.4003 686.5252 505.6374 687.2835 505.95149 688.04177 506.2656 688.76217 506.65065 689.4446 507.1066 690.127 507.56257 690.7584 508.08076 691.3388 508.66114 691.9192 509.2415 692.4373 509.87287 692.8933 510.5553 693.3493 511.23774 693.7343 511.9581 694.0484 512.7164 694.3625 513.4747 694.5996 514.25637 694.75979 515.06137 694.9199 515.86636 695 516.67929 695 517.5Z"/>
<path transform="matrix(.71981129,0,0,.71981129,-150.07971,-34.55094)" stroke-width="3" stroke-linecap="butt" stroke-miterlimit="10" stroke-linejoin="miter" fill="none" stroke="#000000" d="M682.21 467 682 490"/>
<path transform="matrix(.71981129,0,0,.71981129,-150.07971,-34.55094)" stroke-width="5" stroke-linecap="butt" stroke-miterlimit="10" stroke-linejoin="miter" fill="none" stroke="#000000" d="M627.5 581.01 742 580.75"/>
<text xml:space="preserve" transform="matrix(.71981129 0 0 .71981129 -150.43962 -34.910848)" font-size="15" font-family="Arial" font-weight="bold"><tspan y="585" x="743.5781 751.0928">11</tspan></text>
<path transform="matrix(-.71981129,0,0,-.71981129,724.8509,793.5919)" stroke-width="2" stroke-linecap="butt" stroke-miterlimit="4" stroke-linejoin="miter" fill="none" stroke="#000000" d="M620.5 575.5C620.49996 576.32077 620.41989 577.1336 620.25979 577.9386 620.0996 578.7436 619.8625 579.5252 619.5484 580.2835 619.23428 581.0418 618.84927 581.7622 618.39328 582.44467 617.9373 583.1271 617.4192 583.7584 616.8388 584.3388 616.2584 584.9192 615.627 585.4374 614.9445 585.89346 614.2621 586.34939 613.5417 586.7344 612.78347 587.04849 612.0252 587.3626 611.2435 587.59976 610.43856 587.7598 609.6336 587.9199 608.82077 588 608 588 607.1792 588 606.3663 587.9199 605.5613 587.7598 604.7563 587.59976 603.9747 587.3626 603.2164 587.04849 602.45809 586.7344 601.73776 586.34939 601.0553 585.8934 600.37289 585.4374 599.7415 584.9192 599.16116 584.3388 598.58078 583.7584 598.06259 583.127 597.6065 582.4446 597.1506 581.76217 596.76559 581.0418 596.4514 580.2835 596.1373 579.5252 595.9002 578.7436 595.74008 577.9386 595.58 577.1336 595.5 576.32077 595.5 575.5 595.5 574.6792 595.58 573.86636 595.74008 573.06137 595.9002 572.25637 596.1373 571.4747 596.4514 570.7164 596.76559 569.9581 597.1506 569.23776 597.6065 568.55526 598.06259 567.8728 598.58078 567.24148 599.16116 566.66116 599.7415 566.08078 600.37289 565.56259 601.0553 565.10659 601.73776 564.6506 602.45809 564.26559 603.2164 563.9514 603.9747 563.6374 604.7563 563.40029 605.5613 563.2402 606.3663 563.0801 607.1792 563 608 563 608.82077 563 609.6336 563.0801 610.43856 563.2402 611.2435 563.40029 612.0252 563.6374 612.78347 563.9514 613.5417 564.26559 614.2621 564.6506 614.9445 565.10659 615.627 565.56259 616.2584 566.08078 616.8388 566.66116 617.4192 567.24148 617.9373 567.8728 618.39328 568.55526 618.84927 569.23776 619.23428 569.9581 619.5484 570.7164 619.8625 571.4747 620.0996 572.25637 620.25979 573.06137 620.41989 573.86636 620.49996 574.6792 620.5 575.5Z"/>
<path transform="matrix(-.71981129,0,0,-.71981129,724.8509,774.8769)" stroke-width="2" stroke-linecap="butt" stroke-miterlimit="4" stroke-linejoin="miter" fill="none" stroke="#000000" d="M620.5 562.5C620.49996 563.32077 620.41989 564.1336 620.25979 564.9386 620.0996 565.7436 619.8625 566.5252 619.5484 567.2835 619.23428 568.0418 618.84927 568.76217 618.39328 569.4446 617.9373 570.127 617.4192 570.7584 616.8388 571.3388 616.2584 571.9192 615.627 572.4373 614.9445 572.89328 614.2621 573.3493 613.5417 573.7344 612.78347 574.04849 612.0252 574.36257 611.2435 574.5997 610.43856 574.75979 609.6336 574.91989 608.82077 574.99996 608 575 607.1792 574.99996 606.3663 574.91989 605.5613 574.75979 604.7563 574.5997 603.9747 574.36257 603.2164 574.04849 602.45809 573.7344 601.73776 573.3493 601.0553 572.8933 600.37289 572.4373 599.7415 571.9192 599.16116 571.3388 598.58078 570.7584 598.06259 570.127 597.6065 569.4446 597.1506 568.76217 596.76559 568.0418 596.4514 567.2835 596.1373 566.5252 595.9002 565.7436 595.74008 564.9386 595.58 564.1336 595.5 563.32077 595.5 562.5 595.5 561.6792 595.58 560.8663 595.74008 560.0613 595.9002 559.2563 596.1373 558.4747 596.4514 557.7164 596.76559 556.95809 597.1506 556.23776 597.6065 555.5553 598.06259 554.87289 598.58078 554.2415 599.16116 553.66116 599.7415 553.08078 600.37289 552.56259 601.0553 552.10659 601.73776 551.6506 602.45809 551.26559 603.2164 550.9515 603.9747 550.6374 604.7563 550.40029 605.5613 550.2402 606.3663 550.0801 607.1792 550 608 550 608.82077 550 609.6336 550.0801 610.43856 550.2402 611.2435 550.40029 612.0252 550.6374 612.78347 550.9515 613.5417 551.26559 614.2621 551.6506 614.9445 552.10659 615.627 552.56259 616.2584 553.08078 616.8388 553.66116 617.4192 554.2415 617.9373 554.87289 618.39328 555.5553 618.84927 556.23776 619.23428 556.95809 619.5484 557.7164 619.8625 558.4747 620.0996 559.2563 620.25979 560.0613 620.41989 560.8663 620.49996 561.6792 620.5 562.5Z"/>
<path transform="matrix(.71981129,0,0,.71981129,-150.07971,-34.55094)" stroke-width="3" stroke-linecap="butt" stroke-miterlimit="10" stroke-linejoin="miter" fill="none" stroke="#000000" d="M607.5 638V588"/>
<path transform="matrix(.71981129,0,0,.71981129,-150.07971,-34.55094)" stroke-width="5" stroke-linecap="butt" stroke-miterlimit="10" stroke-linejoin="miter" fill="none" stroke="#000000" d="M690 606H580"/>
<text xml:space="preserve" transform="matrix(.71981129 0 0 .71981129 -150.43962 -34.910848)" font-size="15" font-family="Arial" font-weight="bold"><tspan y="611" x="690.15628 698.4963">31</tspan></text>
<path transform="matrix(-.71981129,0,0,-.71981129,724.1311,905.1627)" d="M592.5 653C592.5 644.72 599.22 638 607.5 638 615.78 638 622.5 644.72 622.5 653 622.5 661.28 615.78 668 607.5 668 599.22 668 592.5 661.28 592.5 653" fill="#cdeb8b"/>
<path transform="matrix(-.71981129,0,0,-.71981129,724.1311,905.1627)" stroke-width="2" stroke-linecap="butt" stroke-miterlimit="10" stroke-linejoin="miter" fill="none" stroke="#36393d" d="M592.5 653C592.5 644.72 599.22 638 607.5 638 615.78 638 622.5 644.72 622.5 653 622.5 661.28 615.78 668 607.5 668 599.22 668 592.5 661.28 592.5 653"/>
<path transform="matrix(-.71981129,0,0,-.71981129,724.1311,905.1627)" stroke-width="2" stroke-linecap="butt" stroke-miterlimit="10" stroke-linejoin="miter" fill="none" stroke="#36393d" d="M607.5 653C607.57 655.71 609.79 657.88 612.5 657.88 615.21 657.88 617.43 655.71 617.5 653M597.5 653C597.46 651.19 598.4 649.49 599.96 648.57 601.53 647.65 603.47 647.65 605.04 648.57 606.6 649.49 607.54 651.19 607.5 653"/>
<path transform="matrix(.71981129,0,0,.71981129,-150.07971,-34.55094)" stroke-width="3" stroke-linecap="butt" stroke-miterlimit="10" stroke-linejoin="miter" fill="none" stroke="#000000" d="M608 550V505"/>
<path transform="matrix(0,.71981129,-.71981129,0,790.3537,-38.86981)" d="M643.75 634 668.75 650.25 643.75 666.5V634Z" fill="#ffff88"/>
<path transform="matrix(0,.71981129,-.71981129,0,790.3537,-38.86981)" stroke-width="1" stroke-linecap="butt" stroke-miterlimit="10" stroke-linejoin="miter" fill="none" stroke="#36393d" d="M643.75 634 668.75 650.25 643.75 666.5V634Z"/>
<path transform="matrix(.71981129,0,0,.71981129,-150.07971,-34.55094)" stroke-width="3" stroke-linecap="butt" stroke-miterlimit="10" stroke-linejoin="miter" fill="none" stroke="#000000" d="M655.96 609V639"/>
<path transform="matrix(.71981129,0,0,.71981129,-150.07971,-34.55094)" stroke-width="5" stroke-linecap="butt" stroke-miterlimit="10" stroke-linejoin="miter" fill="none" stroke="#000000" d="M712 609.26 826.5 609"/>
<text xml:space="preserve" transform="matrix(.71981129 0 0 .71981129 -150.43962 -34.910848)" font-size="15" font-family="Arial" font-weight="bold"><tspan y="614" x="827.15628 835.4963">10</tspan></text>
<path transform="matrix(.71981129,0,0,.71981129,-150.07971,-34.55094)" stroke-width="3" stroke-linecap="butt" stroke-miterlimit="10" stroke-linejoin="miter" fill="none" stroke="#000000" d="M730 610V580"/>
<path transform="matrix(-.71981129,0,0,-.71981129,986.8622,914.5202)" stroke-width="2" stroke-linecap="butt" stroke-miterlimit="4" stroke-linejoin="miter" fill="none" stroke="#000000" d="M802.5 659.5C802.49996 660.32077 802.41989 661.1336 802.2597 661.9386 802.0996 662.7436 801.86257 663.5252 801.54849 664.28347 801.2343 665.04177 800.84927 665.76217 800.39328 666.4446 799.93728 667.127 799.41909 667.7584 798.83877 668.3388 798.2583 668.9191 797.6269 669.4373 796.94448 669.8933 796.262 670.34927 795.5416 670.7343 794.7834 671.04849 794.02517 671.36257 793.2435 671.5996 792.43856 671.7597 791.6336 671.91989 790.82077 671.99996 790 672 789.1792 671.99996 788.3663 671.91989 787.5613 671.7597 786.7563 671.5996 785.9747 671.36257 785.2164 671.04849 784.45809 670.7343 783.73776 670.34927 783.0553 669.8933 782.37289 669.4373 781.7415 668.9191 781.16116 668.3388 780.58078 667.7584 780.0625 667.127 779.6065 666.4446 779.1505 665.76217 778.7655 665.04177 778.4514 664.28347 778.1373 663.5252 777.9002 662.7436 777.74008 661.9386 777.58 661.1336 777.5 660.32077 777.5 659.5 777.5 658.6792 777.58 657.8663 777.7401 657.0613 777.9002 656.2563 778.1373 655.4746 778.4514 654.7163 778.7655 653.95809 779.1505 653.23776 779.6065 652.5553 780.0625 651.8728 780.58078 651.2414 781.16116 650.6611 781.7415 650.0807 782.37289 649.5625 783.0553 649.10659 783.73776 648.6506 784.45809 648.2655 785.2164 647.9514 785.9747 647.6374 786.7563 647.40029 787.5613 647.2402 788.3663 647.0801 789.1792 647 790 647 790.82077 647 791.6336 647.0801 792.4386 647.2402 793.2435 647.40029 794.02517 647.6374 794.7834 647.9514 795.5416 648.2655 796.262 648.6506 796.94448 649.10659 797.6269 649.5625 798.2583 650.0807 798.83877 650.6611 799.41909 651.2414 799.9372 651.8728 800.3932 652.5553 800.8492 653.23776 801.23428 653.95809 801.5484 654.7163 801.8625 655.4746 802.0996 656.2563 802.25979 657.0613 802.41989 657.8663 802.49996 658.6792 802.5 659.5Z"/>
<path transform="matrix(-.71981129,0,0,-.71981129,986.8622,895.8051)" stroke-width="2" stroke-linecap="butt" stroke-miterlimit="4" stroke-linejoin="miter" fill="none" stroke="#000000" d="M802.5 646.5C802.49996 647.32077 802.41989 648.13357 802.2597 648.93856 802.0996 649.7435 801.86257 650.5252 801.54849 651.2835 801.2343 652.04177 800.84927 652.7621 800.39328 653.4446 799.93728 654.127 799.41909 654.7584 798.83877 655.3388 798.2583 655.9192 797.6269 656.4373 796.94448 656.89328 796.262 657.34927 795.5416 657.7343 794.7834 658.0484 794.02517 658.36257 793.2435 658.5997 792.43856 658.75979 791.6336 658.9199 790.82077 659 790 659 789.1792 659 788.3663 658.9199 787.5613 658.75979 786.7563 658.5997 785.9747 658.36257 785.2164 658.0484 784.45809 657.7343 783.73776 657.3493 783.0553 656.8933 782.37289 656.4373 781.7415 655.9192 781.16116 655.3388 780.58078 654.7584 780.0625 654.127 779.6065 653.4446 779.1505 652.7621 778.7655 652.04177 778.4514 651.2835 778.1373 650.5252 777.9002 649.7435 777.74008 648.93856 777.58 648.13357 777.5 647.32077 777.5 646.5 777.5 645.6792 777.58 644.86636 777.7401 644.06137 777.9002 643.2563 778.1373 642.4746 778.4514 641.7164 778.7655 640.95809 779.1505 640.2377 779.6065 639.55526 780.0625 638.8728 780.58078 638.24148 781.16116 637.66116 781.7415 637.08078 782.37289 636.56259 783.0553 636.1065 783.73776 635.6506 784.45809 635.26559 785.2164 634.9514 785.9747 634.6373 786.7563 634.40029 787.5613 634.2402 788.3663 634.0801 789.1792 634 790 634 790.82077 634 791.6336 634.0801 792.4386 634.2402 793.2435 634.40029 794.02517 634.6373 794.7834 634.9514 795.5416 635.26559 796.262 635.6506 796.94448 636.1065 797.6269 636.56259 798.2583 637.08078 798.83877 637.66116 799.41909 638.24148 799.9372 638.8728 800.3932 639.55526 800.8492 640.2377 801.23428 640.95809 801.5484 641.7164 801.8625 642.4746 802.0996 643.2563 802.25979 644.06137 802.41989 644.86636 802.49996 645.6792 802.5 646.5Z"/>
<path transform="matrix(-.71981129,0,0,-.71981129,986.1424,1008.8155)" d="M774.5 725C774.5 716.72 781.22 710 789.5 710 797.78 710 804.5 716.72 804.5 725 804.5 733.28 797.78 740 789.5 740 781.22 740 774.5 733.28 774.5 725" fill="#cdeb8b"/>
<path transform="matrix(-.71981129,0,0,-.71981129,986.1424,1008.8155)" stroke-width="2" stroke-linecap="butt" stroke-miterlimit="10" stroke-linejoin="miter" fill="none" stroke="#36393d" d="M774.5 725C774.5 716.72 781.22 710 789.5 710 797.78 710 804.5 716.72 804.5 725 804.5 733.28 797.78 740 789.5 740 781.22 740 774.5 733.28 774.5 725"/>
<path transform="matrix(-.71981129,0,0,-.71981129,986.1424,1008.8155)" stroke-width="2" stroke-linecap="butt" stroke-miterlimit="10" stroke-linejoin="miter" fill="none" stroke="#36393d" d="M789.5 725C789.57 727.71 791.79 729.88 794.5 729.88 797.21 729.88 799.43 727.71 799.5 725M779.5 725C779.46 723.19 780.4 721.49 781.96 720.57 783.53 719.65 785.47 719.65 787.04 720.57 788.6 721.49 789.54 723.19 789.5 725"/>
<path transform="matrix(.71981129,0,0,.71981129,-150.07971,-34.55094)" stroke-width="3" stroke-linecap="butt" stroke-miterlimit="10" stroke-linejoin="miter" fill="none" stroke="#000000" d="M790 634V610"/>
<path transform="matrix(.71981129,0,0,.71981129,-150.07971,-34.55094)" stroke-width="5" stroke-linecap="butt" stroke-miterlimit="10" stroke-linejoin="miter" fill="none" stroke="#000000" d="M825 690H755"/>
<text xml:space="preserve" transform="matrix(.71981129 0 0 .71981129 -150.43962 -34.910848)" font-size="15" font-family="Arial" font-weight="bold"><tspan y="695" x="826.15628 834.4963">32</tspan></text>
<path transform="matrix(.71981129,0,0,.71981129,-150.07971,-34.55094)" stroke-width="3" stroke-linecap="butt" stroke-miterlimit="10" stroke-linejoin="miter" fill="none" stroke="#000000" d="M789.21 672 789.2 709.34"/>
<path transform="matrix(0,-.71981129,.71981129,0,301.4651,844.1155)" d="M911.5 280.44 936.5 296.69 911.5 312.94V280.44Z" fill="#ffff88"/>
<path transform="matrix(0,-.71981129,.71981129,0,301.4651,844.1155)" stroke-width="1" stroke-linecap="butt" stroke-miterlimit="10" stroke-linejoin="miter" fill="none" stroke="#36393d" d="M911.5 280.44 936.5 296.69 911.5 312.94V280.44Z"/>
<path transform="matrix(.71981129,0,0,.71981129,-150.07971,-34.55094)" stroke-width="3" stroke-linecap="butt" stroke-miterlimit="10" stroke-linejoin="miter" fill="none" stroke="#000000" d="M924.5 338.44V308.44"/>
<path transform="matrix(.71981129,0,0,.71981129,-150.07971,-34.55094)" stroke-width="5" stroke-linecap="butt" stroke-miterlimit="10" stroke-linejoin="miter" fill="none" stroke="#000000" d="M980 281.88 1070 281.44"/>
<text xml:space="preserve" transform="matrix(.71981129 0 0 .71981129 -150.43962 -34.910848)" font-size="15" font-family="Arial" font-weight="bold"><tspan y="288" x="959.15628 967.4963">24</tspan></text>
<path transform="matrix(0,.71981129,-.71981129,0,823.0619,-538.82199)" d="M1013.75 309.44 1038.75 325.69 1013.75 341.94V309.44Z" fill="#ffff88"/>
<path transform="matrix(0,.71981129,-.71981129,0,823.0619,-538.82199)" stroke-width="1" stroke-linecap="butt" stroke-miterlimit="10" stroke-linejoin="miter" fill="none" stroke="#36393d" d="M1013.75 309.44 1038.75 325.69 1013.75 341.94V309.44Z"/>
<path transform="matrix(.71981129,0,0,.71981129,-150.07971,-34.55094)" stroke-width="3" stroke-linecap="butt" stroke-miterlimit="10" stroke-linejoin="miter" fill="none" stroke="#000000" d="M1025.96 284.44V314.44"/>
<path transform="matrix(.71981129,0,0,.71981129,-150.07971,-34.55094)" stroke-width="3" stroke-linecap="butt" stroke-miterlimit="10" stroke-linejoin="miter" fill="none" stroke="#000000" d="M988 284.44V324.4H948V394.4H988L989 460"/>
<path transform="matrix(.71981129,0,0,.71981129,-150.07971,-34.55094)" stroke-width="5" stroke-linecap="butt" stroke-miterlimit="10" stroke-linejoin="miter" fill="none" stroke="#000000" d="M1041.5 462.75H971.5"/>
<text xml:space="preserve" transform="matrix(.71981129 0 0 .71981129 -150.43962 -34.910848)" font-size="15" font-family="Arial" font-weight="bold"><tspan y="469" x="953.15628 961.4963">21</tspan></text>
<path transform="matrix(0,.71981129,-.71981129,0,936.2954,-395.35636)" d="M992.75 487.75 1017.75 504 992.75 520.25V487.75Z" fill="#ffff88"/>
<path transform="matrix(0,.71981129,-.71981129,0,936.2954,-395.35636)" stroke-width="1" stroke-linecap="butt" stroke-miterlimit="10" stroke-linejoin="miter" fill="none" stroke="#36393d" d="M992.75 487.75 1017.75 504 992.75 520.25V487.75Z"/>
<path transform="matrix(.71981129,0,0,.71981129,-150.07971,-34.55094)" stroke-width="3" stroke-linecap="butt" stroke-miterlimit="10" stroke-linejoin="miter" fill="none" stroke="#000000" d="M1004.96 462.75V492.75"/>
<path transform="matrix(.71981129,0,0,.71981129,-150.07971,-34.55094)" stroke-width="5" stroke-linecap="butt" stroke-miterlimit="10" stroke-linejoin="miter" fill="none" stroke="#000000" d="M1148 462.75H1078"/>
<text xml:space="preserve" transform="matrix(.71981129 0 0 .71981129 -150.43962 -34.910848)" font-size="15" font-family="Arial" font-weight="bold"><tspan y="469" x="1060.1563 1068.4962">22</tspan></text>
<path transform="matrix(.71981129,0,0,.71981129,-150.07971,-34.55094)" stroke-width="3" stroke-linecap="butt" stroke-miterlimit="10" stroke-linejoin="miter" fill="none" stroke="#000000" d="M1090 462V434H1026.9L1026.87 462.25"/>
<path transform="matrix(.71981129,0,0,.71981129,-150.43962,-34.910848)" d="M1100.25 345C1100.25 336.72 1106.97 330 1115.25 330 1123.53 330 1130.25 336.72 1130.25 345 1130.25 353.28 1123.53 360 1115.25 360 1106.97 360 1100.25 353.28 1100.25 345" fill="#cdeb8b"/>
<path transform="matrix(.71981129,0,0,.71981129,-150.43962,-34.910848)" stroke-width="2" stroke-linecap="butt" stroke-miterlimit="10" stroke-linejoin="miter" fill="none" stroke="#36393d" d="M1100.25 345C1100.25 336.72 1106.97 330 1115.25 330 1123.53 330 1130.25 336.72 1130.25 345 1130.25 353.28 1123.53 360 1115.25 360 1106.97 360 1100.25 353.28 1100.25 345"/>
<path transform="matrix(.71981129,0,0,.71981129,-150.43962,-34.910848)" stroke-width="2" stroke-linecap="butt" stroke-miterlimit="10" stroke-linejoin="miter" fill="none" stroke="#36393d" d="M1115.25 345C1115.32 347.71 1117.54 349.88 1120.25 349.88 1122.96 349.88 1125.18 347.71 1125.25 345M1105.25 345C1105.21 343.19 1106.15 341.49 1107.71 340.57 1109.28 339.65 1111.22 339.65 1112.79 340.57 1114.35 341.49 1115.29 343.19 1115.25 345"/>
<path transform="matrix(.71981129,0,0,.71981129,-150.43962,-34.910848)" stroke-width="2" stroke-linecap="butt" stroke-miterlimit="4" stroke-linejoin="miter" fill="none" stroke="#000000" d="M1127.75 407.59C1127.75 408.41075 1127.6699 409.2236 1127.5099 410.0286 1127.3496 410.83363 1127.1124 411.61524 1126.7984 412.3735 1126.4843 413.13179 1126.0991 413.85215 1125.6432 414.53459 1125.1873 415.217 1124.6691 415.84843 1124.0888 416.4288 1123.5083 417.00917 1122.877 417.52735 1122.1946 417.98335 1121.5121 418.4393 1120.7918 418.82435 1120.0335 419.13847 1119.2753 419.45256 1118.4937 419.68965 1117.6886 419.84977 1116.8836 420.0099 1116.0707 420.08998 1115.25 420.09 1114.4293 420.08998 1113.6165 420.0099 1112.8114 419.84977 1112.0064 419.68965 1111.2247 419.45256 1110.4664 419.13847 1109.7083 418.82435 1108.9878 418.4393 1108.3053 417.98335 1107.6229 417.52735 1106.9916 417.00917 1106.4111 416.4288 1105.8307 415.84843 1105.3125 415.217 1104.8565 414.53459 1104.4005 413.85215 1104.0155 413.13179 1103.7014 412.3735 1103.3873 411.61524 1103.1502 410.83363 1102.9901 410.0286 1102.8301 409.2236 1102.75 408.41075 1102.75 407.59 1102.75 406.76924 1102.8301 405.95634 1102.9901 405.15135 1103.1502 404.3463 1103.3873 403.56468 1103.7014 402.8064 1104.0155 402.04814 1104.4005 401.32777 1104.8565 400.6453 1105.3125 399.96287 1105.8307 399.33149 1106.4111 398.75114 1106.9916 398.17079 1107.6229 397.6526 1108.3053 397.19664 1108.9878 396.7406 1109.7083 396.35557 1110.4664 396.04145 1111.2247 395.7274 1112.0064 395.49028 1112.8114 395.33015 1113.6165 395.17008 1114.4293 395.09004 1115.25 395.09 1116.0707 395.09004 1116.8836 395.17008 1117.6886 395.33018 1118.4937 395.4903 1119.2753 395.7274 1120.0335 396.04145 1120.7918 396.35557 1121.5121 396.7406 1122.1945 397.1966 1122.877 397.6526 1123.5083 398.17079 1124.0888 398.75114 1124.6691 399.33149 1125.1873 399.96287 1125.6432 400.6453 1126.0991 401.32777 1126.4843 402.04814 1126.7984 402.8064 1127.1124 403.56468 1127.3496 404.3463 1127.5099 405.1513 1127.6699 405.95634 1127.75 406.76924 1127.75 407.59Z"/>
<path transform="matrix(.71981129,0,0,.71981129,-150.43962,-34.910848)" stroke-width="2" stroke-linecap="butt" stroke-miterlimit="4" stroke-linejoin="miter" fill="none" stroke="#000000" d="M1127.75 420.59C1127.75 421.41078 1127.6699 422.22364 1127.5099 423.0286 1127.3496 423.83357 1127.1124 424.6152 1126.7984 425.3735 1126.4843 426.13179 1126.0991 426.85215 1125.6432 427.5346 1125.1873 428.21705 1124.6691 428.84846 1124.0888 429.4288 1123.5083 430.00917 1122.877 430.5273 1122.1946 430.9833 1121.5121 431.4393 1120.7918 431.82435 1120.0335 432.13844 1119.2753 432.4525 1118.4937 432.68965 1117.6886 432.84977 1116.8836 433.0099 1116.0707 433.08998 1115.25 433.09 1114.4293 433.08998 1113.6165 433.0099 1112.8114 432.84977 1112.0064 432.68965 1111.2247 432.45256 1110.4664 432.13847 1109.7083 431.82438 1108.9878 431.43934 1108.3053 430.9833 1107.6229 430.5273 1106.9916 430.00917 1106.4111 429.4288 1105.8307 428.84846 1105.3125 428.21705 1104.8565 427.5346 1104.4005 426.85215 1104.0155 426.13179 1103.7014 425.3735 1103.3873 424.6152 1103.1502 423.83357 1102.9901 423.0286 1102.8301 422.22364 1102.75 421.41078 1102.75 420.59 1102.75 419.76924 1102.8301 418.95634 1102.9901 418.15135 1103.1502 417.3463 1103.3873 416.56468 1103.7014 415.8064 1104.0155 415.0481 1104.4005 414.32774 1104.8565 413.6453 1105.3125 412.9629 1105.8307 412.33149 1106.4111 411.75114 1106.9916 411.17079 1107.6229 410.6526 1108.3053 410.19657 1108.9878 409.74058 1109.7083 409.35554 1110.4664 409.04145 1111.2247 408.7274 1112.0064 408.4903 1112.8114 408.33018 1113.6165 408.17005 1114.4293 408.09 1115.25 408.09 1116.0707 408.09 1116.8836 408.17008 1117.6886 408.3302 1118.4937 408.4903 1119.2753 408.7274 1120.0335 409.04145 1120.7918 409.35554 1121.5121 409.74058 1122.1945 410.19654 1122.877 410.65257 1123.5083 411.17079 1124.0888 411.75114 1124.6691 412.33149 1125.1873 412.9629 1125.6432 413.6453 1126.0991 414.32774 1126.4843 415.0481 1126.7984 415.8064 1127.1124 416.56468 1127.3496 417.3463 1127.5099 418.15135 1127.6699 418.95634 1127.75 419.76924 1127.75 420.59Z"/>
<path transform="matrix(.71981129,0,0,.71981129,-150.07971,-34.55094)" stroke-width="3" stroke-linecap="butt" stroke-miterlimit="10" stroke-linejoin="miter" fill="none" stroke="#000000" d="M1115 360 1115.25 395.09"/>
<path transform="matrix(-.71981129,0,0,-.71981129,1486.0514,211.62451)" stroke-width="2" stroke-linecap="butt" stroke-miterlimit="4" stroke-linejoin="miter" fill="none" stroke="#000000" d="M1149.25 171.25C1149.25 172.07076 1149.1699 172.88362 1149.0097 173.6886 1148.8495 174.49358 1148.6123 175.27523 1148.2982 176.03351 1147.9841 176.7918 1147.5991 177.51215 1147.1432 178.1946 1146.6873 178.87703 1146.1691 179.50844 1145.5888 180.0888 1145.0083 180.66918 1144.377 181.18735 1143.6945 181.64333 1143.012 182.09934 1142.2915 182.48438 1141.5333 182.79846 1140.775 183.11255 1139.9934 183.34966 1139.1885 183.5098 1138.3836 183.66992 1137.5707 183.74999 1136.75 183.75 1135.9292 183.74999 1135.1163 183.66992 1134.3113 183.5098 1133.5062 183.34966 1132.7246 183.11255 1131.9663 182.79846 1131.208 182.48438 1130.4877 182.09934 1129.8052 181.64334 1129.1228 181.18737 1128.4915 180.66918 1127.9111 180.0888 1127.3307 179.50844 1126.8125 178.87703 1126.3566 178.1946 1125.9006 177.51215 1125.5155 176.7918 1125.2014 176.03351 1124.8873 175.27523 1124.6502 174.49359 1124.4901 173.68862 1124.33 172.88362 1124.2499 172.07076 1124.25 171.25 1124.2499 170.42925 1124.33 169.61637 1124.4901 168.81137 1124.6502 168.00638 1124.8873 167.22473 1125.2014 166.46645 1125.5155 165.70816 1125.9006 164.9878 1126.3566 164.30535 1126.8125 163.62293 1127.3307 162.99153 1127.9111 162.41117 1128.4915 161.83078 1129.1228 161.31259 1129.8052 160.85662 1130.4877 160.40062 1131.208 160.01558 1131.9663 159.70149 1132.7246 159.3874 1133.5062 159.1503 1134.3113 158.99018 1135.1163 158.83007 1135.9292 158.75 1136.75 158.75 1137.5707 158.75 1138.3836 158.83007 1139.1885 158.99018 1139.9934 159.1503 1140.775 159.3874 1141.5333 159.70149 1142.2915 160.01558 1143.012 160.40062 1143.6945 160.85663 1144.377 161.3126 1145.0083 161.83078 1145.5888 162.41117 1146.1691 162.99153 1146.6873 163.62293 1147.1432 164.30536 1147.5991 164.9878 1147.9841 165.70816 1148.2982 166.46645 1148.6123 167.22473 1148.8495 168.00638 1149.0097 168.81137 1149.1699 169.61637 1149.25 170.42925 1149.25 171.25Z"/>
<path transform="matrix(-.71981129,0,0,-.71981129,1486.0514,192.90943)" stroke-width="2" stroke-linecap="butt" stroke-miterlimit="4" stroke-linejoin="miter" fill="none" stroke="#000000" d="M1149.25 158.25C1149.25 159.07076 1149.1699 159.88362 1149.0097 160.6886 1148.8495 161.49359 1148.6123 162.27523 1148.2982 163.03351 1147.9841 163.7918 1147.5991 164.51216 1147.1432 165.19461 1146.6873 165.87705 1146.1691 166.50846 1145.5888 167.08882 1145.0083 167.66919 1144.377 168.18737 1143.6945 168.64334 1143.012 169.09935 1142.2915 169.48439 1141.5333 169.79848 1140.775 170.11257 1139.9934 170.34967 1139.1885 170.50981 1138.3836 170.66992 1137.5707 170.74999 1136.75 170.75 1135.9292 170.74999 1135.1163 170.66992 1134.3113 170.50981 1133.5062 170.34967 1132.7246 170.11257 1131.9663 169.79848 1131.208 169.48439 1130.4877 169.09935 1129.8052 168.64334 1129.1228 168.18737 1128.4915 167.66919 1127.9111 167.08882 1127.3307 166.50846 1126.8125 165.87705 1126.3566 165.19461 1125.9006 164.51216 1125.5155 163.7918 1125.2014 163.03351 1124.8873 162.27523 1124.6502 161.49359 1124.4901 160.6886 1124.33 159.88362 1124.2499 159.07076 1124.25 158.25 1124.2499 157.42923 1124.33 156.61635 1124.4901 155.81137 1124.6502 155.00638 1124.8873 154.22473 1125.2014 153.46645 1125.5155 152.70816 1125.9006 151.9878 1126.3566 151.30536 1126.8125 150.62291 1127.3307 149.99152 1127.9111 149.41117 1128.4915 148.8308 1129.1228 148.3126 1129.8052 147.8566 1130.4877 147.40062 1131.208 147.01558 1131.9663 146.70149 1132.7246 146.3874 1133.5062 146.1503 1134.3113 145.99018 1135.1163 145.83007 1135.9292 145.75 1136.75 145.75 1137.5707 145.75 1138.3836 145.83007 1139.1885 145.99018 1139.9934 146.1503 1140.775 146.3874 1141.5333 146.70149 1142.2915 147.01558 1143.012 147.40062 1143.6945 147.8566 1144.377 148.3126 1145.0083 148.8308 1145.5888 149.41117 1146.1691 149.99152 1146.6873 150.62291 1147.1432 151.30536 1147.5991 151.9878 1147.9841 152.70816 1148.2982 153.46645 1148.6123 154.22473 1148.8495 155.00638 1149.0097 155.81137 1149.1699 156.61635 1149.25 157.42923 1149.25 158.25Z"/>
<path transform="matrix(.71981129,0,0,.71981129,-150.07971,-34.55094)" stroke-width="3" stroke-linecap="butt" stroke-miterlimit="10" stroke-linejoin="miter" fill="none" stroke="#000000" d="M1136 220 1136.25 183.75"/>
<path transform="matrix(.71981129,0,0,.71981129,-150.07971,-34.55094)" stroke-width="5" stroke-linecap="butt" stroke-miterlimit="10" stroke-linejoin="miter" fill="none" stroke="#000000" d="M1170.25 201.75H1100.25"/>
<text xml:space="preserve" transform="matrix(.71981129 0 0 .71981129 -150.43962 -34.910848)" font-size="15" font-family="Arial" font-weight="bold"><tspan y="208" x="1082.1563 1090.4962">38</tspan></text>
<path transform="matrix(-.71981129,0,0,-.71981129,1483.892,303.40046)" d="M1120.25 235C1120.25 226.72 1126.97 220 1135.25 220 1143.53 220 1150.25 226.72 1150.25 235 1150.25 243.28 1143.53 250 1135.25 250 1126.97 250 1120.25 243.28 1120.25 235" fill="#cdeb8b"/>
<path transform="matrix(-.71981129,0,0,-.71981129,1483.892,303.40046)" stroke-width="2" stroke-linecap="butt" stroke-miterlimit="10" stroke-linejoin="miter" fill="none" stroke="#36393d" d="M1120.25 235C1120.25 226.72 1126.97 220 1135.25 220 1143.53 220 1150.25 226.72 1150.25 235 1150.25 243.28 1143.53 250 1135.25 250 1126.97 250 1120.25 243.28 1120.25 235"/>
<path transform="matrix(-.71981129,0,0,-.71981129,1483.892,303.40046)" stroke-width="2" stroke-linecap="butt" stroke-miterlimit="10" stroke-linejoin="miter" fill="none" stroke="#36393d" d="M1135.25 235C1135.32 237.71 1137.54 239.88 1140.25 239.88 1142.96 239.88 1145.18 237.71 1145.25 235M1125.25 235C1125.21 233.19 1126.15 231.49 1127.71 230.57 1129.28 229.65 1131.22 229.65 1132.79 230.57 1134.35 231.49 1135.29 233.19 1135.25 235"/>
<path transform="matrix(.71981129,0,0,.71981129,-150.07971,-34.55094)" stroke-width="3" stroke-linecap="butt" stroke-miterlimit="10" stroke-linejoin="miter" fill="none" stroke="#000000" d="M1135.25 145.75V113.75"/>
<path transform="matrix(.71981129,0,0,.71981129,-150.07971,-34.55094)" stroke-width="5" stroke-linecap="butt" stroke-miterlimit="10" stroke-linejoin="miter" fill="none" stroke="#000000" d="M1151.5 380H1081.5"/>
<text xml:space="preserve" transform="matrix(.71981129 0 0 .71981129 -150.43962 -34.910848)" font-size="15" font-family="Arial" font-weight="bold"><tspan y="386" x="1063.1563 1071.4962">35</tspan></text>
<path transform="matrix(.71981129,0,0,.71981129,-150.07971,-34.55094)" stroke-width="3" stroke-linecap="butt" stroke-miterlimit="10" stroke-linejoin="miter" fill="none" stroke="#000000" d="M1115.25 433.09 1114.91 462.75"/>
<path transform="matrix(0,-.71981129,.71981129,0,274.96885,1118.9467)" d="M1084 489.75 1109 506 1084 522.25V489.75Z" fill="#ffff88"/>
<path transform="matrix(0,-.71981129,.71981129,0,274.96885,1118.9467)" stroke-width="1" stroke-linecap="butt" stroke-miterlimit="10" stroke-linejoin="miter" fill="none" stroke="#36393d" d="M1084 489.75 1109 506 1084 522.25V489.75Z"/>
<path transform="matrix(.71981129,0,0,.71981129,-150.07971,-34.55094)" stroke-width="3" stroke-linecap="butt" stroke-miterlimit="10" stroke-linejoin="miter" fill="none" stroke="#000000" d="M1097 547.75V517.75"/>
<path transform="matrix(-.71981129,0,0,-.71981129,1430.9859,839.3)" stroke-width="2" stroke-linecap="butt" stroke-miterlimit="4" stroke-linejoin="miter" fill="none" stroke="#000000" d="M1111 607.25C1110.9999 608.07077 1110.9198 608.8836 1110.7597 609.68856 1110.5996 610.4935 1110.3626 611.2752 1110.0485 612.03347 1109.7344 612.7917 1109.3494 613.5121 1108.8934 614.1945 1108.4375 614.87698 1107.9193 615.5084 1107.3389 616.0888 1106.7584 616.6692 1106.127 617.1873 1105.4445 617.64328 1104.7621 618.09927 1104.0418 618.4843 1103.2833 618.79849 1102.525 619.11257 1101.7434 619.3497 1100.9385 619.50979 1100.1334 619.66989 1099.3207 619.74996 1098.5 619.75 1097.6793 619.74996 1096.8663 619.66989 1096.0613 619.50979 1095.2564 619.3497 1094.4747 619.11257 1093.7163 618.79849 1092.958 618.4843 1092.2377 618.09927 1091.5553 617.64328 1090.8728 617.1873 1090.2413 616.6692 1089.6611 616.0888 1089.0807 615.5084 1088.5625 614.87698 1088.1066 614.1945 1087.6505 613.5121 1087.2654 612.7917 1086.9513 612.03347 1086.6372 611.2752 1086.4002 610.4935 1086.2401 609.68856 1086.0801 608.8836 1086 608.07077 1086 607.25 1086 606.42916 1086.0801 605.6162 1086.2401 604.8112 1086.4002 604.0062 1086.6372 603.22457 1086.9513 602.4663 1087.2654 601.70809 1087.6505 600.98776 1088.1066 600.3053 1088.5625 599.62289 1089.0807 598.9915 1089.6611 598.41116 1090.2413 597.83078 1090.8728 597.31259 1091.5553 596.8565 1092.2377 596.4006 1092.958 596.01559 1093.7163 595.7014 1094.4747 595.3873 1095.2564 595.15029 1096.0613 594.9902 1096.8663 594.8301 1097.6793 594.75 1098.5 594.75 1099.3207 594.75 1100.1334 594.8301 1100.9385 594.9902 1101.7434 595.15029 1102.525 595.3873 1103.2833 595.7014 1104.0418 596.01559 1104.7621 596.4006 1105.4445 596.8565 1106.127 597.31259 1106.7584 597.83078 1107.3389 598.41116 1107.9193 598.9915 1108.4375 599.62289 1108.8934 600.3053 1109.3494 600.98776 1109.7344 601.70809 1110.0485 602.4663 1110.3626 603.22457 1110.5996 604.0062 1110.7597 604.8112 1110.9198 605.6162 1110.9999 606.42916 1111 607.25Z"/>
<path transform="matrix(-.71981129,0,0,-.71981129,1430.9859,820.58486)" stroke-width="2" stroke-linecap="butt" stroke-miterlimit="4" stroke-linejoin="miter" fill="none" stroke="#000000" d="M1111 594.25C1110.9999 595.07077 1110.9198 595.8836 1110.7597 596.68856 1110.5996 597.4935 1110.3626 598.2752 1110.0485 599.03347 1109.7344 599.7917 1109.3494 600.5121 1108.8934 601.1945 1108.4375 601.87698 1107.9193 602.50839 1107.3389 603.08877 1106.7584 603.6691 1106.127 604.18728 1105.4445 604.64328 1104.7621 605.09927 1104.0418 605.48428 1103.2833 605.79837 1102.525 606.1125 1101.7434 606.3496 1100.9385 606.50979 1100.1334 606.66989 1099.3207 606.74996 1098.5 606.75 1097.6793 606.74996 1096.8663 606.66989 1096.0613 606.50979 1095.2564 606.3496 1094.4747 606.1125 1093.7163 605.79837 1092.958 605.48428 1092.2377 605.09927 1091.5553 604.64328 1090.8728 604.18728 1090.2413 603.6691 1089.6611 603.08877 1089.0807 602.50839 1088.5625 601.87698 1088.1066 601.1945 1087.6505 600.5121 1087.2654 599.7917 1086.9513 599.03347 1086.6372 598.2752 1086.4002 597.4935 1086.2401 596.68856 1086.0801 595.8836 1086 595.07077 1086 594.25 1086 593.42929 1086.0801 592.61636 1086.2401 591.81137 1086.4002 591.00637 1086.6372 590.2247 1086.9513 589.46646 1087.2654 588.7082 1087.6505 587.9878 1088.1066 587.30538 1088.5625 586.6229 1089.0807 585.9915 1089.6611 585.41116 1090.2413 584.83078 1090.8728 584.31259 1091.5553 583.85659 1092.2377 583.4006 1092.958 583.0155 1093.7163 582.7015 1094.4747 582.3874 1095.2564 582.15029 1096.0613 581.9902 1096.8663 581.8301 1097.6793 581.75 1098.5 581.75 1099.3207 581.75 1100.1334 581.8301 1100.9385 581.9902 1101.7434 582.15029 1102.525 582.3874 1103.2833 582.7015 1104.0418 583.0155 1104.7621 583.4006 1105.4445 583.85659 1106.127 584.31259 1106.7584 584.83078 1107.3389 585.41116 1107.9193 585.9915 1108.4375 586.6229 1108.8934 587.30538 1109.3494 587.9878 1109.7344 588.7082 1110.0485 589.46646 1110.3626 590.2247 1110.5996 591.00637 1110.7597 591.81137 1110.9198 592.61636 1110.9999 593.42929 1111 594.25Z"/>
<path transform="matrix(.71981129,0,0,.71981129,-150.07971,-34.55094)" stroke-width="3" stroke-linecap="butt" stroke-miterlimit="10" stroke-linejoin="miter" fill="none" stroke="#000000" d="M1097.75 656 1098 619.75"/>
<path transform="matrix(.71981129,0,0,.71981129,-150.07971,-34.55094)" stroke-width="5" stroke-linecap="butt" stroke-miterlimit="10" stroke-linejoin="miter" fill="none" stroke="#000000" d="M1132 637.75H1062"/>
<text xml:space="preserve" transform="matrix(.71981129 0 0 .71981129 -150.43962 -34.910848)" font-size="15" font-family="Arial" font-weight="bold"><tspan y="644" x="1044.1563 1052.4962">36</tspan></text>
<path transform="matrix(-.71981129,0,0,-.71981129,1428.8264,931.07589)" d="M1082 671C1082 662.72 1088.72 656 1097 656 1105.28 656 1112 662.72 1112 671 1112 679.28 1105.28 686 1097 686 1088.72 686 1082 679.28 1082 671" fill="#cdeb8b"/>
<path transform="matrix(-.71981129,0,0,-.71981129,1428.8264,931.07589)" stroke-width="2" stroke-linecap="butt" stroke-miterlimit="10" stroke-linejoin="miter" fill="none" stroke="#36393d" d="M1082 671C1082 662.72 1088.72 656 1097 656 1105.28 656 1112 662.72 1112 671 1112 679.28 1105.28 686 1097 686 1088.72 686 1082 679.28 1082 671"/>
<path transform="matrix(-.71981129,0,0,-.71981129,1428.8264,931.07589)" stroke-width="2" stroke-linecap="butt" stroke-miterlimit="10" stroke-linejoin="miter" fill="none" stroke="#36393d" d="M1097 671C1097.07 673.71 1099.29 675.88 1102 675.88 1104.71 675.88 1106.93 673.71 1107 671M1087 671C1086.96 669.19 1087.9 667.49 1089.46 666.57 1091.03 665.65 1092.97 665.65 1094.54 666.57 1096.1 667.49 1097.04 669.19 1097 671"/>
<path transform="matrix(.71981129,0,0,.71981129,-150.07971,-34.55094)" stroke-width="3" stroke-linecap="butt" stroke-miterlimit="10" stroke-linejoin="miter" fill="none" stroke="#000000" d="M1097 581.75V549.75"/>
<path transform="matrix(.71981129,0,0,.71981129,-150.07971,-34.55094)" stroke-width="5" stroke-linecap="butt" stroke-miterlimit="10" stroke-linejoin="miter" fill="none" stroke="#000000" d="M1170 550H1081.5"/>
<text xml:space="preserve" transform="matrix(.71981129 0 0 .71981129 -150.43962 -34.910848)" font-size="15" font-family="Arial" font-weight="bold"><tspan y="557" x="1065.1563 1073.4962">23</tspan></text>
<path transform="matrix(.71981129,0,0,.71981129,-150.07971,-34.55094)" stroke-width="3" stroke-linecap="butt" stroke-miterlimit="10" stroke-linejoin="miter" fill="none" stroke="#000000" d="M1060 280V300H1160V550"/>
<path transform="matrix(.71981129,0,0,.71981129,-150.07971,-34.55094)" stroke-width="5" stroke-linecap="butt" stroke-miterlimit="10" stroke-linejoin="miter" fill="none" stroke="#000000" d="M1040 550H880"/>
<text xml:space="preserve" transform="matrix(.71981129 0 0 .71981129 -150.43962 -34.910848)" font-size="15" font-family="Arial" font-weight="bold"><tspan y="557" x="863.15628 871.4963">19</tspan></text>
<path transform="matrix(.71981129,0,0,.71981129,-150.07971,-34.55094)" stroke-width="3" stroke-linecap="butt" stroke-miterlimit="10" stroke-linejoin="miter" fill="none" stroke="#000000" d="M924.61 339.75 926.5 562"/>
<path transform="matrix(.71981129,0,0,.71981129,-150.07971,-34.55094)" stroke-width="5" stroke-linecap="butt" stroke-miterlimit="10" stroke-linejoin="miter" fill="none" stroke="#000000" d="M968 609H879.5"/>
<text xml:space="preserve" transform="matrix(.71981129 0 0 .71981129 -150.43962 -34.910848)" font-size="15" font-family="Arial" font-weight="bold"><tspan y="616" x="863.15628 871.4963">20</tspan></text>
<path transform="matrix(.71981129,0,0,.71981129,-150.43962,-34.910848)" stroke-width="2" stroke-linecap="butt" stroke-miterlimit="4" stroke-linejoin="miter" fill="none" stroke="#000000" d="M939 574.5C938.99996 575.32077 938.91989 576.1336 938.7597 576.9386 938.59957 577.7435 938.3624 578.52517 938.0484 579.28347 937.73428 580.04177 937.34927 580.76217 936.89328 581.4446 936.4373 582.127 935.9192 582.7584 935.3388 583.3388 934.7584 583.9191 934.127 584.4373 933.4445 584.8933 932.7621 585.3493 932.0417 585.7343 931.28347 586.04849 930.5252 586.36257 929.7435 586.5997 928.93856 586.75979 928.1336 586.9199 927.32077 587 926.5 587 925.6792 587 924.86636 586.9199 924.06137 586.75979 923.25637 586.5997 922.4747 586.36257 921.71646 586.04849 920.95809 585.7343 920.23776 585.3493 919.5553 584.8933 918.87289 584.4373 918.2415 583.9191 917.66116 583.3388 917.08078 582.7584 916.5625 582.127 916.1065 581.4446 915.6505 580.76217 915.2655 580.04177 914.9514 579.28347 914.6373 578.52517 914.4002 577.7435 914.2401 576.9386 914.08 576.1336 914 575.32077 914 574.5 914 573.6792 914.08 572.86636 914.2401 572.06137 914.4002 571.25637 914.6373 570.47476 914.9514 569.71646 915.2655 568.9581 915.6505 568.2378 916.1065 567.55538 916.5625 566.8729 917.08078 566.2415 917.66116 565.66116 918.2415 565.08078 918.87289 564.56259 919.5553 564.10659 920.23776 563.6506 920.95809 563.26559 921.71646 562.9515 922.4747 562.6374 923.25637 562.40029 924.06137 562.2402 924.86636 562.0801 925.6792 562.00009 926.5 562 927.32077 562.00009 928.1336 562.0801 928.9386 562.2402 929.7436 562.40029 930.5252 562.6374 931.28347 562.9515 932.0417 563.26559 932.7621 563.6506 933.4445 564.10659 934.127 564.56259 934.7584 565.08078 935.3388 565.66116 935.9192 566.2415 936.4373 566.8729 936.89328 567.55538 937.34927 568.2378 937.73428 568.9581 938.0484 569.71646 938.3624 570.47476 938.59957 571.25637 938.7597 572.06137 938.91989 572.86636 938.99996 573.6792 939 574.5Z"/>
<path transform="matrix(.71981129,0,0,.71981129,-150.43962,-34.910848)" stroke-width="2" stroke-linecap="butt" stroke-miterlimit="4" stroke-linejoin="miter" fill="none" stroke="#000000" d="M939 587.5C938.99996 588.32077 938.91989 589.13357 938.7597 589.93856 938.59957 590.7435 938.3624 591.52517 938.0484 592.2835 937.73428 593.04177 937.34927 593.76217 936.89328 594.44467 936.4373 595.1271 935.9192 595.7584 935.3388 596.3388 934.7584 596.9192 934.127 597.4373 933.4445 597.89328 932.7621 598.34927 932.0417 598.7343 931.28347 599.0484 930.5252 599.3625 929.7435 599.5996 928.93856 599.7597 928.1336 599.91989 927.32077 599.99996 926.5 600 925.6792 599.99996 924.86636 599.91989 924.06137 599.7597 923.25637 599.5996 922.4747 599.3625 921.71646 599.0484 920.95809 598.7343 920.23776 598.3493 919.5553 597.8933 918.87289 597.4373 918.2415 596.9192 917.66116 596.3388 917.08078 595.7584 916.5625 595.127 916.1065 594.4446 915.6505 593.76217 915.2655 593.04177 914.9514 592.2835 914.6373 591.52517 914.4002 590.7435 914.2401 589.93856 914.08 589.13357 914 588.32077 914 587.5 914 586.67929 914.08 585.86636 914.2401 585.06137 914.4002 584.25637 914.6373 583.4747 914.9514 582.71646 915.2655 581.9581 915.6505 581.23776 916.1065 580.5553 916.5625 579.87289 917.08078 579.24148 917.66116 578.66116 918.2415 578.08078 918.87289 577.56259 919.5553 577.10659 920.23776 576.6506 920.95809 576.2655 921.71646 575.9514 922.4747 575.6373 923.25637 575.40029 924.06137 575.2402 924.86636 575.0801 925.6792 575 926.5 575 927.32077 575 928.1336 575.0801 928.9386 575.2402 929.7436 575.40029 930.5252 575.6373 931.28347 575.9514 932.0417 576.2655 932.7621 576.6506 933.4445 577.10659 934.127 577.56259 934.7584 578.08078 935.3388 578.66116 935.9192 579.24148 936.4373 579.87289 936.89328 580.5553 937.34927 581.23776 937.73428 581.9581 938.0484 582.71646 938.3624 583.4747 938.59957 584.25637 938.7597 585.06137 938.91989 585.86636 938.99996 586.67929 939 587.5Z"/>
<path transform="matrix(.71981129,0,0,.71981129,-150.07971,-34.55094)" stroke-width="3" stroke-linecap="butt" stroke-miterlimit="10" stroke-linejoin="miter" fill="none" stroke="#000000" d="M926 610 926.21 600"/>
<path transform="matrix(0,.71981129,-.71981129,0,959.5094,-208.02545)" d="M878.75 634 903.75 650.25 878.75 666.5V634Z" fill="#ffff88"/>
<path transform="matrix(0,.71981129,-.71981129,0,959.5094,-208.02545)" stroke-width="1" stroke-linecap="butt" stroke-miterlimit="10" stroke-linejoin="miter" fill="none" stroke="#36393d" d="M878.75 634 903.75 650.25 878.75 666.5V634Z"/>
<path transform="matrix(.71981129,0,0,.71981129,-150.07971,-34.55094)" stroke-width="3" stroke-linecap="butt" stroke-miterlimit="10" stroke-linejoin="miter" fill="none" stroke="#000000" d="M890.96 609V639"/>
<path transform="matrix(.71981129,0,0,.71981129,-150.43962,-34.910848)" stroke-width="2" stroke-linecap="butt" stroke-miterlimit="4" stroke-linejoin="miter" fill="none" stroke="#000000" d="M939 632.25C938.99996 633.07077 938.91989 633.88357 938.7597 634.68856 938.59957 635.4935 938.3624 636.27517 938.0484 637.0335 937.73428 637.79177 937.34927 638.5121 936.89328 639.1945 936.4373 639.87698 935.9192 640.5084 935.3388 641.0888 934.7584 641.6691 934.127 642.18728 933.4445 642.64328 932.7621 643.09927 932.0417 643.4843 931.28347 643.7984 930.5252 644.1125 929.7435 644.3496 928.93856 644.50979 928.1336 644.6699 927.32077 644.75 926.5 644.75 925.6792 644.75 924.86636 644.6699 924.06137 644.50979 923.25637 644.3496 922.4747 644.1125 921.71646 643.7984 920.95809 643.4843 920.23776 643.09927 919.5553 642.64328 918.87289 642.18728 918.2415 641.6691 917.66116 641.0888 917.08078 640.5084 916.5625 639.87698 916.1065 639.1945 915.6505 638.5121 915.2655 637.79177 914.9514 637.0335 914.6373 636.27517 914.4002 635.4935 914.2401 634.68856 914.08 633.88357 914 633.07077 914 632.25 914 631.42929 914.08 630.61636 914.2401 629.8113 914.4002 629.0063 914.6373 628.2247 914.9514 627.46646 915.2655 626.7081 915.6505 625.9878 916.1065 625.30538 916.5625 624.6229 917.08078 623.9916 917.66116 623.4112 918.2415 622.8308 918.87289 622.3126 919.5553 621.85659 920.23776 621.4006 920.95809 621.01559 921.71646 620.7014 922.4747 620.3873 923.25637 620.15029 924.06137 619.9902 924.86636 619.8301 925.6792 619.75 926.5 619.75 927.32077 619.75 928.1336 619.8301 928.9386 619.9902 929.7436 620.15029 930.5252 620.3873 931.28347 620.7014 932.0417 621.01559 932.7621 621.4006 933.4445 621.85659 934.127 622.3126 934.7584 622.8308 935.3388 623.4112 935.9192 623.9916 936.4373 624.6229 936.89328 625.30538 937.34927 625.9878 937.73428 626.7081 938.0484 627.46646 938.3624 628.2247 938.59957 629.0063 938.7597 629.8113 938.91989 630.61636 938.99996 631.42929 939 632.25Z"/>
<path transform="matrix(.71981129,0,0,.71981129,-150.43962,-34.910848)" stroke-width="2" stroke-linecap="butt" stroke-miterlimit="4" stroke-linejoin="miter" fill="none" stroke="#000000" d="M939 645.25C938.99996 646.07077 938.91989 646.88357 938.7597 647.68856 938.59957 648.4935 938.3624 649.2752 938.0484 650.03347 937.73428 650.7918 937.34927 651.51217 936.89328 652.1946 936.4373 652.877 935.9192 653.5084 935.3388 654.0888 934.7584 654.6691 934.127 655.1873 933.4445 655.6433 932.7621 656.0993 932.0417 656.4843 931.28347 656.7984 930.5252 657.1125 929.7435 657.3496 928.93856 657.5097 928.1336 657.6698 927.32077 657.74996 926.5 657.75 925.6792 657.74996 924.86636 657.6698 924.06137 657.5097 923.25637 657.3496 922.4747 657.1125 921.71646 656.7984 920.95809 656.4843 920.23776 656.0993 919.5553 655.6433 918.87289 655.1873 918.2415 654.6691 917.66116 654.0888 917.08078 653.5084 916.5625 652.877 916.1065 652.1946 915.6505 651.51217 915.2655 650.7918 914.9514 650.03347 914.6373 649.2752 914.4002 648.4935 914.2401 647.68856 914.08 646.88357 914 646.07077 914 645.25 914 644.42929 914.08 643.61636 914.2401 642.81137 914.4002 642.00637 914.6373 641.2247 914.9514 640.4664 915.2655 639.7081 915.6505 638.9878 916.1065 638.30538 916.5625 637.62289 917.08078 636.99148 917.66116 636.41116 918.2415 635.83078 918.87289 635.31259 919.5553 634.85659 920.23776 634.4006 920.95809 634.0155 921.71646 633.7014 922.4747 633.3874 923.25637 633.15029 924.06137 632.9902 924.86636 632.8301 925.6792 632.75 926.5 632.75 927.32077 632.75 928.1336 632.8301 928.9386 632.9902 929.7436 633.15029 930.5252 633.3874 931.28347 633.7014 932.0417 634.0155 932.7621 634.4006 933.4445 634.85659 934.127 635.31259 934.7584 635.83078 935.3388 636.41116 935.9192 636.99148 936.4373 637.62289 936.89328 638.30538 937.34927 638.9878 937.73428 639.7081 938.0484 640.4664 938.3624 641.2247 938.59957 642.00637 938.7597 642.81137 938.91989 643.61636 938.99996 644.42929 939 645.25Z"/>
<path transform="matrix(.71981129,0,0,.71981129,-150.07971,-34.55094)" stroke-width="3" stroke-linecap="butt" stroke-miterlimit="10" stroke-linejoin="miter" fill="none" stroke="#000000" d="M926.4 619.75 926.61 609.75"/>
<path transform="matrix(.71981129,0,0,.71981129,-150.07971,-34.55094)" stroke-width="3" stroke-linecap="butt" stroke-miterlimit="10" stroke-linejoin="miter" fill="none" stroke="#000000" d="M927.25 692.25 927.5 656"/>
<path transform="matrix(.71981129,0,0,.71981129,-150.07971,-34.55094)" stroke-width="5" stroke-linecap="butt" stroke-miterlimit="10" stroke-linejoin="miter" fill="none" stroke="#000000" d="M961.5 674H891.5"/>
<text xml:space="preserve" transform="matrix(.71981129 0 0 .71981129 -150.43962 -34.910848)" font-size="15" font-family="Arial" font-weight="bold"><tspan y="681" x="872.15628 880.4963">34</tspan></text>
<path transform="matrix(-.71981129,0,0,-.71981129,1183.3707,983.26229)" d="M911.5 707.25C911.5 698.97 918.22 692.25 926.5 692.25 934.78 692.25 941.5 698.97 941.5 707.25 941.5 715.53 934.78 722.25 926.5 722.25 918.22 722.25 911.5 715.53 911.5 707.25" fill="#cdeb8b"/>
<path transform="matrix(-.71981129,0,0,-.71981129,1183.3707,983.26229)" stroke-width="2" stroke-linecap="butt" stroke-miterlimit="10" stroke-linejoin="miter" fill="none" stroke="#36393d" d="M911.5 707.25C911.5 698.97 918.22 692.25 926.5 692.25 934.78 692.25 941.5 698.97 941.5 707.25 941.5 715.53 934.78 722.25 926.5 722.25 918.22 722.25 911.5 715.53 911.5 707.25"/>
<path transform="matrix(-.71981129,0,0,-.71981129,1183.3707,983.26229)" stroke-width="2" stroke-linecap="butt" stroke-miterlimit="10" stroke-linejoin="miter" fill="none" stroke="#36393d" d="M926.5 707.25C926.57 709.96 928.79 712.13 931.5 712.13 934.21 712.13 936.43 709.96 936.5 707.25M916.5 707.25C916.46 705.44 917.4 703.74 918.96 702.82 920.53 701.9 922.47 701.9 924.04 702.82 925.6 703.74 926.54 705.44 926.5 707.25"/>
<path transform="matrix(.71981129,0,0,.71981129,-150.07971,-34.55094)" stroke-width="5" stroke-linecap="butt" stroke-miterlimit="10" stroke-linejoin="miter" fill="none" stroke="#000000" d="M1059 671.75H989"/>
<text xml:space="preserve" transform="matrix(.71981129 0 0 .71981129 -150.43962 -34.910848)" font-size="15" font-family="Arial" font-weight="bold"><tspan y="678" x="971.15628 979.4963">33</tspan></text>
<path transform="matrix(.71981129,0,0,.71981129,-150.43962,-34.910848)" stroke-width="4" stroke-linecap="butt" stroke-miterlimit="10" stroke-linejoin="miter" fill="none" stroke="#000000" d="M1022.5 692.25V629.75"/>
<path transform="matrix(-.71981129,0,0,-.71981129,1321.5744,983.26229)" d="M1007.5 707.25C1007.5 698.97 1014.22 692.25 1022.5 692.25 1030.78 692.25 1037.5 698.97 1037.5 707.25 1037.5 715.53 1030.78 722.25 1022.5 722.25 1014.22 722.25 1007.5 715.53 1007.5 707.25" fill="#cdeb8b"/>
<path transform="matrix(-.71981129,0,0,-.71981129,1321.5744,983.26229)" stroke-width="2" stroke-linecap="butt" stroke-miterlimit="10" stroke-linejoin="miter" fill="none" stroke="#36393d" d="M1007.5 707.25C1007.5 698.97 1014.22 692.25 1022.5 692.25 1030.78 692.25 1037.5 698.97 1037.5 707.25 1037.5 715.53 1030.78 722.25 1022.5 722.25 1014.22 722.25 1007.5 715.53 1007.5 707.25"/>
<path transform="matrix(-.71981129,0,0,-.71981129,1321.5744,983.26229)" stroke-width="2" stroke-linecap="butt" stroke-miterlimit="10" stroke-linejoin="miter" fill="none" stroke="#36393d" d="M1022.5 707.25C1022.57 709.96 1024.79 712.13 1027.5 712.13 1030.21 712.13 1032.43 709.96 1032.5 707.25M1012.5 707.25C1012.46 705.44 1013.4 703.74 1014.96 702.82 1016.53 701.9 1018.47 701.9 1020.04 702.82 1021.6 703.74 1022.54 705.44 1022.5 707.25"/>
<path transform="matrix(-.71981129,0,0,-.71981129,1321.5744,853.69619)" stroke-width="2" stroke-linecap="butt" stroke-miterlimit="4" stroke-linejoin="miter" fill="none" stroke="#000000" d="M1035 617.25C1035 618.07077 1034.9199 618.8836 1034.7597 619.6886 1034.5996 620.4936 1034.3624 621.2752 1034.0484 622.0335 1033.7343 622.79177 1033.3491 623.51217 1032.8932 624.1946 1032.4373 624.877 1031.9191 625.5084 1031.3388 626.0888 1030.7583 626.6692 1030.127 627.1873 1029.4445 627.64328 1028.762 628.0993 1028.0416 628.4844 1027.2833 628.79849 1026.5252 629.11257 1025.7435 629.3497 1024.9385 629.5098 1024.1336 629.6699 1023.32077 629.75 1022.5 629.75 1021.67929 629.75 1020.86636 629.6699 1020.0613 629.5098 1019.2563 629.3497 1018.4746 629.11257 1017.7164 628.79849 1016.95809 628.4844 1016.23776 628.0993 1015.5553 627.6433 1014.87289 627.1873 1014.24148 626.6692 1013.66116 626.0888 1013.08078 625.5084 1012.5625 624.877 1012.1065 624.1945 1011.6505 623.5121 1011.2655 622.79177 1010.9514 622.0335 1010.63729 621.2752 1010.4002 620.4936 1010.2401 619.6886 1010.08 618.8836 1009.99996 618.07077 1010 617.25 1009.99996 616.4292 1010.08 615.6163 1010.2401 614.8113 1010.4002 614.0063 1010.63729 613.2247 1010.9514 612.4664 1011.2655 611.70809 1011.6505 610.98776 1012.1065 610.3053 1012.5625 609.62289 1013.08078 608.9915 1013.66116 608.41116 1014.24148 607.83078 1014.8728 607.31259 1015.55526 606.85659 1016.2377 606.4006 1016.95809 606.01559 1017.7164 605.7015 1018.4746 605.3874 1019.2563 605.15029 1020.0613 604.9902 1020.86636 604.8301 1021.67929 604.75 1022.5 604.75 1023.32077 604.75 1024.1336 604.8301 1024.9385 604.9902 1025.7435 605.15029 1026.5252 605.3874 1027.2833 605.7015 1028.0416 606.01559 1028.7621 606.4006 1029.4446 606.85659 1030.127 607.31259 1030.7583 607.83078 1031.3388 608.41116 1031.9191 608.9915 1032.4373 609.62289 1032.8932 610.3053 1033.3491 610.98776 1033.7343 611.70809 1034.0484 612.4664 1034.3624 613.2247 1034.5996 614.0063 1034.7597 614.8113 1034.9199 615.6163 1035 616.4292 1035 617.25Z"/>
<path transform="matrix(-.71981129,0,0,-.71981129,1321.5744,834.9811)" stroke-width="2" stroke-linecap="butt" stroke-miterlimit="4" stroke-linejoin="miter" fill="none" stroke="#000000" d="M1035 604.25C1035 605.07077 1034.9199 605.8836 1034.7597 606.6886 1034.5996 607.4936 1034.3624 608.2752 1034.0484 609.0335 1033.7343 609.7918 1033.3491 610.51217 1032.8932 611.1946 1032.4373 611.877 1031.9191 612.5084 1031.3388 613.0888 1030.7583 613.6692 1030.127 614.1874 1029.4445 614.6434 1028.762 615.09939 1028.0416 615.4844 1027.2833 615.79849 1026.5252 616.11257 1025.7435 616.3497 1024.9385 616.5098 1024.1336 616.6699 1023.32077 616.75 1022.5 616.75 1021.67929 616.75 1020.86636 616.6699 1020.0613 616.5098 1019.2563 616.3497 1018.4746 616.11257 1017.7164 615.79849 1016.95809 615.4844 1016.23776 615.09939 1015.5553 614.6434 1014.87289 614.1874 1014.24148 613.6692 1013.66116 613.0888 1013.08078 612.5084 1012.5625 611.877 1012.1065 611.1946 1011.6505 610.51217 1011.2655 609.7918 1010.9514 609.0335 1010.63729 608.2752 1010.4002 607.4936 1010.2401 606.6886 1010.08 605.8836 1009.99996 605.07077 1010 604.25 1009.99996 603.42929 1010.08 602.61636 1010.2401 601.81137 1010.4002 601.00637 1010.63729 600.2247 1010.9514 599.46646 1011.2655 598.7081 1011.6505 597.98776 1012.1065 597.3053 1012.5625 596.62289 1013.08078 595.9915 1013.66116 595.41116 1014.24148 594.83078 1014.8728 594.3126 1015.55526 593.8566 1016.2377 593.40066 1016.95809 593.01559 1017.7164 592.7015 1018.4746 592.3874 1019.2563 592.15029 1020.0613 591.9902 1020.86636 591.8301 1021.67929 591.75 1022.5 591.75 1023.32077 591.75 1024.1336 591.8301 1024.9385 591.9902 1025.7435 592.15029 1026.5252 592.3874 1027.2833 592.7015 1028.0416 593.01559 1028.7621 593.40066 1029.4446 593.8566 1030.127 594.3126 1030.7583 594.83078 1031.3388 595.41116 1031.9191 595.9915 1032.4373 596.62289 1032.8932 597.3053 1033.3491 597.98776 1033.7343 598.7081 1034.0484 599.46646 1034.3624 600.2247 1034.5996 601.00637 1034.7597 601.81137 1034.9199 602.61636 1035 603.42929 1035 604.25Z"/>
<path transform="matrix(.71981129,0,0,.71981129,-150.43962,-34.910848)" stroke-width="4" stroke-linecap="butt" stroke-miterlimit="10" stroke-linejoin="miter" fill="none" stroke="#000000" d="M1022.3 590.48 1022 550"/>
<path transform="matrix(0,-.71981129,.71981129,0,49.667917,781.35519)" d="M693 411.75 718 428 693 444.25V411.75Z" fill="#ffff88"/>
<path transform="matrix(0,-.71981129,.71981129,0,49.667917,781.35519)" stroke-width="1" stroke-linecap="butt" stroke-miterlimit="10" stroke-linejoin="miter" fill="none" stroke="#36393d" d="M693 411.75 718 428 693 444.25V411.75Z"/>
<path transform="matrix(.71981129,0,0,.71981129,-150.07971,-34.55094)" stroke-width="3" stroke-linecap="butt" stroke-miterlimit="10" stroke-linejoin="miter" fill="none" stroke="#000000" d="M706 469.75V439.75"/>
<path transform="matrix(.71981129,0,0,.71981129,-150.07971,-34.55094)" d="M906.5 338.19V347.19 348.69H903.5V347.19 336.69H906.5V338.19ZM906.5 356.19V365.19 366.69H903.5V365.19 354.69H906.5V356.19ZM906.5 374.19V383.19 384.69H903.5V383.19 372.69H906.5V374.19ZM906.5 392.19V401.19 402.69H903.5V401.19 390.69H906.5V392.19ZM906.5 410.19V419.19 420.69H903.5V419.19 408.69H906.5V410.19ZM906.5 428.19V437.19 438.69H903.5V437.19 426.69H906.5V428.19ZM906.5 446.19V455.19 456.69H903.5V455.19 444.69H906.5V446.19ZM906.5 464.19V473.19 474.69H903.5V473.19 462.69H906.5V464.19ZM906.5 482.19V491.19 492.69H903.5V491.19 480.69H906.5V482.19ZM906.5 500.19V509.19 510.69H903.5V509.19 498.69H906.5V500.19ZM906.5 518.19V527.19 528.69H903.5V527.19 516.69H906.5V518.19ZM906.5 536.19V545.19 546.69H903.5V545.19 534.69H906.5V536.19ZM883.5 550V541 539.5H886.5V541 551.5H883.5V550ZM883.5 532V523 521.5H886.5V523 533.5H883.5V532ZM883.5 514V505 503.5H886.5V505 515.5H883.5V514ZM883.5 496V487 485.5H886.5V487 497.5H883.5V496ZM883.5 478V469 467.5H886.5V469 479.5H883.5V478ZM883.5 460V451 449.5H886.5V451 461.5H883.5V460ZM883.5 442V433 431.5H886.5V433 443.5H883.5V442ZM883.5 424V415 413.5H886.5V415 425.5H883.5V424ZM883.5 406V397 395.5H886.5V397 407.5H883.5V406ZM883.5 388V379 377.5H886.5V379 389.5H883.5V388ZM883.5 370V361 359.5H886.5V361 371.5H883.5V370ZM883.5 352V341.5H886.5V353.5H883.5V352Z" fill="#ff0000"/>
<path transform="matrix(.71981129,0,0,.71981129,-150.43962,-34.910848)" d="M874 436H916V453H874Z" fill="#ffffff"/>
<text fill="#ff0000" xml:space="preserve" transform="matrix(.71981129 0 0 .71981129 -150.43962 -34.910848)" font-size="15" font-family="Arial" font-weight="bold"><tspan y="450" x="873.75 884.58 894.585 905.41506">HVDC</tspan></text>
<text xml:space="preserve" transform="matrix(.71981129 0 0 .71981129 -150.43962 -34.910848)" font-size="15" font-family="Arial" font-weight="bold"><tspan y="135" x="285.5 297.17">G1</tspan></text>
<text xml:space="preserve" transform="matrix(.71981129 0 0 .71981129 -150.43962 -34.910848)" font-size="15" font-family="Arial" font-weight="bold"><tspan y="375" x="220.32813 231.99813 240.33812">G10</tspan></text>
<text xml:space="preserve" transform="matrix(.71981129 0 0 .71981129 -150.43962 -34.910848)" font-size="15" font-family="Arial" font-weight="bold"><tspan y="684" x="598.5 610.17">G2</tspan></text>
<text xml:space="preserve" transform="matrix(.71981129 0 0 .71981129 -150.43962 -34.910848)" font-size="15" font-family="Arial" font-weight="bold"><tspan y="731" x="748.5 760.17">G3</tspan></text>
<text xml:space="preserve" transform="matrix(.71981129 0 0 .71981129 -150.43962 -34.910848)" font-size="15" font-family="Arial" font-weight="bold"><tspan y="741" x="1013.5 1025.17">G4</tspan></text>
<text xml:space="preserve" transform="matrix(.71981129 0 0 .71981129 -150.43962 -34.910848)" font-size="15" font-family="Arial" font-weight="bold"><tspan y="741" x="918.8281 930.4981">G5</tspan></text>
<text xml:space="preserve" transform="matrix(.71981129 0 0 .71981129 -150.43962 -34.910848)" font-size="15" font-family="Arial" font-weight="bold"><tspan y="323" x="1105.5 1117.17">G6</tspan></text>
<text xml:space="preserve" transform="matrix(.71981129 0 0 .71981129 -150.43962 -34.910848)" font-size="15" font-family="Arial" font-weight="bold"><tspan y="707" x="1089.5 1101.17">G7</tspan></text>
<text xml:space="preserve" transform="matrix(.71981129 0 0 .71981129 -150.43962 -34.910848)" font-size="15" font-family="Arial" font-weight="bold"><tspan y="71" x="623.5 635.17">G8</tspan></text>
<text xml:space="preserve" transform="matrix(.71981129 0 0 .71981129 -150.43962 -34.910848)" font-size="15" font-family="Arial" font-weight="bold"><tspan y="241" x="1094.5 1106.17">G9</tspan></text>
<path transform="matrix(.71981129,0,0,.71981129,-150.07971,-34.55094)" stroke-width="3" stroke-linecap="butt" stroke-miterlimit="10" stroke-linejoin="miter" fill="none" stroke="#000000" d="M660 200V160H716V111"/>
</g>
</svg>
